<?xml version="1.0" encoding="utf-8"?>
<!-- Generator: Adobe Illustrator 23.0.1, SVG Export Plug-In . SVG Version: 6.00 Build 0)  -->
<svg version="1.1" id="Camada_1" xmlns="http://www.w3.org/2000/svg" xmlns:xlink="http://www.w3.org/1999/xlink" x="0px" y="0px"
	 viewBox="0 0 930 205" style="enable-background:new 0 0 930 205;" xml:space="preserve">
<style type="text/css">
	.st0{fill:#FFFFFF;}
	.st1{fill:#FFFFFF;stroke:#FFFFFF;stroke-miterlimit:10;}
</style>
<g>
	<g>
		<path class="st0" d="M70.21,188.87c-9.85,0-17.38-2.24-22.38-6.66c-5.25-4.64-6.04-10.23-6.04-13.16c0-5.6,2.82-10.33,6.15-10.33
			c3.02,0,3.35,2.16,3.68,5.99c0.46,5.39,1.09,12.77,14.74,12.77c21.53,0,70.49-14.11,70.49-37.34c0-21.41-29.85-38.82-59.06-53.03
			c-7.6-3.7-11.43-8.36-11.4-13.88c0.06-10.04,13.34-22.54,34.67-32.61c19.39-9.16,34.11-13.8,43.74-13.8
			c8.92,0,13.26,3.89,13.26,11.9c0,1.95-1.27,2.68-4.69,2.68c-0.96,0-2.02-0.06-3.13-0.11c-1.22-0.06-2.49-0.13-3.77-0.13
			c-2.05,0-3.65,0.17-5.06,0.54c-16.54,4.33-31.27,8.56-44.01,16.47c-3.03,1.88-5.66,3.41-7.97,4.75
			c-7.52,4.37-11.3,6.56-11.3,11.08c0,3.51,6.25,6.26,15.7,10.42c11.86,5.23,28.11,12.38,40.25,24.94
			c19.18,19.84,20.79,34.72,5.58,51.37C126.95,174.65,108.75,188.87,70.21,188.87z"/>
		<path class="st0" d="M144.8,27.33c8.59,0,12.76,3.73,12.76,11.4c0,1.19-0.32,2.18-4.19,2.18c-0.95,0-2-0.05-3.1-0.11
			c-1.23-0.06-2.5-0.13-3.79-0.13c-2.09,0-3.74,0.18-5.19,0.56c-16.58,4.34-31.35,8.58-44.15,16.53c-3.02,1.88-5.65,3.4-7.96,4.74
			C81.49,66.95,77.63,69.19,77.63,74c0,3.83,6.37,6.64,16,10.88c11.83,5.21,28.02,12.34,40.09,24.83
			c18.95,19.6,20.56,34.28,5.57,50.69c-12.64,13.83-30.74,27.97-69.09,27.97c-9.72,0-17.14-2.2-22.05-6.54
			c-5.11-4.51-5.87-9.94-5.87-12.78c0-5.33,2.59-9.83,5.65-9.83c2.49,0,2.83,1.43,3.18,5.53c0.48,5.58,1.13,13.23,15.24,13.23
			c21.69,0,70.99-14.3,70.99-37.84c0-21.69-30-39.2-59.34-53.48c-7.41-3.6-11.15-8.12-11.12-13.42
			c0.06-9.85,13.23-22.17,34.38-32.16C120.6,31.95,135.25,27.33,144.8,27.33 M144.8,26.33c-10.88,0-27.01,5.85-43.95,13.85
			C70.71,54.41,52.79,75.51,77.57,87.56c24.78,12.06,58.78,30.14,58.78,52.58c0,22.44-48.23,36.84-69.99,36.84
			s-9.21-18.75-18.42-18.75c-9.21,0-14.23,31.15,22.27,31.15s55.59-12.73,69.83-28.3c14.23-15.57,15.12-30.64-5.59-52.06
			C112.96,86.79,78.63,81.37,78.63,74c0-5.53,6.08-7.37,19.03-15.41c12.95-8.04,28.36-12.35,43.87-16.41
			c1.55-0.41,3.24-0.52,4.94-0.52c2.42,0,4.85,0.24,6.9,0.24c3.03,0,5.19-0.53,5.19-3.18C158.56,29.88,153.27,26.33,144.8,26.33
			L144.8,26.33z"/>
	</g>
	<g>
		<path class="st0" d="M268.75,184.8c-8.69,0-14.85-2.09-18.31-6.21c-3.63-4.31-3.55-9.98-2.86-13.97c0.81-4.65,1.77-5.63,2.43-5.63
			c1.23,0,3.19,2.98,4.03,4.25c0.62,0.94,1.36,1.79,2.21,2.51l0.68,0.58l13.4-88.56l-1.02,0.86c-0.06,0.05-5.92,4.94-11.26,4.94
			c-2.39,0-4.33-1-5.77-2.96l-0.81-1.11l-0.09,1.37c-0.63,9.36-2.6,27-8.77,39.91c-7.71,16.12-29.49,41.69-55.14,41.69
			c-9.09,0-16.37-2.89-21.63-8.59c-7.56-8.19-10.79-21.94-9.35-39.76c1.39-17.22,3.65-28.59,5.14-36.11
			c0.9-4.54,1.55-7.82,1.55-10.14c0-5.27,6.01-5.42,6.7-5.42c2.07,0,3.77,0.83,4.93,2.41c2.71,3.69,2.5,11.17-0.6,21.05
			c-4.41,14.06-8.01,46.6,0.85,58.67c2.25,3.06,5.16,4.61,8.67,4.61c19.25,0,42.18-19.58,48.32-35.8
			c1.63-4.31,3.54-10.87,4.14-15.82c1.24-10.41,0.91-14.47-0.36-23.43c-0.09-0.6-0.1-1.5-0.11-2.29l0-0.31
			c-0.03-1.79,0.69-3.51,2.02-4.87c1.4-1.43,3.32-2.24,5.25-2.24c3.77,0,6.94,2.98,8.73,8.19l-0.03,1.97l0.91-1.09
			c6.07-7.32,27.57-13.63,35.57-13.63c0.96,0,2.09-0.03,3.35-0.06c1.58-0.04,3.37-0.08,5.28-0.08c12.85,0,29.94,1.86,29.94,17.94
			c0,13.69-15.29,21.47-26.45,27.15c-5.96,3.03-10.26,5.22-10.6,7.55c-0.34,2.33,4.08,3.32,10.79,4.82
			c13.6,3.04,36.37,8.14,33.64,29.18C330.18,176.77,289.63,184.8,268.75,184.8z M265.02,172.57l0.55,0.05
			c0.06,0.01,1.61,0.15,4.21,0.15c5.05,0,12.81-0.53,21.14-3.07c20.17-6.16,30.82-15.13,30.79-25.93
			c-0.04-18.59-44.81-18.81-46.72-18.81h-0.41L265.02,172.57z M294.15,72.83c-2.93,0-5.09,0.11-5.11,0.11l-0.35,0.02l-9.37,31.85
			l1.05-0.56c1.3-0.69,31.74-17.13,31.74-26.79C312.11,74.39,306.07,72.83,294.15,72.83z"/>
		<path class="st0" d="M296.8,60.24c12.64,0,29.44,1.81,29.44,17.44c0,13.39-15.13,21.09-26.18,26.71
			c-6.32,3.22-10.49,5.34-10.87,7.92c-0.41,2.79,3.95,3.76,11.17,5.38c14.3,3.2,35.92,8.04,33.26,28.63
			c-3.89,30.04-44.13,37.98-64.87,37.98c-8.53,0-14.56-2.03-17.93-6.03c-3.5-4.17-3.43-9.67-2.75-13.56c0.9-5.16,1.9-5.21,1.94-5.21
			c0.44,0,1.42,0.7,3.61,4.03c0.65,0.98,1.42,1.86,2.31,2.62l1.37,1.17l0.27-1.78l13.06-86.35l0.4-2.62l-2.03,1.71
			c-0.06,0.05-5.78,4.82-10.93,4.82c-2.25,0-4.01-0.9-5.37-2.76l-1.62-2.22l-0.18,2.74c-0.62,9.33-2.59,26.89-8.72,39.72
			c-4.67,9.77-12.72,20.05-21.52,27.49c-7.5,6.35-19.35,13.91-33.17,13.91c-8.94,0-16.1-2.84-21.26-8.43
			c-7.46-8.09-10.65-21.7-9.22-39.38c1.39-17.19,3.64-28.54,5.14-36.05c0.91-4.57,1.56-7.87,1.56-10.24c0-4.78,5.56-4.92,6.23-4.92
			c0,0,0,0,0,0c1.91,0,3.42,0.74,4.5,2.21c1.51,2.06,3.44,7.48-0.68,20.61c-4.44,14.15-8.03,46.91,0.93,59.11
			c2.35,3.2,5.4,4.82,9.07,4.82c19.44,0,42.59-19.76,48.79-36.12c1.64-4.33,3.57-10.94,4.16-15.94c1.25-10.47,0.91-14.55-0.36-23.55
			c-0.08-0.57-0.09-1.45-0.1-2.22l0-0.31c-0.03-1.65,0.64-3.25,1.88-4.51c1.31-1.33,3.09-2.1,4.89-2.1c3.52,0,6.51,2.83,8.23,7.78
			c0,0.11,0,0.26-0.01,0.45l-0.04,2.84l1.81-2.19c5.99-7.22,27.27-13.44,35.18-13.44c0.97,0,2.08-0.03,3.36-0.06
			C293.1,60.28,294.89,60.24,296.8,60.24 M278.5,105.82l2.11-1.13c3.28-1.76,32.01-17.44,32.01-27.23c0-1.27,0-5.13-18.46-5.13
			c-2.95,0-5.12,0.11-5.14,0.11l-0.71,0.04l-0.2,0.68l-8.93,30.36L278.5,105.82 M269.78,173.28c5.08,0,12.9-0.54,21.28-3.1
			c20.4-6.23,31.17-15.36,31.15-26.41c-0.04-19.09-45.29-19.31-47.22-19.31h-0.82l-0.16,0.8l-9.38,46.66l-0.22,1.09l1.1,0.11
			C265.59,173.13,267.15,173.28,269.78,173.28 M296.8,59.24c-3.44,0-6.47,0.13-8.63,0.13c-7.88,0-29.63,6.18-35.95,13.81
			c0.01-0.4,0.01-0.63,0.01-0.63c-2.12-6.26-5.82-8.61-9.23-8.61c-4.13,0-7.84,3.46-7.77,7.62c0.01,0.86,0.02,1.93,0.12,2.65
			c1.28,9.07,1.58,13.05,0.36,23.3c-0.58,4.85-2.46,11.35-4.11,15.7c-6.24,16.45-29.27,35.48-47.86,35.48s-14.4-45.55-9.04-62.63
			c5.36-17.08,1.42-24.11-4.77-24.11c0,0-0.01,0-0.03,0c-0.48,0-7.2,0.1-7.2,5.92c0,6.03-4.46,18.53-6.7,46.22
			c-2.23,27.69,6.7,48.9,31.48,48.9c24.78,0,46.87-23.73,55.59-41.97c6.11-12.79,8.14-30,8.82-40.09c1.71,2.34,3.91,3.17,6.17,3.17
			c5.59,0,11.58-5.06,11.58-5.06l-13.06,86.35c-0.75-0.64-1.48-1.43-2.12-2.41c-1.71-2.61-3.2-4.48-4.44-4.48
			c-1.19,0-2.16,1.69-2.92,6.04c-1.56,8.93,0.89,20.76,21.66,20.76c20.76,0,61.84-7.81,65.86-38.85
			c4.02-31.03-45.32-27.91-44.43-33.99c0.89-6.08,37.06-13.56,37.06-34.77C327.24,61.03,309.35,59.24,296.8,59.24L296.8,59.24z
			 M280.13,103.81l8.93-30.36c0,0,2.13-0.11,5.09-0.11c6.65,0,17.46,0.55,17.46,4.13C311.61,86.93,280.13,103.81,280.13,103.81
			L280.13,103.81z M269.78,172.28c-2.61,0-4.16-0.15-4.16-0.15l9.38-46.66c0,0,46.17,0,46.22,18.31
			c0.03,12.18-13.62,20.32-30.44,25.45C282.31,171.81,274.4,172.28,269.78,172.28L269.78,172.28z"/>
	</g>
	<g>
		<path class="st0" d="M374.8,173.63c-3.47,0-5.64-0.96-6.45-2.85c-3.98-9.27,22.79-37.55,23.06-37.84l0.41-0.43l-0.49-0.33
			c-0.17-0.11-17.1-11.45-34.06-19.41c-12.2-5.72-24.66-13.34-24.66-26.39c0-10.68,46.95-33.61,68.82-33.61
			c5.64,0,8.86,1.54,9.57,4.59c0.99,4.27-10.3,7.53-20.26,10.41c-4.4,1.27-8.56,2.47-11.76,3.75c-11.75,4.7-31.46,13.42-31.46,19.05
			c0,2.93,8.28,7.57,21.78,14.9c10.13,5.5,21.62,11.73,27.3,16.88l0.38,0.34l0.33-0.39c4.05-4.7,24.53-28.4,29.61-34.09
			c1.61-1.8,4.1-2.83,6.84-2.83c3.13,0,6.2,1.35,8.19,3.61c2.13,2.42,3,5.72,2.52,9.54l-0.17,1.3c-1.67,13.13-4.45,35.12-2,44.93
			c2.05,8.2,3.48,11.63,7,11.63c0.89,0,1.94-0.24,3.21-0.74c0.95-0.37,1.84-0.56,2.65-0.56c1.32,0,2.29,0.51,2.72,1.42
			c0.72,1.51-0.06,3.9-2.09,6.4c-2.78,3.42-6.05,5.23-9.47,5.23c0,0,0,0,0,0c-2.68,0-5.28-1.11-7.73-3.28
			c-6.15-5.46-11.9-18.47-10.99-32.75c0.25-3.93,0.53-7.24,0.77-10.16c0.6-7.11,0.9-10.67-0.19-11.95
			c-0.27-0.32-0.62-0.49-1.04-0.52h0c-1.69,0-8.54,8.51-20.42,25.3l-0.16,0.23l0.11,0.26c1.1,2.52,1.62,4.92,1.62,7.53
			C408.29,147.21,398.64,173.63,374.8,173.63z"/>
		<path class="st0" d="M401.41,52.28l0,1c5.38,0,8.43,1.41,9.08,4.2c0.89,3.81-10.64,7.14-19.91,9.81
			c-4.41,1.27-8.58,2.48-11.81,3.77c-5.4,2.16-13.22,5.47-19.75,8.96C348.25,85.78,347,88.8,347,90.58c0,3.22,7.96,7.7,22.04,15.34
			c10.11,5.49,21.56,11.7,27.2,16.81l0.76,0.69l0.67-0.78c4.06-4.7,24.56-28.44,29.61-34.08c1.52-1.69,3.87-2.67,6.47-2.67
			c2.99,0,5.92,1.29,7.82,3.45c2.03,2.31,2.86,5.47,2.4,9.14l-0.16,1.3c-1.67,13.17-4.47,35.21-1.99,45.12
			c1.87,7.47,3.3,12.01,7.49,12.01c0.96,0,2.07-0.25,3.39-0.78c0.89-0.35,1.72-0.53,2.46-0.53c0.65,0,1.8,0.15,2.27,1.14
			c0.63,1.33-0.13,3.52-2.03,5.87c-2.68,3.3-5.82,5.05-9.08,5.05c-2.55,0-5.04-1.06-7.4-3.16c-6.06-5.38-11.72-18.22-10.83-32.34
			c0.25-3.92,0.53-7.23,0.77-10.15c0.63-7.47,0.92-10.88-0.31-12.32c-0.36-0.42-0.84-0.66-1.39-0.7l-0.06,0h-0.03
			c-0.81,0-2.72,0-20.77,25.51l-0.33,0.46l0.23,0.52c1.08,2.46,1.58,4.79,1.58,7.33c0,2.32-2.43,9.96-8.05,17.13
			c-4.71,6.01-12.86,13.18-24.94,13.18c-3.25,0-5.27-0.86-5.99-2.54c-3.19-7.45,15.49-29.45,22.96-37.29l0.82-0.86l-0.98-0.66
			c-0.17-0.11-17.14-11.47-34.13-19.45c-17.09-8.02-24.37-15.78-24.37-25.94c0-4.77,10.22-12.8,26.04-20.46
			c15.87-7.69,32.46-12.65,42.27-12.65V52.28 M401.41,52.28c-21.47,0-69.32,22.64-69.32,34.11c0,12.39,10.73,20.17,24.95,26.84
			c17.12,8.03,33.99,19.37,33.99,19.37s-39.52,41.53-16.24,41.53s33.99-25.73,33.99-31.31c0-2.1-0.31-4.66-1.66-7.73
			c5.04-7.13,17.95-25.09,19.95-25.09c0.01,0,0.01,0,0.02,0c2.4,0.17,0.94,7.2,0,22.1c-0.94,14.9,5.13,27.8,11.16,33.16
			c2.6,2.31,5.36,3.41,8.06,3.41c3.55,0,7-1.9,9.86-5.42c4.08-5.04,2.63-8.64-1.02-8.64c-0.84,0-1.8,0.19-2.83,0.6
			c-1.17,0.46-2.17,0.71-3.03,0.71c-3.19,0-4.54-3.34-6.52-11.25c-2.51-10.05,0.5-32.82,2.18-46.05
			c1.15-9.05-5.24-13.71-11.21-13.72c-2.75,0-5.42,0.99-7.21,3c-4.9,5.48-24.31,27.95-29.62,34.09
			C384.87,111.08,348,95.89,348,90.58c0-5.36,20.26-14.23,31.15-18.59c10.88-4.35,33.88-8.05,32.32-14.74
			C410.65,53.75,406.89,52.28,401.41,52.28L401.41,52.28z"/>
	</g>
	<g>
		<path class="st0" d="M478.82,177.79c-3.26,0-4.77-2.63-6.23-5.18c-0.55-0.95-1.06-1.85-1.66-2.58c-0.49-0.6-0.66-1.22-0.52-1.91
			c0.5-2.53,4.79-4.9,4.84-4.93l0.78-0.43l-0.77-0.44c-15.37-8.88-3.45-82.25-3.33-82.99l0.07-0.39l-0.37-0.15
			c-13.82-5.61-20.07-12.02-19.67-20.16c0.1-2.04,1.06-3.27,2.58-3.27c1.44,0,3.1,1.05,4.57,2.88c3.64,4.55,11.76,6.56,12.1,6.65
			l0.28,0.07l0.2-0.21c0.02-0.02,2.16-2.25,5.54-2.25c0.8,0,1.62,0.13,2.44,0.37c4.79,1.46,6.23,8.81,6.24,8.88l0.05,0.25l0.23,0.11
			c34.04,16.51,41.69,35.65,44.96,43.82c1.13,2.82,1.69,4.24,2.81,4.24c3.48,0,15.94-14.39,17.35-16.03l0.11-0.13l0.01-0.17
			c0.01-0.19,0.74-19.01,7.16-23.5c1.3-0.91,2.71-1.37,4.21-1.37c2.54,0,5.19,1.41,6.92,3.67c1.44,1.89,1.99,4,1.5,5.81
			c-0.38,1.41-0.9,3.17-1.49,5.18c-1.82,6.17-4.31,14.62-5.66,22.39c-0.17,0.97-0.38,2.16-0.63,3.51
			c-3.18,17.66-5.76,34.43-3.14,37.56c0.33,0.4,0.76,0.61,1.23,0.61c0.32,0,0.67-0.1,1.03-0.29c2.06-1.1,3.77-1.66,5.1-1.66
			c0.88,0,3.54,0,3.54,5.69c0,5.9-4.29,12.23-10.66,12.23c-5.79,0-10.26-5-14.49-16.2c-2.42-6.4-1.02-16.13-0.19-21.94
			c0.54-3.76,0.7-5.09,0.26-5.61c-0.13-0.15-0.31-0.23-0.51-0.23l-0.1,0.01c-1.61,0.23-5.85,4.06-15.37,13.14
			c-11.29,10.77-34.8,26.6-44.88,32.69C482.73,177.01,480.56,177.79,478.82,177.79z M487.74,88.57c-2.45,0-3.3,5.9-5.15,20.45
			c-0.43,3.39-0.91,7.13-1.46,11.17c-2.13,15.44-2.02,35.56,1.32,39.39c0.44,0.51,0.95,0.77,1.5,0.77
			c5.02,0,34.88-20.12,34.88-38.08C518.83,107.56,493.11,88.57,487.74,88.57z"/>
		<path class="st0" d="M454.54,55.85c1.27,0,2.83,1.01,4.18,2.7c3.74,4.68,12.03,6.74,12.38,6.82l0.56,0.13l0.4-0.42
			c0.02-0.02,2.03-2.09,5.17-2.09c0.75,0,1.52,0.12,2.29,0.35c4.49,1.37,5.88,8.42,5.89,8.49l0.09,0.49l0.45,0.22
			c33.87,16.43,41.47,35.43,44.71,43.55c1.21,3.03,1.82,4.55,3.28,4.55c3.53,0,14.46-12.4,17.73-16.2l0.23-0.27l0.01-0.35
			c0.01-0.19,0.73-18.76,6.94-23.1c1.21-0.85,2.53-1.28,3.92-1.28c2.39,0,4.89,1.33,6.53,3.48c1.35,1.76,1.86,3.72,1.41,5.37
			c-0.38,1.41-0.9,3.15-1.49,5.17c-1.82,6.18-4.32,14.64-5.67,22.44c-0.17,0.97-0.38,2.15-0.62,3.49
			c-3.7,20.55-5.63,34.87-3.04,37.98c0.43,0.52,0.99,0.79,1.62,0.79c0.41,0,0.83-0.12,1.26-0.35c1.99-1.06,3.62-1.6,4.86-1.6
			c0.83,0,3.04,0,3.04,5.19c0,5.66-4.08,11.73-10.16,11.73c-5.55,0-9.88-4.9-14.02-15.88c-2.37-6.28-0.99-15.93-0.16-21.7
			c0.59-4.11,0.73-5.32,0.14-6c-0.22-0.26-0.55-0.41-0.88-0.41l-0.1,0l-0.07,0.01c-1.73,0.25-5.42,3.53-15.64,13.27
			c-11.27,10.74-34.73,26.55-44.79,32.63c-2.44,1.47-4.52,2.22-6.17,2.22c-2.97,0-4.34-2.39-5.79-4.93
			c-0.56-0.97-1.08-1.89-1.7-2.65c-0.39-0.48-0.52-0.96-0.42-1.5c0.37-1.91,3.44-3.96,4.59-4.58l1.56-0.85l-1.54-0.89
			c-6.13-3.54-8.63-18.84-7.23-44.25c1.07-19.45,4.12-38.04,4.15-38.23l0.13-0.79l-0.74-0.3c-13.59-5.52-19.75-11.77-19.36-19.68
			C452.5,57.8,452.78,55.85,454.54,55.85 M483.94,160.85c5.09,0,35.38-20.39,35.38-38.58c0-14.93-26.13-34.2-31.59-34.2
			c-2.85,0-3.62,5.02-5.64,20.89c-0.43,3.34-0.91,7.12-1.46,11.16c-2.15,15.57-2.09,35.74,1.44,39.79
			C482.75,160.68,483.46,160.85,483.94,160.85 M454.54,54.85c-1.7,0-2.96,1.3-3.08,3.74c-0.37,7.58,4.58,14.4,19.98,20.65
			c0,0-12.28,74.35,3.57,83.5c0,0-7.37,4.02-4.47,7.59c2.14,2.64,3.43,7.95,8.27,7.95c1.72,0,3.88-0.67,6.69-2.37
			c10.72-6.47,33.99-22.3,44.96-32.76c8.23-7.84,13.53-12.78,15.09-13.01c0.01,0,0.02,0,0.03,0c1.47,0-3.8,17.48-0.03,27.46
			c3.8,10.05,8.26,16.52,14.96,16.52c6.7,0,11.16-6.47,11.16-12.73c0-4.1-1.35-6.19-4.04-6.19c-1.41,0-3.19,0.57-5.34,1.72
			c-0.29,0.16-0.56,0.23-0.79,0.23c-4.85,0,1.32-31.3,3.03-41.09c1.78-10.27,5.58-21.77,7.14-27.52c1.22-4.5-3.56-10.12-8.9-10.12
			c-1.49,0-3.03,0.44-4.49,1.46c-6.7,4.69-7.37,23.89-7.37,23.89s-13.62,15.85-16.97,15.85c-3.35,0-2.9-26.34-47.56-48
			c0,0-1.45-7.7-6.59-9.27c-0.92-0.28-1.79-0.4-2.58-0.4c-3.65,0-5.9,2.41-5.9,2.41s-8.26-2.01-11.83-6.47
			C457.83,55.84,456.02,54.85,454.54,54.85L454.54,54.85z M483.94,159.85c-4.24,0-4.7-22.35-2.32-39.59
			c2.6-18.84,3.44-31.19,6.12-31.19c4.99,0,30.59,18.98,30.59,33.2C518.33,140.21,488.19,159.85,483.94,159.85L483.94,159.85z"/>
	</g>
	<path class="st1" d="M659.43,164.09c-6.92-6.03-9.38-23.89-9.15-26.35c0.22-2.46,4.47-6.47,4.69-10.05
		c0.22-3.57-4.46-3.24-4.46-3.24s2.01-36.95,1.12-51.46c-0.89-14.51-12.5-10.94-15.85-8.7c-3.35,2.24-4.91,9.37-6.7,3.56
		c-1.79-5.81-10.27-4.24-12.06,2.68c-1.79,6.92-11.61,31.03-15.85,44.21c-4.24,13.17-14.17,35.47-17.76,41.91
		c-3.6,6.46,0.57,10.55,7.05,12.56c6.47,2.01,16.52-23.44,16.52-23.44c14.96,1.12,27.91-2.23,27.91-2.23s3.57,19.2,12.73,28.36
		C656.28,180.59,666.35,170.12,659.43,164.09 M633.75,129.26c0,0-19.2,5.81-18.98,0.9c0.22-4.91,18.98-36.4,20.09-36.4
		C635.99,93.76,633.75,129.26,633.75,129.26"/>
	<g>
		<path class="st0" d="M836.05,191.32c-20.77,0-32.04-14.13-33.51-42c-0.49-9.33,1.06-18.54,2.31-25.95
			c0.8-4.72,1.48-8.79,1.48-11.87c0-8.4,7.58-25.35,12.34-29.66c1.38-1.25,2.69-1.88,3.9-1.88c1.73,0,2.68,1.3,2.72,1.35l0.26,0.36
			l0.39-0.21c7.28-3.95,13.23-5.8,18.72-5.8c7.94,0,14.55,3.91,22.04,9.77c13.51,10.58,20.04,38.61,18.34,58.51
			c-1.86,21.88-17.32,46.02-46.86,47.32C837.46,191.3,836.75,191.32,836.05,191.32C836.05,191.32,836.05,191.32,836.05,191.32z
			 M845.13,87.68c-25.48,0.03-27.28,38.48-28.6,66.54l-0.03,0.69c-0.3,6.36,1.56,11.84,5.39,15.85c3.87,4.05,9.45,6.28,15.72,6.28
			c4.77,0,9.7-1.32,14.24-3.81c11.76-6.45,18.34-15.26,20.12-26.93c3.97-25.96-5.73-41.82-11.86-48.97
			C854.38,90.66,848.46,87.68,845.13,87.68L845.13,87.68z"/>
		<path class="st0" d="M844.66,76.18c7.8,0,14.33,3.86,21.73,9.66c13.37,10.47,19.83,38.3,18.15,58.07
			c-0.95,11.15-5.58,22.34-12.71,30.69c-8.52,9.98-20.16,15.58-33.67,16.17c-0.71,0.03-1.43,0.05-2.12,0.05
			c-12.11,0-21.02-4.88-26.47-14.52c-3.8-6.71-5.94-15.54-6.54-27c-0.49-9.27,1.06-18.46,2.31-25.84c0.8-4.74,1.49-8.84,1.49-11.95
			c0-8.3,7.48-25.04,12.17-29.29c1.28-1.16,2.48-1.75,3.57-1.75c1.46,0,2.28,1.1,2.31,1.14l0.51,0.73l0.78-0.42
			C833.38,78,839.25,76.18,844.66,76.18 M837.6,177.54c4.86,0,9.86-1.34,14.48-3.87c11.9-6.53,18.57-15.46,20.38-27.29
			c4-26.17-5.79-42.17-11.98-49.38c-5.05-5.88-11.21-9.82-15.35-9.82c0,0,0,0,0,0c-11.6,0.02-19.41,7.57-23.89,23.08
			c-3.76,13.06-4.53,29.47-5.21,43.94l-0.03,0.69c-0.3,6.5,1.61,12.11,5.53,16.22C825.49,175.26,831.2,177.54,837.6,177.54
			 M844.66,75.18c-5.47,0-11.51,1.81-18.96,5.86c0,0-1.1-1.56-3.13-1.56c-1.13,0-2.56,0.49-4.24,2.01
			c-4.69,4.24-12.5,21.21-12.5,30.03c0,7.87-4.6,22.58-3.8,37.84c0.87,16.56,5.57,42.47,34.01,42.47c0.71,0,1.43-0.02,2.16-0.05
			c30.36-1.34,45.55-26.79,47.33-47.78c1.79-20.99-5.13-48.45-18.53-58.94C859.13,78.88,852.48,75.18,844.66,75.18L844.66,75.18z
			 M837.6,176.54c-11.59,0-21.25-7.89-20.61-21.61c1.34-28.58,2.92-66.72,28.13-66.76c0,0,0.01,0,0.01,0
			c8.49,0,32.14,20.1,26.34,58.05c-2.21,14.48-11.7,22.08-19.87,26.57C846.97,175.33,842.14,176.54,837.6,176.54L837.6,176.54z"/>
	</g>
	<g>
		<path class="st0" d="M662.31,99.44c-0.02-0.04-0.06-0.12-0.09-0.24c-0.87-3.04-0.31-26.43,1.95-37.94
			c2.2-11.23,9.18-34.1,9.25-34.33c0.51-1.76,0.96-3.47,1.4-5.1c2.12-8,3.66-13.78,8.48-13.78c0.43,0,0.9,0.05,1.39,0.14
			c2.63,0.5,4.5,1.77,5.57,3.76c2.12,3.96,1.21,10.69-2.7,20c-4.16,9.9-8.36,27.73-11.42,40.75c-1.67,7.08-2.98,12.68-3.65,14.16
			c-0.34,0.75-0.66,1.53-0.98,2.28c-0.75,1.79-2.02,4.78-2.6,4.78c-0.02,0-0.15-0.07-0.33-0.4c-0.29-0.53-0.69-0.61-0.91-0.61
			c-0.95,0-1.85,1.37-3.24,3.62C663.8,97.54,662.77,99.2,662.31,99.44z"/>
		<path class="st0" d="M683.29,8.54c0.4,0,0.84,0.04,1.29,0.13c2.51,0.48,4.22,1.63,5.22,3.51c2.02,3.77,1.08,10.53-2.72,19.57
			c-4.18,9.94-8.38,27.8-11.45,40.83c-1.59,6.78-2.97,12.63-3.62,14.07c-0.34,0.76-0.67,1.53-0.98,2.29
			c-0.61,1.45-1.49,3.53-2.06,4.27c-0.43-0.72-1.06-0.8-1.31-0.8c-1.22,0-2.14,1.39-3.66,3.85c-0.4,0.64-0.98,1.58-1.43,2.18
			c-0.68-4.75-0.05-26.22,2.08-37.09c2.2-11.2,9.17-34.05,9.25-34.3c0.51-1.76,0.96-3.46,1.4-5.11
			C677.57,13.39,679.06,8.54,683.29,8.54 M683.29,7.54c-6.26,0-7.34,8.84-10.35,19.24c0,0-7.03,23-9.27,34.38
			c-2.23,11.39-2.9,34.83-1.94,38.18c0.13,0.44,0.3,0.62,0.52,0.62c1.3,0,4-6.55,5.41-6.55c0.18,0,0.34,0.11,0.47,0.35
			c0.25,0.46,0.5,0.66,0.77,0.66c1.16,0,2.48-3.9,4.03-7.36c1.9-4.24,8.6-39.52,15.07-54.92c6.47-15.41,4.35-23-3.24-24.45
			C684.25,7.59,683.76,7.54,683.29,7.54L683.29,7.54z"/>
	</g>
	<g>
		<path class="st0" d="M779.1,178.77c-15.68,0-18.9-20.8-18.93-21.01l-0.25-1.69l-0.7,1.56c-3.54,7.84-8.59,11.82-15,11.82
			c-3.31,0-7.05-1.05-11.11-3.12c-6.19-3.16-20.11-12.2-31.29-19.47c-7.75-5.03-13.87-9.01-15.18-9.57
			c-0.36-0.16-0.69-0.23-1.01-0.23c-2.81,0-3.25,4.84-4.37,21.64c-0.95,14.24-5.97,14.96-6.96,14.96c-0.15,0-0.24-0.01-0.26-0.02
			c-2.27-0.12-3.94-0.98-5.17-2.63c-5.16-6.9-0.62-25.77,1.32-33.83c1.27-5.29,3.95-18.89,6.54-32.05
			c2.1-10.66,4.08-20.72,5.19-25.71c0.47-2.11,2.35-8.98,7-8.98c0.46,0,0.95,0.07,1.45,0.2c7.16,1.93,6.84,8.19,6.65,11.93
			c-0.09,1.77-0.14,2.83,0.74,2.96l0.11,0.01c0.56,0,1.33-0.54,3.48-2.08c5.11-3.68,15.73-11.33,29.79-12.66
			c1.31-0.12,2.64-0.19,3.94-0.19c10.12,0,18.35,3.71,21.49,9.68c2.94,5.6,1.48,12.93-4.23,21.2
			c-10.67,15.46-33.45,21.58-45.69,24.86c-5.68,1.52-8.21,2.24-8.77,3.22c-0.13,0.22-0.16,0.46-0.09,0.7
			c1.01,3.54,41.18,26.48,43.57,26.48c2.21,0,6.59-9.22,13.53-24.41c2.39-5.23,4.65-10.17,6.34-13.42c1.88-3.62,2.78-7.97,3.57-11.8
			c1.36-6.6,2.44-11.82,7.38-11.82c0.64,0,1.35,0.09,2.11,0.26c3.31,0.76,5.32,1.88,6.34,3.52c1.71,2.75,0.71,6.98-0.81,13.39
			c-0.52,2.22-1.12,4.74-1.67,7.51c-2.06,10.42-3.36,37.74,0.11,42.44c0.35,0.48,0.77,0.75,1.23,0.8c0.18,0.02,0.36,0.03,0.55,0.03
			c3.63,0,7.58-3.64,8.85-4.9c2.19,2.98,3.75,9.52,1.51,14.41C788.61,176.7,784.7,178.77,779.1,178.77z M734.08,84.88
			c-8.51,0-20.98,6.36-29.57,12.67c-10.8,7.93-10.76,18.93-10.75,19.04l0.01,0.68l0.65-0.21c27.54-9.08,46.82-19.72,47.97-26.47
			c0.25-1.47-0.29-2.73-1.61-3.74C739.1,85.54,736.85,84.88,734.08,84.88z"/>
		<path class="st0" d="M688.92,70.95c0.42,0,0.86,0.06,1.32,0.19c6.77,1.83,6.47,7.84,6.28,11.43c-0.09,1.84-0.17,3.29,1.17,3.48
			l0.11,0.01h0.07c0.72,0,1.48-0.52,3.78-2.18c5.07-3.65,15.62-11.25,29.54-12.56c1.3-0.12,2.61-0.18,3.89-0.18
			c9.93,0,18,3.61,21.04,9.42c2.85,5.42,1.4,12.58-4.2,20.68c-10.56,15.31-33.23,21.39-45.41,24.66c-6.23,1.67-8.42,2.31-9.07,3.46
			c-0.19,0.34-0.24,0.72-0.14,1.08c0.48,1.7,7.68,6.68,21.4,14.82c0.2,0.12,20.31,12.03,22.65,12.03c2.31,0,5.52-6.17,13.99-24.7
			c2.39-5.23,4.64-10.16,6.32-13.4c1.91-3.68,2.82-8.06,3.62-11.93c1.46-7.08,2.58-11.42,6.89-11.42c0.6,0,1.28,0.08,2,0.25
			c3.17,0.73,5.08,1.78,6.03,3.3c1.6,2.57,0.62,6.73-0.87,13.01c-0.53,2.23-1.12,4.75-1.67,7.53c-2.08,10.48-3.34,38.04,0.19,42.84
			c0.44,0.6,0.97,0.93,1.58,1c0.2,0.02,0.4,0.03,0.6,0.03c3.46,0,7.15-3.09,8.77-4.63c1.93,3.04,3.18,8.95,1.13,13.43
			c-1.73,3.78-5.38,5.7-10.84,5.7c-15.24,0-18.41-20.37-18.44-20.58l-0.5-3.38l-1.4,3.11c-3.45,7.65-8.35,11.52-14.55,11.52
			c-3.23,0-6.89-1.03-10.88-3.07c-6.17-3.15-20.07-12.18-31.24-19.44c-8.88-5.77-13.97-9.06-15.26-9.61
			c-0.43-0.18-0.82-0.27-1.21-0.27c-3.4,0-3.77,5.57-4.87,22.11c-0.92,13.8-5.55,14.5-6.47,14.5c-0.09,0-0.15-0.01-0.15-0.01
			l-0.07-0.01l-0.07,0c-2.05-0.11-3.59-0.9-4.73-2.42c-5.02-6.71-0.51-25.42,1.41-33.41c1.27-5.3,3.95-18.9,6.55-32.06
			c2.1-10.66,4.08-20.72,5.19-25.71C682.85,77.52,684.64,70.95,688.92,70.95 M693.28,117.95l1.29-0.43
			c28.14-9.28,47.1-19.83,48.31-26.86c0.2-1.14,0.04-2.8-1.79-4.22c-1.77-1.37-4.13-2.06-7.01-2.06c-9.22,0-21.85,6.88-29.86,12.76
			c-11.01,8.08-10.97,18.99-10.96,19.45L693.28,117.95 M688.92,69.95c-4.59,0-6.73,5.93-7.49,9.37
			c-2.47,11.17-9.43,48.21-11.73,57.75c-2.6,10.79-8.71,36.39,4.24,37.06c0,0,0.13,0.03,0.35,0.03c1.39,0,6.5-1,7.46-15.43
			c1.01-15.17,1.47-21.18,3.88-21.18c0.25,0,0.52,0.06,0.81,0.19c3.13,1.34,35.95,23.67,46.44,29.02c3.9,1.99,7.73,3.18,11.33,3.18
			c6.1,0,11.53-3.41,15.46-12.11c0,0,3.13,21.43,19.43,21.43c16.3,0,14.07-16.75,9.82-21.66c0,0-4.75,5.16-8.88,5.16
			c-0.17,0-0.33-0.01-0.49-0.03c-4.24-0.45-3.23-30.83-0.89-42.64c3.04-15.37,7.37-22.33-4.24-25.01c-0.81-0.19-1.55-0.28-2.22-0.28
			c-8.52,0-6.43,14.32-11.4,23.89c-5.36,10.33-16.42,37.56-19.42,37.56c-2.48,0-42.2-22.99-43.09-26.12
			c-0.89-3.13,39.07-6.03,54.48-28.36c14.32-20.75-0.3-31.67-17.67-31.67c-1.32,0-2.65,0.06-3.99,0.19
			c-18.82,1.77-31.49,14.74-33.23,14.74c-0.01,0-0.03,0-0.04,0c-1.56-0.22,3.13-12.06-7.33-14.88
			C689.94,70.02,689.41,69.95,688.92,69.95L688.92,69.95z M694.26,116.57c0,0-0.17-10.75,10.55-18.63
			c8.28-6.08,20.67-12.57,29.27-12.57c2.53,0,4.72,0.56,6.4,1.85C747.84,92.92,726.75,105.85,694.26,116.57L694.26,116.57z"/>
	</g>
	<g>
		<path class="st0" d="M439.49,69.72c-0.53,0-1.08-0.08-1.63-0.25c-2.69-0.8-5.67-3.71-6.8-6.63c-0.45-1.16-0.79-2.86,0.1-4.32
			c1.11-1.81,3.96-3.07,6.95-3.07c3.22,0,5.63,1.48,6.44,3.95c0.95,2.89,0.59,5.99-0.94,8.1C442.57,68.93,441.11,69.72,439.49,69.72
			L439.49,69.72z"/>
		<path class="st0" d="M438.11,55.95c1.44,0,4.9,0.35,5.97,3.6c0.9,2.74,0.57,5.67-0.87,7.65c-0.94,1.3-2.26,2.01-3.71,2.01
			c-0.48,0-0.98-0.08-1.49-0.23c-2.51-0.74-5.42-3.58-6.47-6.33c-0.41-1.06-0.73-2.59,0.06-3.88
			C432.59,57.14,435.33,55.95,438.11,55.95 M438.11,54.95c-3.03,0-6.14,1.29-7.37,3.31c-2.46,4.02,2.74,10.43,6.98,11.69
			c0.62,0.18,1.21,0.27,1.78,0.27c4.55,0,7.32-5.54,5.53-10.98C444.02,56.2,441.1,54.95,438.11,54.95L438.11,54.95z"/>
	</g>
	<g>
		<path class="st0" d="M569.47,53.79c-0.64,0-1.36-0.09-2.14-0.27c-4.46-1-9.66-3.99-9.66-9.11c0-2.72,3.64-4.35,7.16-4.35
			c2.43,0,4.42,0.74,5.33,1.97c2.23,3.01,3.79,7.61,2.54,10.1C572.16,53.23,571.07,53.79,569.47,53.79L569.47,53.79z"/>
		<path class="st0" d="M564.84,40.57c2.23,0,4.12,0.68,4.93,1.77c2.4,3.24,3.52,7.54,2.5,9.57c-0.47,0.93-1.38,1.38-2.79,1.38
			c-0.6,0-1.28-0.09-2.03-0.25c-4.27-0.96-9.27-3.8-9.27-8.62C558.17,42.01,561.56,40.57,564.84,40.57 M564.84,39.57
			c-3.71,0-7.66,1.72-7.66,4.85c0,5.14,4.91,8.44,10.05,9.59c0.84,0.19,1.59,0.28,2.25,0.28c6.23,0,4.53-7.92,1.1-12.55
			C569.48,40.26,567.21,39.57,564.84,39.57L564.84,39.57z"/>
	</g>
	<g>
		<path class="st0" d="M783.54,53.38c-0.19,0-0.37-0.03-0.52-0.09c-4.04-1.58-6.37-5.94-6.55-12.29c-0.08-2.75,0.36-4.58,1.34-5.6
			c0.72-0.74,1.79-1.09,3.35-1.09c2.01,0,6.27,1.62,8.65,4.25c1.27,1.4,1.83,2.89,1.68,4.41C791.01,47.8,786.27,53.38,783.54,53.38
			L783.54,53.38z"/>
		<path class="st0" d="M781.17,34.81c1.91,0,5.99,1.55,8.28,4.09c1.17,1.29,1.69,2.65,1.55,4.02c-0.49,4.84-5.2,9.96-7.45,9.96
			c-0.13,0-0.24-0.02-0.34-0.06c-5.18-2.02-6.13-8.28-6.23-11.84c-0.07-2.57,0.33-4.34,1.2-5.23
			C778.8,35.11,779.75,34.81,781.17,34.81 M781.17,33.81c-3.18,0-5.36,1.34-5.19,7.2c0.17,5.86,2.18,10.91,6.86,12.74
			c0.22,0.08,0.45,0.13,0.7,0.13c2.97,0,7.93-5.76,8.45-10.86C792.55,37.5,784.35,33.81,781.17,33.81L781.17,33.81z"/>
	</g>
</g>
</svg>
