<?xml version="1.0" encoding="utf-8"?>
<!-- Generator: Adobe Illustrator 19.0.0, SVG Export Plug-In . SVG Version: 6.00 Build 0)  -->
<svg version="1.1" id="Camada_1" xmlns="http://www.w3.org/2000/svg" xmlns:xlink="http://www.w3.org/1999/xlink" x="0px" y="0px"
	 viewBox="0 0 4000 1030" style="enable-background:new 0 0 4000 1030;" xml:space="preserve">
<style type="text/css">
	.st0{fill:#FFFFFF;}
</style>
<path id="XMLID_56_" d="M1197,575.1c5,4.3,10.4,5.2,16,5.8c23.2,2.5,46,6.9,68.4,13.9c20.2,6.3,39.5,14.7,56.5,27.1
	c22.4,16.4,40,37.1,48.2,64.4c6.6,22.1,4.7,44-7.6,63.3c-5,7.8-10.7,17.8-23.2,18.2c-4.3,0.1-9,2.3-9.6,8.5c4.3,0,8.2,0,12,0
	c3.4,4.1,0.4,6.2-2.2,8.4c-4.7,4.1-9.4,8.3-14.3,12c-13.5,10.2-27,20.6-41,30.1c-7.9,5.4-16.7,9.8-25.6,13.5
	c-17.7,7.3-34.9,16-53.7,20.4c-4.2,1-8.5,1.9-12.4,3.7c-20.4,9.1-42.2,11.8-64,14.3c-14.5,1.7-29,4.3-43.7,2.1
	c-17.4-2.6-35.2-4.2-51.4-11.7c-9.3-4.3-19.1-8.7-26.8-15.2c-9-7.6-15-18.3-15.3-30.8c-0.2-9,0.6-17.9,0.8-26.9
	c0.1-4.3,0-8.6-0.4-12.9c-0.8-9.4,1.7-16.9,10.7-21.6c6.4-3.3,8.2-3.3,11.9,3.1c4.3,7.5,8.3,15.1,11.9,23c2,4.5,4.4,8.1,10,10
	c0.1-1.8,0.4-3.2,0.4-4.7c-0.4-12.2-1-24.5-1.3-36.7c-0.2-8.3-0.1-16.6-0.1-24.9c0.1-27.1,5.6-53.6,10.3-80.1
	c2.3-13.1,4-26.3,6.6-39.3c5.6-28,11.4-56,17.4-84c6-28,12.3-55.9,18.4-83.8c0.4-1.9,0.4-3.8,0.7-6.1c-6.4-2.9-12-2.6-16.4,2.7
	c-11.7,14-26.4,12.7-41.7,8.3c-3.8-1.1-7.5-2.5-12.5-4.2c-1.1,4.1-2.5,7.4-2.7,10.8c-1.9,27.2-4.2,54.4-10.4,81
	c-6.3,26.9-15.3,52.9-28.2,77.5c-8.1,15.4-17.1,30-28,43.5c-4.6,5.7-9.5,11.2-14.7,16.3c-12,12-23.9,24.1-36.5,35.4
	c-15.6,14-31,28.2-47.9,40.5c-13.8,10.1-29,19-44.7,25.6c-25.9,10.7-53.1,14.1-81.3,9.2c-20.9-3.7-40.5-10.4-58.8-21.3
	c-10.8-6.4-19.3-15.2-27.7-24.2c-13.3-14.2-19.6-32-25.8-49.9c-7.7-22.3-8.2-45.5-9.4-68.8c-1.4-27.1,1-53.8,3.5-80.6
	c2.5-27.5,5.5-54.8,11.3-81.8c0.6-2.6,0.3-5.3,0.7-7.9c1.3-8.2,2.7-16.4,4.3-24.5c2.5-12.7,4.7-25.1,3.4-38.3
	c-1.8-17.5,6.6-31.3,27.2-35.9c18.3-4.1,32.6,2.3,43.4,17.2c5.4,7.5,6.1,16.3,4.9,24.9c-2,13.8-4.5,27.5-8,41
	c-6.7,26.3-13.1,52.7-16.2,79.8c-2.4,20.8-5.8,41.5-7.7,62.3c-2.8,31.9-2,63.8,5.7,95.2c2.1,8.3,5.1,16.6,9.3,24.1
	c8.4,15,23,21.3,39,25.2c21,5.1,39.4-2,57.4-11.3c15.7-8.1,30.1-18.3,43.7-29.6c14.9-12.3,30.8-23.4,43.4-38.1
	c10.1-11.9,19.9-24,29.5-36.3c6.3-8.1,12.1-16.6,18.1-25c12.6-17.6,20.1-37.2,24.3-58.3c3.8-19.2,8.6-38.3,11.9-57.7
	c2-11.4,2.6-23.1,2.7-34.8c0-3.7-2.7-8.2-5.4-11.1c-11.8-12.2-9.9-31.9,4.5-41.1c5.6-3.6,11.3-7.1,16.6-10.9
	c5.4-3.9,10.3-3.2,15.6,0.2c5.3,3.3,11.2,5.7,16.6,8.9c1.8,1.1,3.2,3.1,4.4,4.9c1.9,2.7,3.2,5.8,5.3,8.4c4.1,5.3,10.3,6.7,14.7,3.2
	c18-14.3,38.8-23.1,60.2-30.6c21.7-7.7,43.7-14.2,66.5-17.5c31.9-4.7,63.7-4.2,95.5,1.1c17.5,2.9,34.5,7.4,50.7,14.5
	c16.2,7.1,27.2,18.9,35.6,34.6c8.5,16,9.9,31.7,2.9,47.7c-3.4,7.8-8.8,15-14.7,21.3c-17.1,18.2-36.3,34.1-56.9,48.4
	c-12.3,8.5-24.2,17.6-36.3,26.3c-6.5,4.7-13,9.2-19.5,13.8c-8.3,6-16.7,11.9-24.9,18C1199.6,571.4,1198.6,573.2,1197,575.1z
	 M1097.1,822.8c2.8,0.6,6.3,2.2,9.7,2c10-0.4,20-0.7,29.8-2.2c39.4-6.2,76.8-19.1,112-37.6c21.9-11.5,39.9-28.6,57.8-45.4
	c5.5-5.1,10.2-11.4,14-18c9.6-16.6,6.2-40.8-7.5-52.4c-10.6-9-22-17.1-35.7-21.3c-24.6-7.5-49.4-13.4-75.1-15.6
	c-20.8-1.9-41.6-4.7-62.4-6.9c-2.2-0.2-4.5,0.2-7.1,0.3c-4.3,15.7-9.1,30.9-12.4,46.4c-6,28.3-11,56.7-16.4,85.1
	c-0.4,2.3-1.2,4.5-1.6,6.8c-1.2,6.5-2.8,13-3.3,19.5C1098,795.9,1097.7,808.4,1097.1,822.8z M1168.7,519
	c25.6-19.3,51.4-38.6,76.9-58.3c7.6-5.9,14.7-12.5,21.6-19.2c4-3.9,7.3-8.6,10.9-12.9c3.8-4.5,7.6-8.9,12.7-14.9
	c-8.2-3.1-14.5-6.2-21.1-7.8c-21.9-5.3-44.2-4.5-66.5-2.5c-3.3,0.3-6.7,1.3-9.5,2.8c-2.4,1.3-4.8,3.5-6,6c-2.3,4.7-4.2,9.8-5.6,14.9
	c-5.4,20.2-10.6,40.4-15.9,60.6c-1.6,6.1-3.5,12.2-4.9,18.3C1159.9,511.3,1161.2,515.8,1168.7,519z M1236.4,834.5
	c-0.1,0.6-0.2,1.3-0.3,1.9c1.6,0,3.2,0.3,4.7-0.1c1.6-0.4,3-1.3,4.5-2c-0.1-0.3-0.3-0.7-0.4-1
	C1242.1,833.7,1239.2,834.1,1236.4,834.5z M1301.1,813.2c-0.4-0.7-0.8-1.3-1.2-2c-2.9,1.1-6.1,1.6-7.3,5.5
	C1295.4,815.6,1298.3,814.4,1301.1,813.2z M1324.9,797.2c-0.6,0.6-1.2,1.1-1.9,1.7c0.4,0.4,1,1.2,1.3,1.1c0.8-0.3,1.4-0.9,2.2-1.4
	C1326,798.2,1325.6,797.8,1324.9,797.2z M1312.7,803.6c-0.4,0.7-0.9,1.4-1.3,2.1c0.5,0.2,1.3,0.7,1.6,0.6c0.7-0.5,1.1-1.3,1.7-2
	C1314.1,804.1,1313.5,803.9,1312.7,803.6z"/>
<path id="XMLID_48_" d="M3017.8,448.4c11.9-8.1,21.7-14.8,31.6-21.5c27.6-18.6,57.1-33,90-38.9c32.1-5.8,64-3.4,94.2,9.1
	c13.7,5.6,25.8,15.1,33,29.2c4.9,9.8,11,18.8,13,30c1.5,8.2,1.1,15.8-1.1,23.6c-9.5,32.3-29.3,57-56.1,76.5
	c-9.1,6.6-19.1,12-28.2,18.6c-16.7,12.1-36.2,18.1-55.2,25.1c-23.4,8.6-47.1,16.4-70.5,24.8c-12.2,4.3-24.3,9-36.4,13.7
	c-2.7,1-5.2,2.7-9.1,4.9c3.2,4,5.3,7.8,8.5,10.2c7.7,5.8,15.6,11.5,23.9,16.3c41.5,24,83.1,47.7,124.7,71.5c5.5,3.1,10.7,6.6,16,10
	c5.3,3.5,8.2,3.5,11.6-2.1c5.6-9.1,10.5-18.5,15.4-28c7.1-13.5,14.1-27.1,20.7-40.8c7.3-15,14.3-30,21-45.2
	c5.9-13.4,11.5-26.9,16.9-40.5c7.6-19.4,15.1-38.9,19.9-59.4c2.8-11.8,4.7-24.1,12.4-34.4c12.5-16.9,35.2-15.6,48.1-7
	c2.1,1.4,4,3.8,4.8,6.2c2.8,8.4,5,17.1,7.4,25.6c1,3.5,1,6.8-2.7,8.6c-4.1,2-4.7,5.5-4.1,9.3c0.8,5.5,2.3,11,2.8,16.5
	c0.4,5.9,0.5,12-0.3,17.8c-3.2,22-7.1,44-10.3,66c-1.3,9.2-1.3,18.5-2.1,27.8c-1,11.6-1.1,23.3-3.6,34.6c-2.8,12.6-2.8,25-2.4,37.7
	c0.4,12.1,2.8,23.7,8.2,34.7c2.9,5.8,4,7,9.9,3.9c7.6-3.9,15.1-8.6,21.4-14.2c10.3-9.2,14.7-8.7,22.5,2.9c5.9,8.8,4.3,19.2,8.2,28.3
	c-6.3,20.4-11.6,41.5-34,51.1c-2.4,1-5.1,1.5-7.7,1.6c-9,0.6-18,1.1-26.9,1.2c-10.7,0.1-18.9-5.7-26.6-12.2
	c-18.7-15.9-32.2-35.2-39.1-59c-1.3-4.7-3.1-9.2-9.5-13c0.6,6.5,1.1,11.4,1.7,17.4c-5-1-8.7-1.8-12.6-2.5
	c-4.5,6.1-8.9,12.2-13.4,18.2c-3.3,4.4-7.3,7.8-13.2,8c-1.3,0.1-2.8,0.4-3.8,1.2c-8.7,6.4-18.4,6.1-28.6,5.7
	c-10.8-0.4-20.3-3.7-29.3-8.7c-15.7-8.7-30.9-18.3-46.6-27.1c-23.2-13-46.7-25.6-69.9-38.6c-16.5-9.3-32.9-18.9-49.2-28.5
	c-13-7.6-24.7-16.9-35.1-27.8c-0.7-0.7-1.4-1.4-2.2-2c-5.5-4.4-7.6-4.1-11,1.8c-1.6,2.9-3.3,5.9-4,9.1c-3.9,18.2-7.7,36.4-11.3,54.6
	c-1.9,9.8-3.5,19.6-5.2,29.4c-0.3,2-0.9,4-0.7,5.9c1.2,12.8-3.5,24.1-8.8,35.3c-3.9,8.3-12.8,12.1-21.8,11.8
	c-10.4-0.3-14.9-6.2-19.5-14c-13-22-14.8-45.8-12.7-70.4c0.8-9.6,1.2-19.3,2.7-28.8c1.9-12.1,4.5-24.2,7.2-36.2
	c3.7-16.2,7.8-32.3,11.8-48.4c7.1-29.1,14.3-58.2,21.1-87.4c8.7-37.3,15.7-74.9,20.2-112.9c0.7-5.6,0.4-11.3,0.8-16.9
	c0.2-2.9,0.4-6,1.2-8.8c5-17.6,15.2-24.5,34.5-21.9c22.2,3,34.4,17.1,35.1,39.7c0.1,4-0.2,8,0.2,12
	C3015.3,441.5,3016.5,444.1,3017.8,448.4z M2998.2,576.1c4.5,6.2,9.4,4.6,14.1,2.7c23.5-9.3,47-18.4,70.2-28.2
	c13.4-5.6,26-12.9,39.4-18.6c22.8-9.7,43.6-22.6,62.4-38.6c4.5-3.8,8.7-8.1,12.6-12.5c4.4-5,4.2-8.7,1.1-14.5
	c-6.1-11.7-16.5-15.2-28.3-13.9c-30.4,3.2-58.9,11.8-84.2,29.9c-18.7,13.3-37.4,26.4-53,43.5C3018.7,540.8,3008,557.8,2998.2,576.1z
	 M3011.5,623.4c7.7-5,13.2-8.7,19-12.5c-1.2-0.9-2.4-2.1-3.8-2.9c-9-4.7-13.6-1.9-14,8.2C3012.6,617.8,3012.2,619.4,3011.5,623.4z
	 M3072.4,589.9c9.3-0.8,10.7-2.8,7.3-11.1C3077,582.8,3075,586,3072.4,589.9z M3120.2,571.3c1.6,0.5,2.7,1.2,3.7,1.2
	c0.6,0,1.2-1.1,1.8-1.8c-1.2-0.7-2.3-1.5-3.6-2C3121.9,568.6,3121.1,570,3120.2,571.3z M3059.6,593.8c0,0.7,0,1.5,0,2.2
	c1.5-0.3,3-0.6,4.5-0.9c-0.1-0.4-0.1-0.8-0.2-1.2C3062.5,593.8,3061.1,593.8,3059.6,593.8z M3043.3,594.3c0.6,0.8,0.9,1.7,1.2,1.6
	c0.8,0,1.6-0.4,2.4-0.7c-0.3-0.4-0.6-1.2-1-1.3C3045.1,593.8,3044.3,594.1,3043.3,594.3z"/>
<path id="XMLID_43_" d="M2084.2,842.1c5.6-3.2,11.2-6.4,17.3-9.8c-8.3-4.3-19.2,1.4-23.7,11.9c-9.4,1.1-18.4,1.6-23.3-9.5
	c-0.6-1.3-2.3-2.4-3.7-3.2c-3.2-1.7-4.8-3.9-5.1-7.8c-0.2-2.4-2.8-4.5-4.9-7.6c4.4-3.7,4.1-8.8-0.3-14c6.6-4.1,12.2-7.6,17.9-11.2
	c-4.9-6.4-10.1-12.4-14.3-18.9c-18.6-28.5-22.5-60.3-22.1-93.5c0.5-44.4,8.1-88.2,11.8-132.3c3-35.5,5.7-71,8.6-106.5
	c0.3-3.1,1.2-6.2,2.2-10.9c7.5,3.7,13.7,6.8,19.9,9.9c0.4-0.6,0.8-1.2,1.1-1.9c-3.6-2.6-6.9-5.7-10.7-7.8
	c-18.5-10.6-37.1-20.9-55.7-31.4c-15.4-8.7-27.4-21.1-37.6-35.3c-1.9-2.6-2.1-6.7-2.4-10.2c-0.5-6.1-0.4-12.2-0.6-19.4
	c10.4-9.2,24-10,35.2,0.5c13,12.2,29,18.6,44.6,26c4.3,2,7.8,1.5,11.8-1.7c13-10,34.1-6.8,44.6,5.6c5,5.9,9.5,11.9,11.3,19.6
	c1.3,5.7,6.2,8.4,10.7,11.3c21.2,13.8,42.6,27.3,63.4,41.6c31.1,21.4,59.7,45.9,83.9,75c18.1,21.7,31.7,46,40.4,72.9
	c5.3,16.2,10.3,17.5,21.6,6.2c9-8.9,18.3-17.5,26.6-27c9.9-11.2,18.8-23.2,28.2-34.8c4-4.9,5.1-10.6,6.4-16.5
	c3.9-17.2,7.9-34.4,12.7-51.3c2.7-9.6,7.4-18.5,14.9-25.6c8-7.6,17.3-11.1,28.3-8c5.6,1.6,11.6,3.1,16.5,6.2
	c8.9,5.5,11.6,15.5,12.9,25c0.9,7,0.3,14.9-2.1,21.5c-7.7,21.6-10.1,44.1-13.4,66.4c-4.4,29.9-9,59.9-13.5,89.8
	c-3.7,25-7.2,50.1-11.2,75c-1.9,11.9-3.9,23.7-1.3,35.7c0.5,2.3,0.8,4.6,1.8,6.7c1.6,3.3,4.3,4.9,8.2,3.5c4-1.4,8.7-1.7,12.1-4
	c5.2-3.5,9.5-3.7,14.5-0.2c5.7,4,8.4,9.2,8.5,16c0.1,3.7,0.8,7.4,0.4,11c-0.8,7.2-1.6,14.6-3.4,21.6c-3.8,14.9-22.7,27.2-38.7,28
	c-19.2,1-33.1-7.7-45.6-20.5c-18.3-18.8-24.9-42.6-28.6-67.6c-2.8-19-0.8-37.9,0.8-56.8c0.9-10.3,2.6-20.4,4.1-30.6
	c0.4-3.1,1-6.1-2.3-7.9c-3.5-1.9-5.6,0.6-7.7,2.7c-10.9,10.7-21.6,21.7-32.8,32.2c-22.8,21.4-45.2,43.3-69.2,63.4
	c-22.4,18.7-45.1,37.5-70.7,51.9c-26.7,15-53.4,29.8-80.2,44.6c-5.4,3-11.1,5.9-17.6,4.2C2084.7,843.6,2084.4,842.8,2084.2,842.1z
	 M2120,470.9c-7.1,2.8-10,6.1-10.4,11.9c-1.2,15.9-2.7,31.8-4.4,47.7c-2.2,21.1-4.5,42.3-7.2,63.4c-1.5,12.2-4.2,24.3-5.8,36.5
	c-4.5,34.7-5.8,69.6-4.4,104.6c0.3,7.5,2.1,15,2.7,22.5c0.7,8.9,7.4,13.5,15.9,10.1c2.7-1.1,5.3-2.9,7.7-4.6
	c4.8-3.5,9.5-7.2,14.2-10.8c17.2-13.1,34.9-25.5,51.3-39.4c17.7-15,35.3-30,48.4-49.8c17.3-26.1,22-52.6,6.9-80.6
	c-6.9-12.8-15.4-24.8-24.3-36.4c-16.9-22.2-39.3-38.6-61.5-55C2139.5,483.8,2129.5,477.4,2120,470.9z M2137.2,809.1
	c-3.2,1.2-7.1,1.4-8.6,6.1C2134.2,816.3,2136.8,814.4,2137.2,809.1z M2439.2,818.5c0.5,0.7,0.9,1.6,1.1,1.6c0.8-0.2,1.6-0.7,2.4-1
	c-0.3-0.5-0.6-1.3-0.9-1.3C2440.9,817.8,2440.1,818.2,2439.2,818.5z"/>
<path id="XMLID_35_" d="M1782.2,564.6c-5.1-2.5-8.4-0.9-11.2,2.5c-5.3,6.4-11,12.5-16.1,19.1c-17.9,23.6-35.6,47.4-53.4,71
	c-4.6,6.1-6,12.4-3.1,19.7c1.2,3.1,1.7,6.4,2.6,9.6c1.2,4.5,0,8-2.5,12c-4,6.6-6.5,14.1-9.9,21.8c4,1.1,6.7,1.9,10.9,3.1
	c-3.8,8.4-6.4,16.8-11,23.8c-19.2,28.6-44.1,51.3-74.3,68c-2.3,1.3-4.8,2.5-6.8,4.2c-6.2,5.1-13.3,7.4-21.3,7.1
	c-2-0.1-4.3-0.1-5.9,0.8c-8.3,4.6-16.7,3.1-25.3,1.3c-8.5-1.8-11-5-10.4-13.7c0.1-1.9,0-3.9,0-5.6c-1.3-0.4-2-0.9-2.5-0.7
	c-2.5,1-3.3,5.5-7.3,3.6c-4.2-2-4.1-5.8-4-9.5c0.5-11.9,4.5-22.6,10-33c11.2-21,26.6-39,40.4-58.1c12.8-17.8,26.1-35.3,39.1-53
	c1-1.3,1.5-2.9,2.5-4.8c-11.3-11.2-23.9-20.2-37.2-28.4c-36.1-22.4-75.5-37.9-113.5-56.4c-26.5-12.9-51.2-28.3-72.1-49.5
	c-9.5-9.6-15.8-21.3-22.5-32.8c-11.3-19.5-0.9-43.7,11.6-55.5c16.3-15.3,34.6-28,54.1-38.9c14.2-7.9,29.3-14.3,43.4-22.5
	c15.3-8.8,31.6-15,47.9-21.4c36.8-14.4,73.7-28.8,112.7-36.5c16.5-3.3,33.1-2.9,49.4,2.1c5,1.5,9.1,3.8,10.9,9.2
	c0.7,2,2.6,3.9,4.4,5.1c7.3,4.9,7.3,4.8,6.6,13.2c-6.1,0.8-12.2,1.5-19.4,2.4c6,6.7,14.7-1.2,19.9,6.8c-14.8-0.7-15.7-0.1-16.9,9.5
	c-6.3-1.4-11.6-9.1-19.1-3.6c-1.3,4.6,1.6,5.4,5.3,6.2c3.1,0.7,6,2.1,8.7,4.1c-7.4,3.9-13.8,8.1-22.5,2c-7.5-5.2-17-3.2-25.1-0.2
	c-19.2,7.1-38.2,15.1-57.3,22.5c-15.2,5.8-30.7,10.9-45.8,16.8c-27.7,10.8-53.5,25.2-78,41.9c-6,4.1-12.2,8.2-17.6,13
	c-7.3,6.5-11.1,13.6-1.4,23.8c11.1,11.6,24.8,19,38.6,26.3c29.7,15.7,59.9,30.6,89.9,45.7c23,11.6,43.2,27.5,64.6,41.5
	c1.7,1.1,3.2,2.4,4.9,3.4c4.1,2.7,7.7,2.9,11.3-1.4c10.3-12.2,21-24.1,31.4-36.2c17.4-20.5,34.5-41.4,52.2-61.7
	c11.4-13,23.6-25.3,35.6-37.7c15.9-16.4,35.1-17,55.3-10.9c3.5,1.1,6.6,4.4,9.1,7.4c12.6,14.7,17.1,32,15.8,51
	c-2.4,36.5-4.9,73.1-7.3,109.6c-0.5,8.2-1.3,16.3-2.7,24.6c-1.8,11-0.4,22.5-0.2,33.8c0,3.3,0.7,6.5,0.6,9.8
	c-0.3,18.9,5.7,36,13.8,52.6c2.8,5.7,7.3,8.7,13.9,6.7c6.6-2,13.2-4,19.5-6.6c6.2-2.6,12-1.4,15.7,4.2c4.3,6.5,5.2,13.6,2.7,21
	c-2.3,6.9-3.9,14.3-7.5,20.5c-5.8,9.8-14.5,16.4-26.8,16c-3.3-0.1-6.6-0.4-10-0.7c-5.5-0.5-10.3-1.8-12.6-7.9
	c-2.1-5.6-6.5-6.6-12.3-5.3c-5.6,1.2-11.4,1.3-15.5-4c-3.7-4.6-7.2-9.3-10.8-13.9c-0.6-0.8-1.3-1.5-2.1-2.1
	c-21.7-14.9-27.9-38.1-32.2-61.9c-5-27.7-3.8-55.7-3-83.7c0.5-19.3,1.1-38.6,1.6-57.9C1782.8,567.6,1782.4,566.3,1782.2,564.6z
	 M1603.7,710c-2.1,3.5-3.8,6.3-5.5,9.1c-0.1,1.2-0.3,2.4-0.4,3.6c7.1-8.2,8.5-0.1,12.9,1.4c2.1-3.1,4.1-5.9,6.4-9.3
	C1612.6,713.1,1608.7,711.7,1603.7,710z M1553.7,785.2c-2.6,3.9-5,6.5-1.7,11.5c2.4-2.6,4.6-4.3,5.7-6.6
	C1558,789.4,1555.4,787.2,1553.7,785.2z M1618.9,778.1c-0.5,0.7-0.9,1.4-1.4,2.1c1.4,0.7,2.7,1.7,4.2,2.1c1.4,0.4,3,0.4,4.5,0.1
	c0.5-0.1,1.1-2.1,0.8-2.5c-1-1.1-2.3-2.3-3.7-2.6C1621.9,777.1,1620.3,777.8,1618.9,778.1z M1599.2,736c0.7,0.5,1.3,1,2,1.5
	c1.2-1.6,2.3-3.2,4.8-6.7c-3.3,1.2-4.4,1.4-5,2C1600.1,733.6,1599.7,734.9,1599.2,736z M1564.6,785.2c0.9-2.1,1.8-3,1.6-3.7
	c-0.2-1-1.2-1.8-1.9-2.6c-0.7,0.6-1.9,1.1-1.9,1.6C1562.4,781.5,1563.2,782.5,1564.6,785.2z M1860.3,787.3c-0.8,1-1.8,1.8-1.7,2.4
	c0.1,0.7,1.1,1.3,1.8,1.9c0.6-0.6,1.6-1.2,1.7-1.9C1862,789.1,1861.1,788.4,1860.3,787.3z"/>
<path id="XMLID_32_" d="M2754.8,698.5c-10.1-2-19.5-3-28.5,0.9c-16.4,7.2-34.1,8.2-51.4,11.3c-15,2.6-29.8-1.4-44.7-0.4
	c-3.3,0.2-6.6,0.3-12.2,0.6c4.1,2.5,6.3,3.9,9.4,5.8c-7.4,12.9-14.8,25.8-22.2,38.7c-6.3,10.9-12.1,22.2-18.9,32.8
	c-5.1,8-9.5,16.8-18.3,21.8c-4.5,2.5-8.9,3.4-14.3,2.3c-7.1-1.4-13.8-3.1-20.3-6.6c-5.3-2.9-8.9-6.3-10.6-12
	c-0.5-1.9-0.7-4.5-1.9-5.4c-10-7.3-5.8-15.5-1.8-23.6c9.9-19.9,20.6-39.4,29.9-59.6c11.1-24.1,21.3-48.7,31.4-73.2
	c9-21.8,18-43.7,26-65.9c10-27.9,19.2-56,28.3-84.2c10.2-31.3,19.6-62.8,29.9-94.1c7.4-22.7,34.4-32,54.8-19.1
	c2.9,1.8,4.9,5.3,6.7,8.3c4.2,7.1,5.9,7.4,11.8,1.6c2.8-2.8,5.3-5.9,8.2-8.7c17.6-16.8,39-15.1,56.9-4.4c3.7,2.2,6.3,6.7,8.7,10.7
	c11.3,18.7,13.6,39.6,12.8,60.7c-1.1,28.6-3.1,57.2-4.8,85.7c-0.6,9.9-1.3,19.9-1.9,29.8c0,0.7,0.1,1.4-0.1,2
	c-7.2,17.5-1.2,35.5-2.5,53.2c-0.4,5.7,2.2,9.1,7.6,11.4c13.5,5.8,17.3,19.4,8.9,31.9c-4,6-9.1,11.3-13.2,17.2
	c-1.6,2.2-3.5,6-2.6,7.9c2.6,5.9,0.7,11.7,1.1,17.5c1.7,29.5,10.4,56.9,24.6,82.6c1.9,3.5,4.2,7.1,7.3,9.4
	c6.9,5.3,9.2,12.7,11.3,20.4c3.3,11.8-0.3,22-10.2,28.5c-1.3,0.8-3.1,0.9-4.8,1.1c-5.9,0.6-12.1,2.2-17.7,1.1
	c-6.6-1.3-13.5-3.9-18.8-8c-17.2-13.3-28.6-31.2-38.6-50.3c-10-19.1-15.6-39.6-20.5-60.3C2747.7,711,2744.8,703.2,2754.8,698.5z
	 M2665.6,645.7c10.6,3.1,63.8-3.5,74.8-9.3c0-1.4,0-3,0-4.6c0.5-20.3,0.8-40.6,1.7-60.8c0.9-21.9,2.5-43.8,3.7-65.7
	c0.3-4.5,0.9-9.3-3.7-12.3C2726.4,502.8,2666.5,627.6,2665.6,645.7z"/>
<path id="XMLID_31_" d="M276.2,899.6c-22.4,0.2-44.6-1.7-66.1-8.6c-26.6-8.6-50.6-21.7-69.3-43c-10.4-11.8-12.4-25.8-10.7-41
	c1.7-14.9,8.5-26.9,18.7-37.4c5.4-5.6,9.8-7,15.9-4.3c6.2,2.7,9,7.3,8.4,14.2c-0.5,6-1,12.1-0.1,17.9c2.8,17.9,5.4,29.7,22.2,36.4
	c20.1,7.9,40.7,11.4,62.2,12.9c14.6,1,28.3-2.6,42.4-4.2c23.6-2.6,46.5-8.4,68.9-15.9c29.5-9.8,57.1-23.7,82.8-41.3
	c11.8-8,23.6-16.1,34.7-25c18.5-15,33.5-33.2,45.2-53.9c9.8-17.3,11-35.1,2.6-53.5c-13.4-29.6-33-54.5-56.7-76.3
	c-11.7-10.8-23.8-21.2-36.6-30.7c-9.3-6.9-20-11.8-29.9-17.8c-33.3-20.3-68.7-36.6-104-52.9c-23.6-10.8-45-24.3-60.8-45.5
	c-10.9-14.7-15.4-31.7-12.1-49c3-15.6,12.2-29,24.8-40c18.1-15.7,37.4-29.7,57.3-43.1c16.8-11.4,34-22,51.8-31.5
	c19.8-10.5,39-22.5,60.3-30.3c31-11.2,62.5-20.4,94.6-27.8c22.2-5.1,44.5-7.6,67.3-7.4c20.4,0.1,34.1,9.4,42.6,27.4
	c1.9,3.9,4.6,7.8,5.1,11.9c0.5,4,0,9.9-2.5,12.1c-6.5,5.7-7.2,18.6-20.1,16.6c-4.9-0.7-10-0.7-14.9-1.3c-10.7-1.3-21.1,0-31.5,3
	c-8.9,2.6-18.1,3.7-27.1,5.9c-18.4,4.5-36.8,8.9-55,14.1c-18.8,5.4-37.9,10.5-55.9,18.1c-14.8,6.2-29.7,12.2-43.9,20.2
	c-19.4,10.9-38,22.8-56.3,35.5c-12.2,8.4-23,18.2-33.6,28.4c-7.2,6.9-6.9,13.9,2,19.6c9.2,5.9,19.1,10.7,28.9,15.6
	c24.3,12.3,48.7,24.5,73.1,36.5c29.4,14.5,55.9,33.7,81,54.5c16.3,13.5,31.3,28.8,46.2,44c21.3,21.7,38.5,46.6,51.8,74
	c12.3,25.4,17.6,52.1,11.2,80.4c-3.9,17.5-10.7,33.3-23.2,46.4c-3.9,4.1-6.8,9.1-10.6,13.2c-16.3,17.3-36,30.3-54.7,44.6
	c-23.7,18.1-50.4,30.9-76.9,44c-31.5,15.6-65,25.1-99.7,30.2c-8.2,1.2-16.3,3.5-24.6,4.2C292.9,900.2,284.5,899.6,276.2,899.6z"/>
<path id="XMLID_26_" d="M3740.3,894.3c1.9-5.3,6.2-8.2,10.7-11.1c5.9-3.9,13.3-6.2,15.7-14.2c0.4-1.3,3.2-2,5-2.7
	c5.2-2.1,7.3-6,7.9-11.7c-4.8-1.2-7.4,1.8-10,3.9c-10.4,8.2-20.6,16.6-30.8,25c-2.8,2.3-5.3,4.9-8,7.3c-1,0.9-1.9,2-3,2.5
	c-12.8,5.4-25.4,11.2-38.4,15.8c-9.7,3.4-19.8,5.4-30.4,3.2c-3.1-0.6-6.6,0.3-9.8,0.4c-5.3,0.2-10.6,0.3-14.2-6.3
	c3.9-0.5,7-1,10.1-1.4c0.1-0.4,0.1-0.9,0.2-1.3c-5.2-0.7-10.5-1.1-15.6-2.1c-9.1-1.7-18.2-3.7-27.3-5.8c-1.9-0.4-3.8-1.3-5.5-2.3
	c-18.4-10.8-35.3-23.4-49.6-39.4c-10.1-11.3-17-24.2-22.9-38.2c-7.4-17.7-13.2-35.6-14.1-54.7c-1-19.9-1.3-39.9-0.8-59.8
	c0.4-16.3,2-32.6,4-48.7c2.5-19.8,6-39.4,8.9-59.2c1.2-8.5,2.7-17.2,2.7-25.7c-0.2-19.3,3.8-37.3,11.4-55.1
	c5.4-12.6,11.4-24.6,18.7-36.1c5.1-8.1,8.7-17.1,12.6-25.9c4.6-10.2,12.7-17,21.5-23.1c3.3-2.3,7-2.5,10.2,0.3
	c6.5,5.7,13.2,4.7,20.5,1.9c13-5.1,26-10.2,39.2-14.6c7.5-2.5,15.5-3.7,23.3-5c5.9-1,11.9-1.9,17.9-1.7c5.5,0.2,10.9,1.8,16.3,3.3
	c2.8,0.8,5.4,3.8,8,3.7c10.7-0.4,17.5,7.3,25.8,11.6c5.9,3.1,11.6,6.6,17.2,10.1c10,6.2,17.7,14.8,24.6,24.1c0.6,0.8,0.8,2,1.5,2.5
	c8.4,5.4,11.2,14.7,15.9,22.7c1,1.7,2,3.5,3.3,5c12.7,14.1,20.2,30.9,26.4,48.5c3.6,10.3,7.4,20.6,11,31c8.8,25.5,14.8,51.6,19,78.2
	c3,19.2,2.8,38.1,1,57.3c-2.8,29.7-9.3,58.3-22,85.4c-8.9,19.2-21.3,35.8-36,50.9c-9.9,10.2-21.5,18.5-31.6,28.6
	c-9.4,9.3-20.1,18.2-33.4,22.4c-1.6,0.5-3.2,1-4.8,1.3C3741.8,895.1,3741.2,894.6,3740.3,894.3z M3793.5,564.7
	c0.4-0.2,0.9-0.4,1.3-0.6c-0.7-2.1-1.2-4.3-2.1-6.2c-4.4-9.6-8.7-19.3-13.5-28.7c-2.7-5.3-6-10.3-9.7-14.9
	c-5.6-7-12.2-13.2-17.6-20.4c-5.9-7.8-13.2-14-21.2-19.4c-14.8-10-30.9-12.8-48.4-8.6c-23.1,5.5-41.6,19-58.9,34.1
	c-5.1,4.4-9.4,10.5-12.1,16.7c-9.2,21-15.1,43.2-20.1,65.6c-2.8,12.6-5.4,25.4-7.4,38.2c-2.5,16.1-4.6,32.2-6.4,48.4
	c-1.5,13.9-2.7,27.8-3.5,41.7c-1.5,24.6-2.1,49,7.2,72.8c10.3,26,28.5,44.2,53.6,54.9c19.2,8.2,39.2,5.5,58.5-1.3
	c14.8-5.2,28.5-12.8,41.5-21.5c6.6-4.4,13.4-8.8,18.7-14.5c14-15.1,27.2-30.8,36.9-49.3c7.2-13.7,13.1-27.8,16.1-42.7
	c5.4-27,4.2-54.3-1.2-81.2c-4.9-24.1-11.3-47.9-20.4-70.9c-0.6-1.6-0.7-3.4-1-5.1c0.5-0.2,1-0.4,1.4-0.6
	C3788,555.5,3790.8,560.1,3793.5,564.7z M3799,501.7c-1.4-8.8-8.1-13.2-15.3-19.3C3785.3,493.2,3792.8,496.9,3799,501.7z
	 M3567.8,507.9c0.5,0.5,0.8,0.9,1.2,1.3c0.4-0.4,1-0.8,1.1-1.2c0-0.4-0.6-1.1-1-1.1C3568.6,506.9,3568.2,507.6,3567.8,507.9z"/>
<path id="XMLID_25_" d="M2892.2,487.6c-8.2-1.8-15.6,2.1-19.7,9.8c-1.1,2-1.6,4.6-3.2,6.1c-1.5,1.4-4.2,2.5-6,2
	c-1.6-0.4-3.2-3-3.6-4.9c-0.5-2.5,0.2-5.3,0.3-7.9c0.1-8.3-0.1-16.6,0.1-24.9c0.3-11.6,0.7-23.2,1.2-34.8c0.9-22.6,1.2-45.2,3-67.6
	c1.9-22.5,5.8-44.8,11.9-66.6c4-14.4,6.9-29.1,11.1-43.4c4.9-16.9,10.9-33.5,16.1-50.4c6-19.4,12.1-38.7,17.4-58.3
	c2.6-9.8,7.7-17.5,14.9-24.1c0.7-0.7,1.5-1.3,2.4-1.8c11.3-7.3,34.3-0.6,41.8,10.6c11.2,16.9,10.2,34.2,5.2,52.5
	c-5.3,19.2-9.4,38.7-14.8,57.9c-2.7,9.5-7.3,18.5-10.8,27.9c-2.2,5.9-4.1,11.9-6,17.9c-3.8,12.3-7.6,24.7-11.3,37.1
	c-6,20.4-12.1,40.8-17.8,61.2c-3.9,14-6.7,28.2-8.6,42.8c-1.7,12.6-4.1,25.9-12.4,37.1C2898.5,472.3,2895.8,480.4,2892.2,487.6z"/>
<path id="XMLID_24_" d="M3415.5,307.1c-6-2.3-11.6,0.4-17,3.8c-6.5,4-12.4,3.5-18-2.1c-4.5-4.4-10.7-7.7-13.6-13
	c-7.6-13.9-12.4-29.2-6.9-44.8c3.2-9,11.2-15.7,21-18.5c2.6-0.8,5.8,0.1,8.6,0.7c2.2,0.5,4.2,2.4,6.4,2.6
	c19.8,1.7,27.3,17,34.8,31.8c2.3,4.6,1.6,10.9,1.7,16.5c0.1,2.9-0.9,5.8-1.6,9.6c-2.8,0.2-5.9,0.5-9.8,0.9
	C3419.5,298.2,3417.6,302.3,3415.5,307.1z"/>
<path id="XMLID_23_" d="M1831.8,346.3c3.7-2.4,6.9-3.9,7.3-9c0.5-7.2,7.3-12.7,14.8-13.4c4.3-0.4,8.6-0.5,12.9-0.4
	c9.5,0.2,17.4,3.9,23.3,11.5c5.2,6.8,10.4,13.7,15.6,20.6c-4.4,4.8,0.9,13.4-7.7,16c2.3,3.6,4.2,6.5,7.1,11
	c-7.9-1.5-13.1,0.3-17.1,5.6c-0.9,1.2-4.3,1.4-6.2,0.9c-12.5-3.5-24.6-7.5-34.1-17.3c-5.1-5.3-10.9-9.5-11.7-17.7
	C1835.7,351.8,1833.6,349.5,1831.8,346.3z"/>
<path id="XMLID_22_" d="M2496.1,298.6c-4.1,0.7-7.1,1.2-11.2,1.9c1.9,3.3,3.3,5.8,4.9,8.6c-4.2,3.7-8.5,7.5-13.8,12.1
	c-3.4-1.8-7.9-4.5-12.7-6.5c-4.9-2-10.3-2.6-15-5c-14.4-7.2-23.7-18.7-26.4-34.9c-0.2-0.9-0.3-2,0-2.9c3.6-12.2,18.2-20.9,30.9-18.3
	c4.5,0.9,9.1,2.1,13.5,3.3c1.9,0.5,4.5,1,5.2,2.4c5.7,10.4,17.9,15.8,21.2,27.9C2494,290.9,2495,294.7,2496.1,298.6z"/>
<path id="XMLID_21_" d="M754.7,620.2c-1.8-0.1-3.7-0.2-5.5-0.2c0-0.6,0-1.2-0.1-1.8c1.8-0.2,3.7-0.3,5.5-0.5
	C754.6,618.5,754.7,619.3,754.7,620.2z"/>
<path id="XMLID_20_" class="st0" d="M1236.4,834.5c2.9-0.4,5.7-0.7,8.6-1.1c0.1,0.3,0.3,0.7,0.4,1c-1.5,0.7-2.9,1.6-4.5,2
	c-1.5,0.3-3.1,0.1-4.7,0.1C1236.2,835.7,1236.3,835.1,1236.4,834.5z"/>
<path id="XMLID_19_" class="st0" d="M1301.1,813.2c-2.8,1.2-5.7,2.4-8.5,3.6c1.3-3.9,4.5-4.5,7.3-5.5
	C1300.3,811.9,1300.7,812.6,1301.1,813.2z"/>
<path id="XMLID_18_" class="st0" d="M1324.9,797.2c0.7,0.6,1.1,1,1.5,1.4c-0.7,0.5-1.4,1.1-2.2,1.4c-0.2,0.1-0.8-0.7-1.3-1.1
	C1323.6,798.3,1324.3,797.8,1324.9,797.2z"/>
<path id="XMLID_17_" class="st0" d="M1312.7,803.6c0.8,0.3,1.4,0.5,1.9,0.7c-0.5,0.7-1,1.5-1.7,2c-0.3,0.2-1-0.4-1.6-0.6
	C1311.8,805,1312.3,804.3,1312.7,803.6z"/>
<path id="XMLID_16_" class="st0" d="M3011.5,623.4c0.7-4.1,1.1-5.6,1.2-7.1c0.4-10.2,5.1-12.9,14-8.2c1.4,0.7,2.6,1.9,3.8,2.9
	C3024.6,614.8,3019.1,618.4,3011.5,623.4z"/>
<path id="XMLID_15_" class="st0" d="M3072.4,589.9c2.6-4,4.7-7.1,7.3-11.1C3083.1,587.1,3081.7,589.1,3072.4,589.9z"/>
<path id="XMLID_14_" class="st0" d="M3120.2,571.3c0.9-1.3,1.7-2.6,1.9-2.6c1.3,0.5,2.4,1.3,3.6,2c-0.6,0.6-1.2,1.7-1.8,1.8
	C3122.8,572.5,3121.7,571.8,3120.2,571.3z"/>
<path id="XMLID_13_" class="st0" d="M3059.6,593.8c1.4,0,2.9,0,4.3,0c0.1,0.4,0.1,0.8,0.2,1.2c-1.5,0.3-3,0.6-4.5,0.9
	C3059.6,595.2,3059.6,594.5,3059.6,593.8z"/>
<path id="XMLID_12_" class="st0" d="M3043.3,594.3c1-0.2,1.8-0.4,2.6-0.3c0.4,0.1,0.7,0.8,1,1.3c-0.8,0.3-1.6,0.7-2.4,0.7
	C3044.2,595.9,3043.9,595,3043.3,594.3z"/>
<path id="XMLID_11_" class="st0" d="M2137.2,809.1c-0.4,5.3-3.1,7.2-8.6,6.1C2130.2,810.4,2134,810.2,2137.2,809.1z"/>
<path id="XMLID_10_" class="st0" d="M2439.2,818.5c0.9-0.3,1.7-0.7,2.5-0.8c0.3,0,0.6,0.9,0.9,1.3c-0.8,0.4-1.5,0.8-2.4,1
	C2440.1,820.2,2439.7,819.3,2439.2,818.5z"/>
<path id="XMLID_9_" class="st0" d="M1603.7,710c4.9,1.8,8.8,3.2,13.4,4.8c-2.4,3.4-4.3,6.2-6.4,9.3c-4.4-1.5-5.8-9.6-12.9-1.4
	c0.1-1.2,0.3-2.4,0.4-3.6C1599.9,716.2,1601.6,713.4,1603.7,710z"/>
<path id="XMLID_8_" class="st0" d="M1553.7,785.2c1.7,2.1,4.4,4.2,4,4.9c-1.2,2.3-3.4,4.1-5.7,6.6
	C1548.7,791.7,1551.1,789.1,1553.7,785.2z"/>
<path id="XMLID_7_" class="st0" d="M1618.9,778.1c1.5-0.3,3.1-1.1,4.4-0.8c1.4,0.3,2.7,1.5,3.7,2.6c0.3,0.4-0.3,2.4-0.8,2.5
	c-1.4,0.3-3.1,0.3-4.5-0.1c-1.5-0.4-2.8-1.4-4.2-2.1C1618,779.6,1618.4,778.9,1618.9,778.1z"/>
<path id="XMLID_6_" class="st0" d="M1599.2,736c0.6-1.1,1-2.3,1.8-3.2c0.6-0.6,1.7-0.7,5-2c-2.5,3.4-3.6,5.1-4.8,6.7
	C1600.5,737,1599.8,736.5,1599.2,736z"/>
<path id="XMLID_5_" class="st0" d="M1564.6,785.2c-1.4-2.8-2.1-3.7-2.2-4.7c0-0.5,1.2-1.1,1.9-1.6c0.7,0.9,1.7,1.7,1.9,2.6
	C1566.3,782.2,1565.5,783.2,1564.6,785.2z"/>
<path id="XMLID_4_" class="st0" d="M1860.3,787.3c0.8,1.1,1.7,1.8,1.7,2.4c0,0.7-1.1,1.2-1.7,1.9c-0.6-0.6-1.7-1.2-1.8-1.9
	C1858.5,789.1,1859.5,788.4,1860.3,787.3z"/>
<path id="XMLID_3_" class="st0" d="M3799,501.7c-6.2-4.8-13.7-8.5-15.3-19.3C3790.9,488.5,3797.5,493,3799,501.7z"/>
<path id="XMLID_2_" class="st0" d="M3567.8,507.9c0.4-0.4,0.8-1,1.2-1c0.4,0,1,0.7,1,1.1c0,0.4-0.7,0.8-1.1,1.2
	C3568.6,508.8,3568.3,508.4,3567.8,507.9z"/>
</svg>
