<?xml version="1.0" encoding="utf-8"?>
<!-- Generator: Adobe Illustrator 19.0.0, SVG Export Plug-In . SVG Version: 6.00 Build 0)  -->
<svg version="1.1" id="Camada_1" xmlns="http://www.w3.org/2000/svg" xmlns:xlink="http://www.w3.org/1999/xlink" x="0px" y="0px"
	 viewBox="0 0 540 264" style="enable-background:new 0 0 540 264;" xml:space="preserve">
<style type="text/css">
	.st0{fill:#010202;}
</style>
<g id="XMLID_283_">
	<path id="XMLID_284_" class="st0" d="M27.7,22.2h2.5c4.3,0,9,1.4,14.3,4.1c0.5,0.1,0.9,0.1,1.2,0.1c0.9,0,1.5-1,1.8-2.9l2-0.4h2.2
		c0.2,2.1,1.1,8,2.8,17.8c-0.9,0.3-2.3,0.6-4.1,0.8c-2.4-6.7-6-11.1-10.7-13.4c-3.7-1.5-7.4-2.3-10.9-2.3c-6.8,0-11,2.4-12.5,7.3
		c-0.4,0.7-0.6,1.6-0.6,2.7V37c0,4.7,4.9,8.4,14.7,11.1c10.7,3.6,17.2,6.3,19.4,8.1c4.6,3.8,6.8,8.2,6.8,13.1v1.5
		c0,8.7-6,15-17.9,18.9c-2.4,0.5-4.5,0.8-6.3,0.8h-2c-6.1,0-11.9-2.1-17.3-6.3c-0.8-0.2-1.3-0.3-1.4-0.3h-0.2c-0.6,0-1.3,0.9-2,2.8
		H7.1c-1,0-1.6-0.4-1.6-1.3V69.1c0.2-0.8,0.7-1.2,1.6-1.2h1.7c0.6,0.6,1.5,3.1,2.8,7.4c2,4,5,6.9,9,8.6c4.1,1.7,7.9,2.5,11.5,2.5
		c8.1,0,13.5-3.9,16-11.8c0.2-0.8,0.4-1.6,0.4-2.3V71c0-6-5.7-10.3-17.1-12.9C14.7,53.7,6.4,47.5,6.4,39.6c0-7.3,4.2-12.6,12.7-15.9
		C21.8,22.7,24.7,22.2,27.7,22.2z"/>
	<path id="XMLID_286_" class="st0" d="M71.4,46.4l0.6,1.2V50c0,17.3,0.7,26.5,2.2,27.6c1.7,4.6,4.9,6.9,9.5,6.9h0.4
		c3.7,0,6.9-1.8,9.7-5.4V60.3c0-0.3,0-1.5,0-3.6c0-2.1-0.8-3.3-2.6-3.5c-2.4-0.4-3.7-1-3.7-1.7v-1.7c0-0.8,4.2-1.9,12.5-3.4l0.6,1.2
		v30.3c0,4.2,1.8,6.2,5.5,6.2l0.6,1.1v1.7c0,0.9-0.5,1.3-1.5,1.3h-9.9c-1,0-1.5-0.4-1.5-1.3v-2.2c-3.4,3-7.7,4.5-12.8,4.5h-1.8
		c-9.5,0-14.2-6.8-14.2-20.4l-0.1-11.5c-0.2-2.8-1.2-4.3-3.1-4.3c-1.8-0.2-2.7-0.7-2.7-1.5v-1.7C59.1,49,63.2,47.9,71.4,46.4z"/>
	<path id="XMLID_288_" class="st0" d="M120.4,8.3l0.6,1.2v41.4c3.2-3.4,7.6-5,13.2-5c8,0,14.1,4.3,18.4,12.8c1,2.7,1.5,5.2,1.5,7.6
		v1.7c0,7.3-3.5,13.3-10.6,18.2c-3.2,1.7-6.2,2.6-9.1,2.6h-1.5c-5.1,0-9.4-1.8-12.9-5.5c-0.9,2.5-1.4,4.4-1.4,5.5h-3
		c-1,0-1.5-0.4-1.5-1.3V19.5c-0.3-2.8-1.3-4.3-2.9-4.3c0-0.3-1-0.6-3.1-0.9v-2.6C108.1,10.9,112.2,9.8,120.4,8.3z M121.4,68.1
		c0,8,1.9,13,5.6,15c1.8,0.7,3.6,1,5.3,1h0.9c8.2,0,12.3-5.6,12.3-16.9c0-11.4-4.1-17.1-12.3-17.1h-0.4c-5.2,0-8.6,2.3-10.1,7
		C121.9,59.8,121.4,63.4,121.4,68.1z"/>
	<path id="XMLID_291_" class="st0" d="M164.2,79.3c1.2,0,2.3,0.4,3.1,1.2c0.8,0.8,1.3,1.8,1.3,2.9c0,1.1-0.4,2.1-1.2,2.9
		c-0.8,0.8-1.9,1.2-3.1,1.2c-1.2,0-2.3-0.4-3.1-1.2c-0.8-0.8-1.3-1.8-1.3-2.9c0-1.1,0.4-2,1.3-2.9C162,79.7,163,79.3,164.2,79.3z"/>
	<path id="XMLID_293_" class="st0" d="M192.8,46.5h1.1c2.7,0,5.8,0.9,9.3,2.6c-0.2,0-0.2-0.7-0.1-2c1.3,0,2.6-0.1,3.7-0.3
		c0.6,1,1.3,5,2.4,12.2c-0.6,0.6-2.1,1.1-4.2,1.3c-1.5-4.2-3.5-6.9-5.8-8.1c-2.2-0.9-4.3-1.3-6.2-1.3c-3.3,0-5.4,1.3-6.2,3.9
		c0,0.3-0.1,0.8-0.2,1.4c0,2.6,3.5,4.6,10.4,6.1c9,3.1,13.5,7.2,13.5,12.4v1.8c0,5.4-3.5,9.4-10.5,12.1c-1.7,0.4-3.2,0.6-4.5,0.6h-2
		c-3.3,0-6.7-1.3-10.1-3.9h-0.5c0.3,0,0.2,0.6-0.4,1.7h-2.4c-1,0-1.5-0.4-1.5-1.3V74.9c0.1-0.8,0.6-1.2,1.5-1.2h1.7
		c0.8,0,1.6,1.6,2.6,4.7c2.4,4,5.5,6,9.4,6h0.6c4.3,0,7.3-1.7,9-5c0.2-1,0.3-1.7,0.3-2.2v-0.4c0-3.1-2.8-5.2-8.5-6.3
		c-10.7-3.1-16.1-7.4-16.1-13c0-3.4,1.9-6.4,5.8-9C187.2,47.2,189.8,46.5,192.8,46.5z"/>
	<path id="XMLID_295_" class="st0" d="M227.7,46.5l0.6,1.1v9.9c0,0.9,0,7.5,0.1,20.1c-0.1,3.7,0.7,5.8,2.3,6.2
		c1.2,0.4,2.4,0.6,3.7,0.8v2.2c0,0.9-0.5,1.3-1.5,1.3h-16.2c-1,0-1.5-0.4-1.5-1.3v-1.5c0-0.7,1.4-1.3,4.1-1.7c1.3-0.2,2-1.6,2.1-4.2
		c0-1.1,0.1-8,0.1-20.8c0-3-0.7-4.9-2.2-5.6c-1.2-0.6-2.5-0.8-4-0.7V50c0-0.9,3.4-2,10.3-3.1C225.4,46.6,226.1,46.5,227.7,46.5z
		 M224,13.4h0.7c2.4,0,3.8,1.4,4.3,4.2c0,2.1-1.5,3.4-4.4,4.1c-3-0.4-4.5-1.8-4.5-4.3C220.6,14.8,221.9,13.4,224,13.4z"/>
	<path id="XMLID_298_" class="st0" d="M245.8,79.3c1.2,0,2.3,0.4,3.1,1.2c0.8,0.8,1.3,1.8,1.3,2.9c0,1.1-0.4,2.1-1.2,2.9
		c-0.8,0.8-1.9,1.2-3.1,1.2c-1.2,0-2.3-0.4-3.1-1.2c-0.8-0.8-1.3-1.8-1.3-2.9c0-1.1,0.4-2,1.3-2.9C243.5,79.7,244.6,79.3,245.8,79.3
		z"/>
	<path id="XMLID_300_" class="st0" d="M297.5,8.7l0.6,1.2v69.4c0.2,2.8,0.9,4.3,2.1,4.3c2.6,0.6,3.9,1.2,3.9,1.8v1.5
		c0,0.9-0.5,1.3-1.5,1.3h-9.9c-1,0-1.5-0.4-1.5-1.3v-2.2c-2.8,2.9-6.7,4.4-11.7,4.4h-1.5c-7.6,0-13.6-4.3-18.2-12.9
		c-1-3-1.5-5.6-1.5-7.8v-1.7c0-7,3.3-12.8,9.8-17.4c3.3-2,6.7-2.9,10.1-2.9c5.5,0,9.8,1.6,13,4.9V21.3c0-3-0.5-4.8-1.6-5.6
		c-0.5-0.4-2.1-0.7-4.6-1v-2.6C285,11.4,289.2,10.2,297.5,8.7z M267.1,65.8v3.5c0,7.4,2.4,12.2,7.3,14.4c1.6,0.6,3.2,0.8,4.8,0.8
		h0.9c7.3,0,11-5.1,11-15.2v-1.5c0-8.2-1.7-13.4-5.2-15.8c-1.9-1-4-1.5-6.3-1.5H279c-6.2,0-9.9,3.4-11.3,10.2
		C267.3,62.3,267.1,64,267.1,65.8z"/>
	<path id="XMLID_303_" class="st0" d="M320,46.5l0.6,1.1v9.9c0,0.9,0,7.5,0.1,20.1c-0.1,3.7,0.7,5.8,2.3,6.2
		c1.2,0.4,2.4,0.6,3.7,0.8v2.2c0,0.9-0.5,1.3-1.5,1.3h-16.2c-1,0-1.5-0.4-1.5-1.3v-1.5c0-0.7,1.4-1.3,4.1-1.7c1.3-0.2,2-1.6,2.1-4.2
		c0-1.1,0.1-8,0.1-20.8c0-3-0.7-4.9-2.2-5.6c-1.2-0.6-2.5-0.8-4-0.7V50c0-0.9,3.4-2,10.3-3.1C317.7,46.6,318.5,46.5,320,46.5z
		 M316.3,13.4h0.7c2.4,0,3.8,1.4,4.3,4.2c0,2.1-1.5,3.4-4.4,4.1c-3-0.4-4.5-1.8-4.5-4.3C313,14.8,314.3,13.4,316.3,13.4z"/>
	<path id="XMLID_306_" class="st0" d="M338.1,79.3c1.2,0,2.3,0.4,3.1,1.2c0.8,0.8,1.3,1.8,1.3,2.9c0,1.1-0.4,2.1-1.2,2.9
		c-0.8,0.8-1.9,1.2-3.1,1.2c-1.2,0-2.3-0.4-3.1-1.2c-0.8-0.8-1.3-1.8-1.3-2.9c0-1.1,0.4-2,1.3-2.9C335.9,79.7,336.9,79.3,338.1,79.3
		z"/>
	<path id="XMLID_308_" class="st0" d="M367.2,46.3h1.8c6.3,0,11.1,2.9,14.3,8.7c1,2.7,1.6,5.4,1.6,8.2c-0.2,4.3-0.4,8.9-0.4,13.8
		c0,3.3,0.8,5.5,2.3,6.5c2.4,0.7,3.5,1.3,3.5,1.9v1.5c0,0.9-0.5,1.3-1.5,1.3H379c-1,0-1.5-0.4-1.5-1.3v-2.6c-3,3.2-7.4,4.8-13.2,4.8
		h-1.8c-6.3,0-10.8-2.6-13.6-7.8c-0.3-1.2-0.4-2.1-0.4-2.7v-0.9c0-4.5,2.4-8.2,7.1-11.1c3.2-1.5,8.2-3.2,15.2-5.2
		c4.1-1.7,6.1-3,6.1-3.9c0-2.1-2.1-4.2-6.3-6.2c-1.1-0.3-2.1-0.5-2.8-0.5h-0.9c-3.6,0-7.1,3.4-10.2,10.1h-1c-1.1,0-2.6-1-4.5-3.1
		c1-3.7,3.2-6.5,6.4-8.6C360.8,47.3,364,46.3,367.2,46.3z M356.8,77.3v0.4c0,3.6,2.7,5.8,8,6.8h1.9c4,0,7.4-2.3,10.1-6.9
		c0.6-1.4,0.8-2.7,0.8-3.9V70c0-2.2-0.1-5.1-0.2-8.8c-0.1-0.2-0.2,0.3-0.2,1.7c-0.6,0.6-5.4,2.7-14.4,6.4
		C358.8,71.9,356.8,74.5,356.8,77.3z M374.3,17.7h1c2.7,0.4,4,1.7,4,3.9v0.7c0,1.2-2.2,3.7-6.7,7.4c-2.8,2.9-4.7,4.4-5.6,4.4h-1.1
		c-0.6,0-1.4-0.7-2.4-2v-1.3c0-0.8,3-5,9-12.5L374.3,17.7z"/>
	<path id="XMLID_312_" class="st0" d="M400.6,79.3c1.2,0,2.3,0.4,3.1,1.2c0.8,0.8,1.3,1.8,1.3,2.9c0,1.1-0.4,2.1-1.2,2.9
		c-0.8,0.8-1.9,1.2-3.1,1.2c-1.2,0-2.3-0.4-3.1-1.2c-0.8-0.8-1.3-1.8-1.3-2.9c0-1.1,0.4-2,1.3-2.9C398.3,79.7,399.4,79.3,400.6,79.3
		z"/>
	<path id="XMLID_314_" class="st0" d="M425.2,46.4l0.6,1.2v7.9h-1.7c3-5.5,6.8-8.3,11.5-8.3c3.8,0.5,5.9,1.4,6.2,2.8
		c-1,3.9-2.1,5.9-3.3,5.9c-1.8-1.5-3.5-2.2-5-2.2H433c-2.3,0-4.3,2-6.1,6c-0.7,1.6-1.1,7.8-1.2,18.5c0,3.1,0.7,4.9,2.1,5.6
		c1,0.3,2.5,0.6,4.3,0.7v2.5c0,0.9-0.5,1.3-1.5,1.3h-16.3c-1,0-1.5-0.4-1.5-1.3v-1.5c0-0.7,1.3-1.2,3.9-1.6c1.4-0.5,2.1-2.2,2.1-5
		l0.2-20c-0.2-3.7-1.3-5.5-3.1-5.5c0-0.3-1-0.6-3.1-0.9v-2.6C412.7,49,416.9,47.8,425.2,46.4z"/>
	<path id="XMLID_316_" class="st0" d="M458.2,46.5l0.6,1.1v9.9c0,0.9,0,7.5,0.1,20.1c-0.1,3.7,0.7,5.8,2.3,6.2
		c1.2,0.4,2.4,0.6,3.7,0.8v2.2c0,0.9-0.5,1.3-1.5,1.3h-16.2c-1,0-1.5-0.4-1.5-1.3v-1.5c0-0.7,1.4-1.3,4.1-1.7c1.3-0.2,2-1.6,2.1-4.2
		c0-1.1,0.1-8,0.1-20.8c0-3-0.7-4.9-2.2-5.6c-1.2-0.6-2.5-0.8-4-0.7V50c0-0.9,3.4-2,10.3-3.1C455.9,46.6,456.7,46.5,458.2,46.5z
		 M454.5,13.4h0.7c2.4,0,3.8,1.4,4.3,4.2c0,2.1-1.5,3.4-4.4,4.1c-3-0.4-4.5-1.8-4.5-4.3C451.2,14.8,452.5,13.4,454.5,13.4z"/>
	<path id="XMLID_319_" class="st0" d="M476.4,79.3c1.2,0,2.3,0.4,3.1,1.2c0.8,0.8,1.3,1.8,1.3,2.9c0,1.1-0.4,2.1-1.2,2.9
		c-0.8,0.8-1.9,1.2-3.1,1.2c-1.2,0-2.3-0.4-3.1-1.2c-0.8-0.8-1.3-1.8-1.3-2.9c0-1.1,0.4-2,1.3-2.9C474.1,79.7,475.1,79.3,476.4,79.3
		z"/>
	<path id="XMLID_321_" class="st0" d="M509.3,46.5h2c7.2,0,13.2,3.7,17.9,11.2c1.5,3.2,2.3,6.2,2.3,9v1.8c0,6.9-3.6,12.8-10.7,17.6
		c-3.5,2-6.8,2.9-10.1,2.9h-2c-7.2,0-13.1-3.7-17.8-11c-1.7-2.9-2.5-6.2-2.5-9.7v-1.3c0-7.5,4.1-13.7,12.3-18.6
		C504.1,47.2,507,46.5,509.3,46.5z M497,67.6v1.7c0,10.2,4.2,15.2,12.6,15.2h0.9c8.3,0,12.4-5.5,12.4-16.5v-1.7
		c0-10.5-4.2-15.8-12.6-15.8H510C501.4,50.5,497,56.2,497,67.6z"/>
</g>
<g id="XMLID_3_">
	<path id="XMLID_4_" class="st0" d="M310,111.8h0.7v0.1c-1.3,0.7-2.3,2.5-3.1,5.4c-0.6,2.4-0.9,4.8-0.9,7.4c0,4.6,0.8,8.3,2.5,11.2
		c0.4,0.6,0.9,1.2,1.5,1.6v0.1H310c-2-1.2-3.6-3.7-4.7-7.5c-0.4-1.8-0.7-3.4-0.7-4.8v-1c0-3.3,0.9-6.5,2.6-9.5
		C308.1,113.4,309,112.4,310,111.8z"/>
	<path id="XMLID_6_" class="st0" d="M316.1,122.5h0.3c0.7,0,1.5,0.2,2.5,0.7c0.2,0,0.3-0.2,0.4-0.6c0.2,0,0.4,0,0.6-0.1
		c0.1,0.1,0.2,1.1,0.5,3c-0.1,0.1-0.3,0.1-0.6,0.2c-0.4-1.1-0.9-1.8-1.7-2.2c-0.7-0.3-1.3-0.4-1.9-0.4c-1.1,0-1.8,0.4-2,1.3
		c0,0.1,0,0.2-0.1,0.4c0,0.9,1,1.5,3.1,1.9c2.3,0.8,3.5,1.9,3.5,3.2v0.5c0,1.4-0.9,2.4-2.7,3.1c-0.4,0.1-0.8,0.2-1.1,0.2h-0.6
		c-0.8,0-1.7-0.4-2.7-1.1h-0.3c0,0-0.1,0.2-0.3,0.5h-0.5c-0.1,0-0.1,0-0.1-0.1v-2.9c0-0.1,0-0.1,0.1-0.1h0.5c0,0,0.2,0.4,0.4,1.1
		c0.7,1.2,1.7,1.8,2.9,1.8h0.2c1.3,0,2.3-0.5,2.8-1.6c0.1-0.3,0.1-0.5,0.1-0.7v-0.1c0-1-0.9-1.7-2.6-2c-2.8-0.8-4.2-1.9-4.2-3.4
		c0-0.9,0.5-1.6,1.5-2.3C314.6,122.7,315.3,122.5,316.1,122.5z"/>
	<path id="XMLID_8_" class="st0" d="M324.9,122.5l0.1,0.1v0.6c0,4.8,0.2,7.4,0.7,7.8c0.5,1.4,1.5,2,2.9,2h0.1c1.1,0,2.1-0.6,3-1.7
		v-5.3c0-0.1,0-0.5,0-1.1c0-0.6-0.3-1-1-1.1c-0.5-0.1-0.8-0.2-0.8-0.2v-0.5c0-0.1,1-0.3,2.9-0.7l0.1,0.1v8.3c0,1.3,0.5,2,1.6,2
		l0.1,0.1v0.4c0,0.1,0,0.1-0.1,0.1h-2.7c-0.1,0-0.1,0-0.1-0.1v-1.3c-1.3,1.1-2.5,1.6-3.9,1.6h-0.5c-2.4,0-3.6-1.8-3.6-5.4l0-3.2
		c-0.1-0.9-0.4-1.4-1.1-1.4c-0.3,0-0.5-0.1-0.5-0.2v-0.5C322,123.1,323,122.9,324.9,122.5z"/>
	<path id="XMLID_10_" class="st0" d="M338.4,112l0.1,0.1v12.1c1.2-1.3,2.5-1.9,4-1.9c2.1,0,3.6,1.1,4.8,3.4c0.3,0.7,0.4,1.4,0.4,2
		v0.5c0,1.9-0.9,3.5-2.8,4.8c-0.8,0.4-1.6,0.7-2.3,0.7H342c-1.3,0-2.5-0.6-3.7-1.8c-0.4,1-0.6,1.7-0.6,1.8h-0.5
		c-0.1,0-0.1,0-0.1-0.1v-18.8c-0.1-0.9-0.4-1.4-0.8-1.4c0-0.1-0.3-0.1-0.9-0.2v-0.5C335.5,112.6,336.5,112.3,338.4,112z
		 M338.5,128.2c0,2.3,0.6,3.8,1.7,4.4c0.6,0.2,1.1,0.3,1.6,0.3h0.3c2.5,0,3.7-1.6,3.7-4.9c0-3.3-1.2-5-3.7-5H342
		c-1.6,0-2.6,0.7-3.1,2.1C338.7,125.9,338.5,126.9,338.5,128.2z"/>
	<path id="XMLID_13_" class="st0" d="M353.9,122.5h0.3c0.7,0,1.5,0.2,2.5,0.7c0.2,0,0.3-0.2,0.4-0.6c0.2,0,0.4,0,0.6-0.1
		c0.1,0.1,0.2,1.1,0.5,3c-0.1,0.1-0.3,0.1-0.6,0.2c-0.4-1.1-0.9-1.8-1.7-2.2c-0.7-0.3-1.3-0.4-1.9-0.4c-1.1,0-1.8,0.4-2,1.3
		c0,0.1,0,0.2-0.1,0.4c0,0.9,1,1.5,3.1,1.9c2.3,0.8,3.5,1.9,3.5,3.2v0.5c0,1.4-0.9,2.4-2.7,3.1c-0.4,0.1-0.8,0.2-1.1,0.2h-0.6
		c-0.8,0-1.7-0.4-2.7-1.1h-0.3c0,0-0.1,0.2-0.3,0.5h-0.5c-0.1,0-0.1,0-0.1-0.1v-2.9c0-0.1,0-0.1,0.1-0.1h0.5c0,0,0.2,0.4,0.4,1.1
		c0.7,1.2,1.7,1.8,2.9,1.8h0.2c1.3,0,2.3-0.5,2.8-1.6c0.1-0.3,0.1-0.5,0.1-0.7v-0.1c0-1-0.9-1.7-2.6-2c-2.8-0.8-4.2-1.9-4.2-3.4
		c0-0.9,0.5-1.6,1.5-2.3C352.5,122.7,353.2,122.5,353.9,122.5z"/>
	<path id="XMLID_15_" class="st0" d="M363.2,122.5l0.1,0.1v2.7c0,0.2,0,2.1,0,5.5c0,1.1,0.3,1.8,0.8,2c0.3,0.1,0.6,0.2,0.8,0.2v0.4
		c0,0.1,0,0.1-0.1,0.1h-4.5c-0.1,0-0.1,0-0.1-0.1V133c0-0.1,0.3-0.1,0.9-0.2c0.5-0.1,0.8-0.5,0.8-1.4c0-0.3,0-2.2,0-5.8
		c0-0.9-0.3-1.5-0.8-1.8c-0.4-0.2-0.7-0.3-1-0.3v-0.4c0-0.1,0.9-0.3,2.8-0.7C363.1,122.5,363.2,122.5,363.2,122.5z M362.4,113.4h0.2
		c0.5,0,0.8,0.3,0.9,0.9c0,0.4-0.3,0.7-0.9,0.9c-0.6-0.1-0.9-0.4-0.9-0.9C361.8,113.7,362,113.4,362.4,113.4z"/>
	<path id="XMLID_18_" class="st0" d="M377.8,112.1l0.1,0.1v19.1c0.1,0.9,0.4,1.4,0.9,1.4c0.5,0.1,0.8,0.2,0.8,0.3v0.4
		c0,0.1,0,0.1-0.1,0.1h-2.7c-0.1,0-0.1,0-0.1-0.1v-1.3c-1.1,1.1-2.3,1.7-3.6,1.7h-0.4c-2,0-3.5-1.1-4.7-3.4
		c-0.3-0.8-0.4-1.5-0.4-2.1v-0.5c0-1.9,0.9-3.4,2.6-4.6c0.9-0.5,1.7-0.8,2.6-0.8c1.4,0,2.7,0.6,3.9,1.8v-9c0-0.9-0.2-1.5-0.6-1.7
		c-0.2-0.1-0.6-0.2-1.2-0.3v-0.5C374.9,112.7,375.8,112.5,377.8,112.1z M369.3,127.6v1c0,2.2,0.7,3.6,2.2,4.2c0.5,0.2,1,0.3,1.5,0.3
		h0.3c2.2,0,3.4-1.5,3.4-4.5v-0.4c0-2.3-0.5-3.9-1.6-4.6c-0.6-0.3-1.2-0.5-1.9-0.5h-0.2c-1.9,0-3,1-3.5,3
		C369.3,126.6,369.3,127.1,369.3,127.6z"/>
	<path id="XMLID_21_" class="st0" d="M383.9,122.5l0.1,0.1v2.7c0,0.2,0,2.1,0,5.5c0,1.1,0.3,1.8,0.8,2c0.3,0.1,0.6,0.2,0.8,0.2v0.4
		c0,0.1,0,0.1-0.1,0.1H381c-0.1,0-0.1,0-0.1-0.1V133c0-0.1,0.3-0.1,0.9-0.2c0.5-0.1,0.8-0.5,0.8-1.4c0-0.3,0-2.2,0-5.8
		c0-0.9-0.3-1.5-0.8-1.8c-0.4-0.2-0.7-0.3-1-0.3v-0.4c0-0.1,0.9-0.3,2.8-0.7C383.8,122.5,383.8,122.5,383.9,122.5z M383.1,113.4h0.2
		c0.5,0,0.8,0.3,0.9,0.9c0,0.4-0.3,0.7-0.9,0.9c-0.6-0.1-0.9-0.4-0.9-0.9C382.4,113.7,382.7,113.4,383.1,113.4z"/>
	<path id="XMLID_24_" class="st0" d="M392.4,122.5h0.5c1.6,0,2.8,0.7,3.7,2.2c0.3,0.7,0.4,1.4,0.4,2.2c-0.1,1.2-0.1,2.4-0.1,3.8
		c0,1,0.3,1.7,0.8,2c0.5,0.2,0.8,0.3,0.8,0.3v0.4c0,0.1,0,0.1-0.1,0.1h-2.7c-0.1,0-0.1,0-0.1-0.1V132c-1.2,1.2-2.5,1.8-4,1.8h-0.5
		c-1.6,0-2.7-0.7-3.5-2c-0.1-0.3-0.1-0.5-0.1-0.7v-0.3c0-1.2,0.6-2.1,1.8-2.8c0.8-0.4,2.2-0.9,4.2-1.4c1.3-0.5,1.9-1,1.9-1.3
		c0-0.7-0.6-1.3-1.9-1.9c-0.4-0.1-0.7-0.2-0.9-0.2h-0.3c-1.2,0-2.2,0.9-3,2.8h-0.1c-0.2,0-0.5-0.2-0.9-0.7c0.3-0.9,0.8-1.6,1.6-2.1
		C390.7,122.7,391.6,122.5,392.4,122.5z M389.2,130.8v0.1c0,1.1,0.8,1.8,2.5,2.1h0.6c1.2,0,2.3-0.7,3.1-2.1c0.2-0.4,0.3-0.8,0.3-1.2
		v-1c0-0.6,0-1.4-0.1-2.5c0-0.1-0.1-0.1-0.1-0.2c-0.5,0.5-2,1.2-4.5,2.2C389.8,129.1,389.2,129.9,389.2,130.8z"/>
	<path id="XMLID_27_" class="st0" d="M402.7,122.5l0.1,0.1v2.4h0.1c0.8-1.5,1.8-2.3,2.9-2.3c0.9,0.1,1.4,0.3,1.4,0.5
		c-0.2,0.9-0.4,1.4-0.5,1.4c-0.5-0.4-1-0.6-1.5-0.6H405c-0.8,0-1.5,0.6-2,1.8c-0.2,0.5-0.3,2.2-0.4,5.2c0,0.9,0.3,1.5,0.8,1.8
		c0.3,0.1,0.7,0.2,1,0.2v0.5c0,0.1,0,0.1-0.1,0.1h-4.5c-0.1,0-0.1,0-0.1-0.1V133c0-0.1,0.3-0.1,0.9-0.2c0.5-0.2,0.8-0.7,0.8-1.6
		l0.1-5.5c-0.1-1.2-0.4-1.8-0.9-1.8c0-0.1-0.3-0.1-0.9-0.2v-0.5C399.7,123.1,400.7,122.9,402.7,122.5z"/>
	<path id="XMLID_29_" class="st0" d="M411.7,122.5l0.1,0.1v2.7c0,0.2,0,2.1,0,5.5c0,1.1,0.3,1.8,0.8,2c0.3,0.1,0.6,0.2,0.8,0.2v0.4
		c0,0.1,0,0.1-0.1,0.1h-4.5c-0.1,0-0.1,0-0.1-0.1V133c0-0.1,0.3-0.1,0.9-0.2c0.5-0.1,0.8-0.5,0.8-1.4c0-0.3,0-2.2,0-5.8
		c0-0.9-0.3-1.5-0.8-1.8c-0.4-0.2-0.7-0.3-1-0.3v-0.4c0-0.1,0.9-0.3,2.8-0.7C411.5,122.5,411.6,122.5,411.7,122.5z M410.8,113.4h0.2
		c0.5,0,0.8,0.3,0.9,0.9c0,0.4-0.3,0.7-0.9,0.9c-0.6-0.1-0.9-0.4-0.9-0.9C410.2,113.7,410.5,113.4,410.8,113.4z"/>
	<path id="XMLID_32_" class="st0" d="M418.3,122.5l0.1,0.1v0.6c0,4.8,0.2,7.4,0.7,7.8c0.5,1.4,1.5,2,2.9,2h0.1c1.1,0,2.1-0.6,3-1.7
		v-5.3c0-0.1,0-0.5,0-1.1c0-0.6-0.3-1-1-1.1c-0.5-0.1-0.8-0.2-0.8-0.2v-0.5c0-0.1,1-0.3,2.9-0.7l0.1,0.1v8.3c0,1.3,0.5,2,1.6,2
		l0.1,0.1v0.4c0,0.1,0,0.1-0.1,0.1h-2.7c-0.1,0-0.1,0-0.1-0.1v-1.3c-1.3,1.1-2.5,1.6-3.9,1.6h-0.5c-2.4,0-3.6-1.8-3.6-5.4l0-3.2
		c-0.1-0.9-0.4-1.4-1.1-1.4c-0.3,0-0.5-0.1-0.5-0.2v-0.5C415.4,123.1,416.4,122.9,418.3,122.5z"/>
	<path id="XMLID_34_" class="st0" d="M433.6,122.5h0.3c0.7,0,1.5,0.2,2.5,0.7c0.2,0,0.3-0.2,0.4-0.6c0.2,0,0.4,0,0.6-0.1
		c0.1,0.1,0.2,1.1,0.5,3c-0.1,0.1-0.3,0.1-0.6,0.2c-0.4-1.1-0.9-1.8-1.7-2.2c-0.7-0.3-1.3-0.4-1.9-0.4c-1.1,0-1.8,0.4-2,1.3
		c0,0.1,0,0.2-0.1,0.4c0,0.9,1,1.5,3.1,1.9c2.3,0.8,3.5,1.9,3.5,3.2v0.5c0,1.4-0.9,2.4-2.7,3.1c-0.4,0.1-0.8,0.2-1.1,0.2h-0.6
		c-0.8,0-1.7-0.4-2.7-1.1h-0.3c0,0-0.1,0.2-0.3,0.5h-0.5c-0.1,0-0.1,0-0.1-0.1v-2.9c0-0.1,0-0.1,0.1-0.1h0.5c0,0,0.2,0.4,0.4,1.1
		c0.7,1.2,1.7,1.8,2.9,1.8h0.2c1.3,0,2.3-0.5,2.8-1.6c0.1-0.3,0.1-0.5,0.1-0.7v-0.1c0-1-0.9-1.7-2.6-2c-2.8-0.8-4.2-1.9-4.2-3.4
		c0-0.9,0.5-1.6,1.5-2.3C432.2,122.7,432.8,122.5,433.6,122.5z"/>
	<path id="XMLID_36_" class="st0" d="M440.6,133.3c-0.1,0-0.2-0.1-0.2-0.2c-0.2-0.2-0.3-0.4-0.3-0.6c0-0.2,0.1-0.4,0.3-0.6
		c0.2-0.2,0.4-0.3,0.6-0.3c0.2,0,0.4,0.1,0.6,0.3s0.3,0.4,0.3,0.6c0,0.1,0,0.1,0,0.2v0c0,0.9-0.9,2-2.6,3.3c0,0-0.1,0-0.1,0
		s-0.1,0-0.1,0c0,0-0.1,0-0.2-0.1c0-0.1,0-0.2,0-0.2c0,0,0.3-0.3,0.9-0.7C440.4,134.5,440.6,134,440.6,133.3z"/>
	<path id="XMLID_38_" class="st0" d="M451.4,126.1h6.7c0.1,0,0.1,0,0.1,0.1v1c0,0.1,0,0.1-0.1,0.1h-6.7c-0.1,0-0.1,0-0.1-0.1v-1
		C451.3,126.1,451.3,126.1,451.4,126.1z"/>
	<path id="XMLID_40_" class="st0" d="M464,122.5h0.5c1.6,0,2.8,0.7,3.7,2.2c0.3,0.7,0.4,1.4,0.4,2.2c-0.1,1.2-0.1,2.4-0.1,3.8
		c0,1,0.3,1.7,0.8,2c0.5,0.2,0.8,0.3,0.8,0.3v0.4c0,0.1,0,0.1-0.1,0.1h-2.7c-0.1,0-0.1,0-0.1-0.1V132c-1.2,1.2-2.5,1.8-4,1.8h-0.5
		c-1.6,0-2.7-0.7-3.5-2c-0.1-0.3-0.1-0.5-0.1-0.7v-0.3c0-1.2,0.6-2.1,1.8-2.8c0.8-0.4,2.2-0.9,4.2-1.4c1.3-0.5,1.9-1,1.9-1.3
		c0-0.7-0.6-1.3-1.9-1.9c-0.4-0.1-0.7-0.2-0.9-0.2h-0.3c-1.2,0-2.2,0.9-3,2.8h-0.1c-0.2,0-0.5-0.2-0.9-0.7c0.3-0.9,0.8-1.6,1.6-2.1
		C462.4,122.7,463.2,122.5,464,122.5z M460.8,130.8v0.1c0,1.1,0.8,1.8,2.5,2.1h0.6c1.2,0,2.3-0.7,3.1-2.1c0.2-0.4,0.3-0.8,0.3-1.2
		v-1c0-0.6,0-1.4-0.1-2.5c0-0.1-0.1-0.1-0.1-0.2c-0.5,0.5-2,1.2-4.5,2.2C461.4,129.1,460.8,129.9,460.8,130.8z"/>
	<path id="XMLID_43_" class="st0" d="M473.1,133.3c-0.1,0-0.2-0.1-0.2-0.2c-0.2-0.2-0.3-0.4-0.3-0.6c0-0.2,0.1-0.4,0.3-0.6
		c0.2-0.2,0.4-0.3,0.6-0.3c0.2,0,0.4,0.1,0.6,0.3s0.3,0.4,0.3,0.6c0,0.1,0,0.1,0,0.2v0c0,0.9-0.9,2-2.6,3.3c0,0-0.1,0-0.1,0
		s-0.1,0-0.1,0c0,0-0.1,0-0.2-0.1c0-0.1,0-0.2,0-0.2c0,0,0.3-0.3,0.9-0.7C472.8,134.5,473,134,473.1,133.3z"/>
	<path id="XMLID_45_" class="st0" d="M483.8,126.1h6.7c0.1,0,0.1,0,0.1,0.1v1c0,0.1,0,0.1-0.1,0.1h-6.7c-0.1,0-0.1,0-0.1-0.1v-1
		C483.7,126.1,483.8,126.1,483.8,126.1z"/>
	<path id="XMLID_47_" class="st0" d="M494.6,122.5l0.1,0.1v0.6c0,4.8,0.2,7.4,0.7,7.8c0.5,1.4,1.5,2,2.9,2h0.1c1.1,0,2.1-0.6,3-1.7
		v-5.3c0-0.1,0-0.5,0-1.1c0-0.6-0.3-1-1-1.1c-0.5-0.1-0.8-0.2-0.8-0.2v-0.5c0-0.1,1-0.3,2.9-0.7l0.1,0.1v8.3c0,1.3,0.5,2,1.6,2
		l0.1,0.1v0.4c0,0.1,0,0.1-0.1,0.1h-2.7c-0.1,0-0.1,0-0.1-0.1v-1.3c-1.3,1.1-2.5,1.6-3.9,1.6h-0.5c-2.4,0-3.6-1.8-3.6-5.4l0-3.2
		c-0.1-0.9-0.4-1.4-1.1-1.4c-0.3,0-0.5-0.1-0.5-0.2v-0.5C491.7,123.1,492.7,122.9,494.6,122.5z"/>
	<path id="XMLID_49_" class="st0" d="M508.6,122.5l0.1,0.1v1.5c1.3-1,2.5-1.6,3.8-1.6h0.5c1.4,0,2.4,0.6,3,1.7h0.1
		c1.2-1.1,2.5-1.7,3.9-1.7h0.6c2.4,0,3.6,1.8,3.6,5.4c0,0.8-0.1,1.7-0.1,2.5c0,0.2,0,0.4-0.1,0.7c0.1,1.2,0.4,1.8,1,1.8
		c0.5,0.1,0.7,0.2,0.7,0.2v0.4c0,0.1,0,0.1-0.1,0.1H521c-0.1,0-0.1,0-0.1-0.1V133c0,0,0.4-0.1,1.1-0.3c0.4-0.3,0.7-0.8,0.7-1.4v-1.9
		c0-3.3-0.7-5.2-2.1-5.9c-0.4-0.2-0.9-0.3-1.3-0.3c-1.2,0-2,0.6-2.5,1.9c-0.2,0.5-0.3,1.3-0.3,2.4c0,1.7,0.1,2.9,0.1,3.7
		c0.1,1.1,0.4,1.6,1,1.6c0.5,0.1,0.8,0.2,0.8,0.2v0.4c0,0.1,0,0.1-0.1,0.1h-4.5c-0.1,0-0.1,0-0.1-0.1V133c0-0.1,0.3-0.1,0.9-0.2
		c0.6-0.2,0.9-0.8,0.9-1.8v-1.4c0-3.3-0.7-5.3-2-6c-0.5-0.2-1-0.4-1.6-0.4h-0.1c-1.1,0-2.1,0.5-2.9,1.6v6.5c0,0.7,0.2,1.2,0.7,1.4
		c0.7,0.1,1,0.2,1,0.3v0.4c0,0.1,0,0.1-0.1,0.1h-4.5c-0.1,0-0.1,0-0.1-0.1V133c0-0.1,0.3-0.1,1-0.3c0.5-0.3,0.7-0.9,0.7-1.7v-5.4
		c0-1.3-0.4-1.9-1.3-1.9h-0.3c-0.1,0-0.1,0-0.1-0.1v-0.5C505.7,123.1,506.6,122.9,508.6,122.5z"/>
	<path id="XMLID_51_" class="st0" d="M527.3,111.8c1,0.6,1.9,1.6,2.7,2.8c1.8,3,2.6,6.2,2.6,9.5v1c0,1.4-0.2,3.1-0.7,4.8
		c-1.2,3.9-2.7,6.4-4.7,7.5h-0.7v-0.1c0.6-0.4,1.1-0.9,1.5-1.6c1.7-2.8,2.5-6.6,2.5-11.2c0-2.6-0.3-5-0.9-7.4
		c-0.8-2.9-1.8-4.7-3.1-5.4v-0.1H527.3z"/>
	<path id="XMLID_53_" class="st0" d="M458.2,151.5h0.5c1.6,0,2.7,0.7,3.2,2.2c0.1,0.7,0.1,1.4-0.1,2.2c-0.3,1.2-0.6,2.4-0.9,3.8
		c-0.2,1-0.1,1.7,0.4,2c0.5,0.2,0.8,0.3,0.7,0.3l-0.1,0.4c0,0.1-0.1,0.1-0.1,0.1h-2.7c-0.1,0-0.1,0-0.1-0.1l0.3-1.5
		c-1.4,1.2-2.9,1.8-4.3,1.8h-0.5c-1.6,0-2.6-0.7-3-2c0-0.3,0-0.5,0-0.7l0.1-0.3c0.2-1.2,1.1-2.1,2.4-2.8c0.9-0.4,2.4-0.9,4.5-1.4
		c1.4-0.5,2.1-1,2.2-1.3c0.1-0.7-0.4-1.3-1.5-1.9c-0.3-0.1-0.6-0.2-0.9-0.2h-0.3c-1.2,0-2.4,0.9-3.6,2.8h-0.1
		c-0.2,0-0.5-0.2-0.8-0.7c0.4-0.9,1.1-1.6,2.1-2.1C456.5,151.7,457.3,151.5,458.2,151.5z M453.2,159.8l0,0.1c-0.2,1.1,0.4,1.8,2,2.1
		h0.6c1.2,0,2.4-0.7,3.5-2.1c0.3-0.4,0.4-0.8,0.5-1.2l0.2-1c0.1-0.6,0.3-1.4,0.5-2.5c0-0.1,0-0.1,0-0.2c-0.6,0.5-2.3,1.2-4.9,2.2
		C454.1,158.1,453.4,158.9,453.2,159.8z"/>
	<path id="XMLID_56_" class="st0" d="M478.1,141.1l0,0.1l-4.1,19.1c-0.1,0.9,0.1,1.4,0.6,1.4c0.5,0.1,0.8,0.2,0.8,0.3l-0.1,0.4
		c0,0.1-0.1,0.1-0.1,0.1h-2.7c-0.1,0-0.1,0-0.1-0.1l0.3-1.3c-1.3,1.1-2.6,1.7-3.9,1.7h-0.4c-2,0-3.3-1.1-4-3.4
		c-0.1-0.8-0.1-1.5,0-2.1l0.1-0.5c0.4-1.9,1.6-3.4,3.6-4.6c1-0.5,1.9-0.8,2.7-0.8c1.4,0,2.6,0.6,3.5,1.8l1.9-9
		c0.2-0.9,0.1-1.5-0.2-1.7c-0.2-0.1-0.5-0.2-1.1-0.3l0.1-0.5C475,141.7,476.1,141.5,478.1,141.1z M466.3,156.6l-0.2,1
		c-0.5,2.2,0,3.6,1.3,4.2c0.5,0.2,0.9,0.3,1.4,0.3h0.3c2.2,0,3.7-1.5,4.3-4.5l0.1-0.4c0.5-2.3,0.3-3.9-0.6-4.6
		c-0.5-0.3-1.1-0.5-1.8-0.5h-0.2c-1.9,0-3.2,1-4.1,3C466.5,155.6,466.4,156.1,466.3,156.6z"/>
	<path id="XMLID_59_" class="st0" d="M482.3,151.6l0,0.1l-2.7,12.8c-0.5,2.1-1.5,3.5-3.1,4.1c-0.8,0.2-1.4,0.4-2,0.4h-0.7
		c-0.1,0-0.1,0-0.1-0.1c0.1-0.3,0.5-0.5,1.2-0.5c1-0.3,1.8-0.8,2.5-1.5c0.4-0.4,0.8-1.2,1.1-2.6l2-9.5c0.2-0.9,0.1-1.4-0.3-1.6
		c-0.7-0.2-1-0.3-1-0.3l0.1-0.4C479.2,152.2,480.3,152,482.3,151.6C482.3,151.6,482.3,151.6,482.3,151.6z M483.3,142.4h0.2
		c0.5,0.1,0.7,0.4,0.6,0.8l0,0.2c-0.1,0.4-0.4,0.6-1,0.8c-0.6-0.1-0.8-0.4-0.7-0.9C482.6,142.7,482.9,142.4,483.3,142.4z"/>
	<path id="XMLID_62_" class="st0" d="M490.4,151.5h0.4c1.7,0,2.9,0.8,3.4,2.4c0.1,0.7,0.2,1.3,0.1,1.7l-0.1,0.5
		c-0.3,0.8-1.1,1.2-2.4,1.2c-0.3,0-0.8,0.1-1.5,0.1h-4.6c-0.5,2.1,0.1,3.6,1.8,4.4c0.4,0.1,0.8,0.2,1.3,0.3c1.2,0,2.3-0.5,3.3-1.6
		c0.1,0,0.3,0.1,0.6,0.2l0,0.1c-1.1,1.4-2.5,2.1-4,2.1h-0.3c-1.7,0-2.9-0.7-3.9-2.2c-0.6-1-0.7-2.2-0.5-3.4l0.1-0.5
		c0.4-2.1,1.8-3.7,4-4.8C489,151.7,489.7,151.5,490.4,151.5z M485.7,156.8h5.4c1.1,0,1.7-0.4,1.9-1.3c0.3-1.2-0.3-2.3-1.7-3.1
		c-0.5-0.2-0.9-0.3-1.2-0.3c-1.4,0-2.7,1-3.8,3.1C486,156,485.8,156.5,485.7,156.8z"/>
	<path id="XMLID_65_" class="st0" d="M500.4,146.7h0.5c0.1,0,0.1,0,0.1,0.1l-0.8,3.7h2.4c0.1,0,0.1,0,0.1,0.1l-0.1,0.6
		c0,0.1,0,0.1-0.1,0.1H500l-1.6,7.3c-0.4,1.7,0.3,2.8,2,3.4c0.7,0,1,0.2,0.9,0.6l-0.1,0.1h-0.7c-1.5,0-2.6-0.6-3.2-1.7
		c-0.3-0.6-0.3-1.8,0.1-3.6l1.3-6h-1.6c-0.1,0-0.1,0-0.1-0.1l0.1-0.4c0,0,0.3-0.1,0.9-0.3c1.2-0.9,2-2.1,2.3-3.6l0-0.1
		C500.3,146.7,500.3,146.7,500.4,146.7z"/>
	<path id="XMLID_67_" class="st0" d="M507.7,151.5l0,0.1l-0.6,2.7c-0.1,0.2-0.4,2.1-1.2,5.5c-0.3,1.1-0.1,1.8,0.4,2
		c0.3,0.1,0.6,0.2,0.8,0.2l-0.1,0.4c0,0.1-0.1,0.1-0.1,0.1h-4.5c-0.1,0-0.1,0-0.1-0.1l0.1-0.4c0-0.1,0.3-0.1,0.9-0.2
		c0.5-0.1,0.9-0.5,1.1-1.4c0.1-0.3,0.5-2.2,1.3-5.8c0.2-0.9,0.1-1.5-0.4-1.8c-0.3-0.2-0.7-0.3-0.9-0.3l0.1-0.4c0-0.1,1-0.3,3-0.7
		C507.6,151.5,507.7,151.5,507.7,151.5z M508.9,142.4h0.2c0.5,0,0.7,0.3,0.7,0.9c-0.1,0.4-0.5,0.7-1.1,0.9c-0.6-0.1-0.8-0.4-0.7-0.9
		C508.2,142.7,508.5,142.4,508.9,142.4z"/>
	<path id="XMLID_70_" class="st0" d="M511.4,151.7h3.8c0.1,0,0.1,0,0.1,0.1l-0.1,0.5c0,0.1-0.1,0.1-0.1,0.1h-0.5
		c-0.4,0-0.7,0.2-0.8,0.6c0,0.6,0.6,3.2,2,7.9l0.3,1.1h0.1c3.7-5.8,5.5-8.8,5.6-9l0-0.1c0-0.3-0.2-0.5-0.6-0.5h-0.5
		c-0.1,0-0.1,0-0.1-0.1l0.1-0.5c0-0.1,0.1-0.1,0.1-0.1h2.8c0.1,0,0.1,0,0.1,0.1l-0.1,0.5c0,0.1-0.3,0.1-0.7,0.2
		c-0.2,0-1,1.1-2.3,3.4c-0.2,0.3-1.7,2.6-4.4,6.9h-1.5c-0.1-0.2-1-3.5-2.7-10c-0.2-0.3-0.5-0.5-0.9-0.5l0.1-0.5
		C511.3,151.7,511.4,151.7,511.4,151.7z"/>
	<path id="XMLID_72_" class="st0" d="M529.6,151.5h0.6c1.9,0,3.2,1,4,2.9c0.2,0.8,0.3,1.6,0.1,2.4l-0.1,0.5
		c-0.4,1.8-1.7,3.4-3.8,4.7c-1,0.5-1.9,0.8-2.8,0.8h-0.6c-1.9,0-3.2-1-4-2.9c-0.3-0.8-0.3-1.6-0.1-2.6l0.1-0.4
		c0.4-2,1.8-3.6,4.3-4.9C528.3,151.7,529,151.5,529.6,151.5z M524.8,157.1l-0.1,0.5c-0.6,3,0.3,4.5,2.9,4.5h0.3
		c2.5,0,4.1-1.6,4.8-4.8l0.1-0.5c0.7-3.1-0.3-4.6-2.8-4.6h-0.1C527.1,152.1,525.5,153.8,524.8,157.1z"/>
	<path id="XMLID_75_" class="st0" d="M295.3,177.2l0.1,0.1V190c0,0.8,0.4,1.2,1.1,1.2l0.1,0.1v0.2c0,0.1,0,0.1-0.1,0.1H293
		c-0.1,0-0.1,0-0.1-0.1v-0.2c0-0.1,0.3-0.2,0.9-0.3c0.2-0.2,0.4-0.5,0.4-0.9v-9.5c0-0.2,0-0.5,0.1-0.8c0-0.8-0.2-1.3-0.6-1.4
		c-0.5-0.1-0.8-0.1-0.8-0.2v-0.3C292.9,177.7,293.7,177.5,295.3,177.2z"/>
	<path id="XMLID_77_" class="st0" d="M302.3,189.6c0.2,0,0.4,0.1,0.6,0.3s0.3,0.4,0.3,0.6c0,0.2-0.1,0.5-0.3,0.6
		c-0.2,0.2-0.4,0.3-0.6,0.3s-0.5-0.1-0.6-0.3c-0.2-0.2-0.3-0.4-0.3-0.6c0-0.2,0.1-0.4,0.3-0.6C301.8,189.7,302,189.6,302.3,189.6z"
		/>
	<path id="XMLID_79_" class="st0" d="M312.8,174.5h6.8c2.4,0,4.2,1.1,5.3,3.4c0.2,0.6,0.3,1.2,0.3,1.5c0,1.8-1.1,3.2-3.3,4.1
		c-0.9,0.3-1.5,0.4-1.9,0.4v0.1c1.3,0.4,2.4,1.3,3.1,2.5c0.3,0.7,0.7,1.8,1.1,3.1c0.5,0.9,1,1.4,1.7,1.4l0.1,0.1v0.3
		c0,0.1,0,0.1-0.1,0.1h-0.6c-1.6,0-2.6-1.2-3-3.6c-0.7-2.7-2.6-4-5.7-4h-1v5.8c0,0.7,0.3,1.1,0.8,1.3c0.4,0,0.6,0.1,0.6,0.2v0.3
		c0,0.1,0,0.1-0.1,0.1h-4c-0.1,0-0.1,0-0.1-0.1v-0.3c0-0.1,0.3-0.1,0.8-0.2c0.4-0.2,0.6-0.6,0.6-1.2v-13.5c0-0.9-0.5-1.3-1.4-1.3
		v-0.4C312.7,174.5,312.7,174.5,312.8,174.5z M315.4,176.3v7.1h1.3c0.1,0,0.2,0,0.3-0.1l0.3,0.1h0.9c2.6,0,4.3-0.6,4.9-1.9
		c0.3-0.6,0.5-1.2,0.5-1.9v-0.2c0-2-0.9-3.4-2.8-4.2c-0.5-0.1-0.9-0.2-1.4-0.2h-2.7C315.9,175,315.4,175.4,315.4,176.3z"/>
	<path id="XMLID_82_" class="st0" d="M331.4,180.5h0.4c1.7,0,3,0.8,3.9,2.4c0.3,0.7,0.4,1.3,0.5,1.7v0.5c-0.2,0.8-0.9,1.2-2.2,1.2
		c-0.3,0-0.8,0.1-1.5,0.1h-4.6c0,2.1,0.9,3.6,2.7,4.4c0.4,0.1,0.9,0.2,1.4,0.3c1.2,0,2.2-0.5,3-1.6c0.1,0,0.3,0.1,0.7,0.2v0.1
		c-0.8,1.4-2,2.1-3.6,2.1h-0.3c-1.7,0-3.1-0.7-4.3-2.2c-0.8-1-1.2-2.2-1.2-3.4v-0.5c0-2.1,1-3.7,3-4.8
		C330,180.7,330.7,180.5,331.4,180.5z M327.8,185.8h5.4c1.1,0,1.6-0.4,1.6-1.3c0-1.2-0.8-2.3-2.4-3.1c-0.5-0.2-0.9-0.3-1.3-0.3
		c-1.4,0-2.5,1-3.1,3.1C327.9,185,327.8,185.5,327.8,185.8z"/>
	<path id="XMLID_85_" class="st0" d="M340.5,170.7l0.1,0.1v17.6c0,0.1,0,0.5,0.1,1s0.3,1,0.7,1.3c0.1,0.1,0.4,0.1,0.9,0.2v0.5
		c0,0.1,0,0.1-0.1,0.1h-4.5c-0.1,0-0.1,0-0.1-0.1V191c0.4,0,0.7-0.1,1.1-0.3c0.4-0.2,0.6-0.9,0.6-2.3l0.1-14.6
		c-0.1-1.2-0.7-1.8-1.7-2v-0.5C337.5,171.3,338.5,171.1,340.5,170.7z"/>
	<path id="XMLID_87_" class="st0" d="M348.2,180.5h0.5c1.6,0,2.8,0.7,3.7,2.2c0.3,0.7,0.4,1.4,0.4,2.2c-0.1,1.2-0.1,2.4-0.1,3.8
		c0,1,0.3,1.7,0.8,2c0.5,0.2,0.8,0.3,0.8,0.3v0.4c0,0.1,0,0.1-0.1,0.1h-2.7c-0.1,0-0.1,0-0.1-0.1V190c-1.2,1.2-2.5,1.8-4,1.8h-0.5
		c-1.6,0-2.7-0.7-3.5-2c-0.1-0.3-0.1-0.5-0.1-0.7v-0.3c0-1.2,0.6-2.1,1.8-2.8c0.8-0.4,2.2-0.9,4.2-1.4c1.3-0.5,1.9-1,1.9-1.3
		c0-0.7-0.6-1.3-1.9-1.9c-0.4-0.1-0.7-0.2-0.9-0.2h-0.3c-1.2,0-2.2,0.9-3,2.8H345c-0.2,0-0.5-0.2-0.9-0.7c0.3-0.9,0.8-1.6,1.6-2.1
		C346.5,180.7,347.4,180.5,348.2,180.5z M345,188.8v0.1c0,1.1,0.8,1.8,2.5,2.1h0.6c1.2,0,2.3-0.7,3.1-2.1c0.2-0.4,0.3-0.8,0.3-1.2
		v-1c0-0.6,0-1.4-0.1-2.5c0-0.1-0.1-0.1-0.1-0.2c-0.5,0.5-2,1.2-4.5,2.2C345.6,187.1,345,187.9,345,188.8z"/>
	<path id="XMLID_90_" class="st0" d="M357.4,175.7h0.5c0.1,0,0.1,0,0.1,0.1v3.7h2.4c0.1,0,0.1,0,0.1,0.1v0.6c0,0.1,0,0.1-0.1,0.1
		H358v7.3c0,1.7,0.9,2.8,2.7,3.4c0.7,0,1,0.2,1,0.6l-0.1,0.1h-0.7c-1.5,0-2.7-0.6-3.6-1.7c-0.4-0.6-0.7-1.8-0.7-3.6v-6h-1.6
		c-0.1,0-0.1,0-0.1-0.1v-0.4c0,0,0.3-0.1,0.8-0.3c1-0.9,1.5-2.1,1.5-3.6v-0.1C357.3,175.7,357.4,175.7,357.4,175.7z"/>
	<path id="XMLID_92_" class="st0" d="M365.8,180.5l0.1,0.1v2.7c0,0.2,0,2.1,0,5.5c0,1.1,0.3,1.8,0.8,2c0.3,0.1,0.6,0.2,0.8,0.2v0.4
		c0,0.1,0,0.1-0.1,0.1H363c-0.1,0-0.1,0-0.1-0.1V191c0-0.1,0.3-0.1,0.9-0.2c0.5-0.1,0.8-0.5,0.8-1.4c0-0.3,0-2.2,0-5.8
		c0-0.9-0.3-1.5-0.8-1.8c-0.4-0.2-0.7-0.3-1-0.3v-0.4c0-0.1,0.9-0.3,2.8-0.7C365.7,180.5,365.7,180.5,365.8,180.5z M365,171.4h0.2
		c0.5,0,0.8,0.3,0.9,0.9c0,0.4-0.3,0.7-0.9,0.9c-0.6-0.1-0.9-0.4-0.9-0.9C364.4,171.7,364.6,171.4,365,171.4z"/>
	<path id="XMLID_95_" class="st0" d="M369.5,180.7h3.8c0.1,0,0.1,0,0.1,0.1v0.5c0,0.1,0,0.1-0.1,0.1h-0.5c-0.4,0-0.7,0.2-0.7,0.6
		c0.1,0.6,1.3,3.2,3.7,7.9l0.5,1.1h0.1c2.4-5.8,3.7-8.8,3.7-9v-0.1c-0.1-0.3-0.3-0.5-0.7-0.5H379c-0.1,0-0.1,0-0.1-0.1v-0.5
		c0-0.1,0-0.1,0.1-0.1h2.8c0.1,0,0.1,0,0.1,0.1v0.5c0,0.1-0.2,0.1-0.7,0.2c-0.2,0-0.7,1.1-1.6,3.4c-0.1,0.3-1.1,2.6-2.9,6.9h-1.5
		c-0.2-0.2-1.7-3.5-4.8-10c-0.3-0.3-0.6-0.5-1-0.5v-0.5C369.4,180.7,369.5,180.7,369.5,180.7z"/>
	<path id="XMLID_97_" class="st0" d="M387.7,180.5h0.6c1.9,0,3.4,1,4.7,2.9c0.4,0.8,0.6,1.6,0.6,2.4v0.5c0,1.8-0.9,3.4-2.8,4.7
		c-0.9,0.5-1.8,0.8-2.6,0.8h-0.6c-1.9,0-3.4-1-4.6-2.9c-0.4-0.8-0.7-1.6-0.7-2.6V186c0-2,1.1-3.6,3.3-4.9
		C386.4,180.7,387.1,180.5,387.7,180.5z M384,186.1v0.5c0,3,1.3,4.5,3.8,4.5h0.3c2.5,0,3.8-1.6,3.8-4.8v-0.5c0-3.1-1.3-4.6-3.8-4.6
		h-0.1C385.3,181.1,384,182.8,384,186.1z"/>
	<path id="XMLID_100_" class="st0" d="M406.4,180.5h0.5c1.6,0,2.8,0.7,3.7,2.2c0.3,0.7,0.4,1.4,0.4,2.2c-0.1,1.2-0.1,2.4-0.1,3.8
		c0,1,0.3,1.7,0.8,2c0.5,0.2,0.8,0.3,0.8,0.3v0.4c0,0.1,0,0.1-0.1,0.1h-2.7c-0.1,0-0.1,0-0.1-0.1V190c-1.2,1.2-2.5,1.8-4,1.8H405
		c-1.6,0-2.7-0.7-3.5-2c-0.1-0.3-0.1-0.5-0.1-0.7v-0.3c0-1.2,0.6-2.1,1.8-2.8c0.8-0.4,2.2-0.9,4.2-1.4c1.3-0.5,1.9-1,1.9-1.3
		c0-0.7-0.6-1.3-1.9-1.9c-0.4-0.1-0.7-0.2-0.9-0.2h-0.3c-1.2,0-2.2,0.9-3,2.8h-0.1c-0.2,0-0.5-0.2-0.9-0.7c0.3-0.9,0.8-1.6,1.6-2.1
		C404.7,180.7,405.5,180.5,406.4,180.5z M403.2,188.8v0.1c0,1.1,0.8,1.8,2.5,2.1h0.6c1.2,0,2.3-0.7,3.1-2.1c0.2-0.4,0.3-0.8,0.3-1.2
		v-1c0-0.6,0-1.4-0.1-2.5c0-0.1-0.1-0.1-0.1-0.2c-0.5,0.5-2,1.2-4.5,2.2C403.8,187.1,403.2,187.9,403.2,188.8z M405.9,172.6l0.4,0.1
		c1.6,2,2.4,3.1,2.4,3.3v0.3c-0.2,0.2-0.3,0.4-0.4,0.4H408c-0.2,0-0.6-0.4-1.3-1.1c-1.2-1-1.8-1.6-1.8-1.9v-0.2
		c0-0.5,0.3-0.7,0.8-0.8H405.9z"/>
	<path id="XMLID_104_" class="st0" d="M424.6,180.5h0.3c0.7,0,1.5,0.2,2.5,0.7c0.2,0,0.3-0.2,0.4-0.6c0.2,0,0.4,0,0.6-0.1
		c0.1,0.1,0.2,1.1,0.5,3c-0.1,0.1-0.3,0.1-0.6,0.2c-0.4-1.1-0.9-1.8-1.7-2.2c-0.7-0.3-1.3-0.4-1.9-0.4c-1.1,0-1.8,0.4-2,1.3
		c0,0.1,0,0.2-0.1,0.4c0,0.9,1,1.5,3.1,1.9c2.3,0.8,3.5,1.9,3.5,3.2v0.5c0,1.4-0.9,2.4-2.7,3.1c-0.4,0.1-0.8,0.2-1.1,0.2h-0.6
		c-0.8,0-1.7-0.4-2.7-1.1h-0.3c0,0-0.1,0.2-0.3,0.5h-0.5c-0.1,0-0.1,0-0.1-0.1v-2.9c0-0.1,0-0.1,0.1-0.1h0.5c0,0,0.2,0.4,0.4,1.1
		c0.7,1.2,1.7,1.8,2.9,1.8h0.2c1.3,0,2.3-0.5,2.8-1.6c0.1-0.3,0.1-0.5,0.1-0.7v-0.1c0-1-0.9-1.7-2.6-2c-2.8-0.8-4.2-1.9-4.2-3.4
		c0-0.9,0.5-1.6,1.5-2.3C423.1,180.7,423.8,180.5,424.6,180.5z"/>
	<path id="XMLID_106_" class="st0" d="M433.5,180.5l0.1,0.1v0.6c0,4.8,0.2,7.4,0.7,7.8c0.5,1.4,1.5,2,2.9,2h0.1c1.1,0,2.1-0.6,3-1.7
		v-5.3c0-0.1,0-0.5,0-1.1c0-0.6-0.3-1-1-1.1c-0.5-0.1-0.8-0.2-0.8-0.2v-0.5c0-0.1,1-0.3,2.9-0.7l0.1,0.1v8.3c0,1.3,0.5,2,1.6,2
		l0.1,0.1v0.4c0,0.1,0,0.1-0.1,0.1h-2.7c-0.1,0-0.1,0-0.1-0.1v-1.3c-1.3,1.1-2.5,1.6-3.9,1.6h-0.5c-2.4,0-3.6-1.8-3.6-5.4l0-3.2
		c-0.1-0.9-0.4-1.4-1.1-1.4c-0.3,0-0.5-0.1-0.5-0.2v-0.5C430.6,181.1,431.5,180.9,433.5,180.5z"/>
	<path id="XMLID_108_" class="st0" d="M446.9,170l0.1,0.1v12.1c1.2-1.3,2.5-1.9,4-1.9c2.1,0,3.6,1.1,4.8,3.4c0.3,0.7,0.4,1.4,0.4,2
		v0.5c0,1.9-0.9,3.5-2.8,4.8c-0.8,0.4-1.6,0.7-2.3,0.7h-0.4c-1.3,0-2.5-0.6-3.7-1.8c-0.4,1-0.6,1.7-0.6,1.8h-0.5
		c-0.1,0-0.1,0-0.1-0.1v-18.8c-0.1-0.9-0.4-1.4-0.8-1.4c0-0.1-0.3-0.1-0.9-0.2v-0.5C444,170.6,445,170.3,446.9,170z M447.1,186.2
		c0,2.3,0.6,3.8,1.7,4.4c0.6,0.2,1.1,0.3,1.6,0.3h0.3c2.5,0,3.7-1.6,3.7-4.9c0-3.3-1.2-5-3.7-5h-0.1c-1.6,0-2.6,0.7-3.1,2.1
		C447.2,183.9,447.1,184.9,447.1,186.2z"/>
	<path id="XMLID_111_" class="st0" d="M462.4,180.5h0.3c0.7,0,1.5,0.2,2.5,0.7c0.2,0,0.3-0.2,0.4-0.6c0.2,0,0.4,0,0.6-0.1
		c0.1,0.1,0.2,1.1,0.5,3c-0.1,0.1-0.3,0.1-0.6,0.2c-0.4-1.1-0.9-1.8-1.7-2.2c-0.7-0.3-1.3-0.4-1.9-0.4c-1.1,0-1.8,0.4-2,1.3
		c0,0.1,0,0.2-0.1,0.4c0,0.9,1,1.5,3.1,1.9c2.3,0.8,3.5,1.9,3.5,3.2v0.5c0,1.4-0.9,2.4-2.7,3.1c-0.4,0.1-0.8,0.2-1.1,0.2h-0.6
		c-0.8,0-1.7-0.4-2.7-1.1h-0.3c0,0-0.1,0.2-0.3,0.5h-0.5c-0.1,0-0.1,0-0.1-0.1v-2.9c0-0.1,0-0.1,0.1-0.1h0.5c0,0,0.2,0.4,0.4,1.1
		c0.7,1.2,1.7,1.8,2.9,1.8h0.2c1.3,0,2.3-0.5,2.8-1.6c0.1-0.3,0.1-0.5,0.1-0.7v-0.1c0-1-0.9-1.7-2.6-2c-2.8-0.8-4.2-1.9-4.2-3.4
		c0-0.9,0.5-1.6,1.5-2.3C461,180.7,461.7,180.5,462.4,180.5z"/>
	<path id="XMLID_113_" class="st0" d="M471.8,180.5l0.1,0.1v2.7c0,0.2,0,2.1,0,5.5c0,1.1,0.3,1.8,0.8,2c0.3,0.1,0.6,0.2,0.8,0.2v0.4
		c0,0.1,0,0.1-0.1,0.1h-4.5c-0.1,0-0.1,0-0.1-0.1V191c0-0.1,0.3-0.1,0.9-0.2c0.5-0.1,0.8-0.5,0.8-1.4c0-0.3,0-2.2,0-5.8
		c0-0.9-0.3-1.5-0.8-1.8c-0.4-0.2-0.7-0.3-1-0.3v-0.4c0-0.1,0.9-0.3,2.8-0.7C471.7,180.5,471.7,180.5,471.8,180.5z M471,171.4h0.2
		c0.5,0,0.8,0.3,0.9,0.9c0,0.4-0.3,0.7-0.9,0.9c-0.6-0.1-0.9-0.4-0.9-0.9C470.3,171.7,470.6,171.4,471,171.4z"/>
	<path id="XMLID_116_" class="st0" d="M486.3,170.1l0.1,0.1v19.1c0.1,0.9,0.4,1.4,0.9,1.4c0.5,0.1,0.8,0.2,0.8,0.3v0.4
		c0,0.1,0,0.1-0.1,0.1h-2.7c-0.1,0-0.1,0-0.1-0.1v-1.3c-1.1,1.1-2.3,1.7-3.6,1.7h-0.4c-2,0-3.5-1.1-4.7-3.4
		c-0.3-0.8-0.4-1.5-0.4-2.1v-0.5c0-1.9,0.9-3.4,2.6-4.6c0.9-0.5,1.7-0.8,2.6-0.8c1.4,0,2.7,0.6,3.9,1.8v-9c0-0.9-0.2-1.5-0.6-1.7
		c-0.2-0.1-0.6-0.2-1.2-0.3v-0.5C483.4,170.7,484.4,170.5,486.3,170.1z M477.8,185.6v1c0,2.2,0.7,3.6,2.2,4.2c0.5,0.2,1,0.3,1.5,0.3
		h0.3c2.2,0,3.4-1.5,3.4-4.5v-0.4c0-2.3-0.5-3.9-1.6-4.6c-0.6-0.3-1.2-0.5-1.9-0.5h-0.2c-1.9,0-3,1-3.5,3
		C477.9,184.6,477.8,185.1,477.8,185.6z"/>
	<path id="XMLID_119_" class="st0" d="M492.5,180.5l0.1,0.1v2.7c0,0.2,0,2.1,0,5.5c0,1.1,0.3,1.8,0.8,2c0.3,0.1,0.6,0.2,0.8,0.2v0.4
		c0,0.1,0,0.1-0.1,0.1h-4.5c-0.1,0-0.1,0-0.1-0.1V191c0-0.1,0.3-0.1,0.9-0.2c0.5-0.1,0.8-0.5,0.8-1.4c0-0.3,0-2.2,0-5.8
		c0-0.9-0.3-1.5-0.8-1.8c-0.4-0.2-0.7-0.3-1-0.3v-0.4c0-0.1,0.9-0.3,2.8-0.7C492.4,180.5,492.5,180.5,492.5,180.5z M492.9,172.6h0.2
		c0.5,0.1,0.8,0.4,0.8,0.8v0.2c0,0.3-0.6,0.9-1.8,1.9c-0.7,0.7-1.2,1.1-1.3,1.1h-0.3c-0.1,0-0.2-0.1-0.4-0.4v-0.3
		c0-0.2,0.8-1.3,2.4-3.3L492.9,172.6z"/>
	<path id="XMLID_122_" class="st0" d="M507,170.1l0.1,0.1v19.1c0.1,0.9,0.4,1.4,0.9,1.4c0.5,0.1,0.8,0.2,0.8,0.3v0.4
		c0,0.1,0,0.1-0.1,0.1h-2.7c-0.1,0-0.1,0-0.1-0.1v-1.3c-1.1,1.1-2.3,1.7-3.6,1.7h-0.4c-2,0-3.5-1.1-4.7-3.4
		c-0.3-0.8-0.4-1.5-0.4-2.1v-0.5c0-1.9,0.9-3.4,2.6-4.6c0.9-0.5,1.7-0.8,2.6-0.8c1.4,0,2.7,0.6,3.9,1.8v-9c0-0.9-0.2-1.5-0.6-1.7
		c-0.2-0.1-0.6-0.2-1.2-0.3v-0.5C504,170.7,505,170.5,507,170.1z M498.5,185.6v1c0,2.2,0.7,3.6,2.2,4.2c0.5,0.2,1,0.3,1.5,0.3h0.3
		c2.2,0,3.4-1.5,3.4-4.5v-0.4c0-2.3-0.5-3.9-1.6-4.6c-0.6-0.3-1.2-0.5-1.9-0.5h-0.2c-1.9,0-3,1-3.5,3
		C498.5,184.6,498.5,185.1,498.5,185.6z"/>
	<path id="XMLID_125_" class="st0" d="M513.1,180.5l0.1,0.1v2.7c0,0.2,0,2.1,0,5.5c0,1.1,0.3,1.8,0.8,2c0.3,0.1,0.6,0.2,0.8,0.2v0.4
		c0,0.1,0,0.1-0.1,0.1h-4.5c-0.1,0-0.1,0-0.1-0.1V191c0-0.1,0.3-0.1,0.9-0.2c0.5-0.1,0.8-0.5,0.8-1.4c0-0.3,0-2.2,0-5.8
		c0-0.9-0.3-1.5-0.8-1.8c-0.4-0.2-0.7-0.3-1-0.3v-0.4c0-0.1,0.9-0.3,2.8-0.7C513,180.5,513,180.5,513.1,180.5z M512.3,171.4h0.2
		c0.5,0,0.8,0.3,0.9,0.9c0,0.4-0.3,0.7-0.9,0.9c-0.6-0.1-0.9-0.4-0.9-0.9C511.6,171.7,511.9,171.4,512.3,171.4z"/>
	<path id="XMLID_128_" class="st0" d="M522.6,180.5h0.6c1.9,0,3.4,1,4.7,2.9c0.4,0.8,0.6,1.6,0.6,2.4v0.5c0,1.8-0.9,3.4-2.8,4.7
		c-0.9,0.5-1.8,0.8-2.6,0.8h-0.6c-1.9,0-3.4-1-4.6-2.9c-0.4-0.8-0.7-1.6-0.7-2.6V186c0-2,1.1-3.6,3.3-4.9
		C521.3,180.7,522,180.5,522.6,180.5z M518.9,186.1v0.5c0,3,1.3,4.5,3.8,4.5h0.3c2.5,0,3.8-1.6,3.8-4.8v-0.5c0-3.1-1.3-4.6-3.8-4.6
		h-0.1C520.2,181.1,518.9,182.8,518.9,186.1z"/>
	<path id="XMLID_131_" class="st0" d="M125.6,206.5h0.7c1.9,0,3.3,0.7,4.1,2.1c0.2,0.4,0.3,0.9,0.3,1.5c0,1.6-1.6,3.7-4.9,6.1
		c-1.7,1.4-2.9,2.5-3.5,3.1h5.9c1.1,0,1.8-0.2,2.1-0.6c0.1-0.1,0.2-0.3,0.3-0.7h0.3c0.1,0,0.1,0,0.1,0.1v2.3c0,0.1,0,0.1-0.1,0.1
		h-9.3c-0.1,0-0.1,0-0.1-0.1v-1.1c0.7-0.7,2.2-2.1,4.6-4.2c1.7-1.7,2.7-2.9,2.9-3.6c0.2-0.5,0.3-1,0.3-1.4c0-1.5-0.9-2.5-2.6-3
		c-0.3-0.1-0.6-0.1-0.8-0.1c-1.7,0-3,0.9-3.8,2.7c-0.1,0.4-0.2,0.6-0.3,0.6c-0.2,0-0.3-0.1-0.3-0.2c0.2-1.7,0.4-2.6,0.6-2.6
		C123.2,206.9,124.5,206.5,125.6,206.5z"/>
	<path id="XMLID_133_" class="st0" d="M135,218.6c0.2,0,0.4,0.1,0.6,0.3s0.3,0.4,0.3,0.6c0,0.2-0.1,0.5-0.3,0.6
		c-0.2,0.2-0.4,0.3-0.6,0.3s-0.5-0.1-0.6-0.3c-0.2-0.2-0.3-0.4-0.3-0.6c0-0.2,0.1-0.4,0.3-0.6S134.8,218.6,135,218.6z"/>
	<path id="XMLID_135_" class="st0" d="M151.9,202.7h0.7c1.4,0,2.7,0.8,4.1,2.5c1.3,1.9,2,4,2,6.3v0.6c0,2.7-0.9,5.2-2.7,7.3
		c0.7,0.5,1.4,0.8,1.9,0.8c0.4,0,0.6-0.1,0.8-0.2l0.1,0.1v0.4c0,0.1-0.2,0.1-0.6,0.2h-0.5c-0.5,0-1.1-0.3-1.9-1
		c-1.1,1-2.3,1.5-3.5,1.5h-0.5c-1.4,0-2.7-0.8-4.1-2.5c-1.3-1.9-2-4-2-6.3v-0.8c0-2.8,1-5.3,3-7.4
		C149.9,203.2,151,202.7,151.9,202.7z M147.5,212.1c0,2.1,0.2,3.8,0.7,5.1h0.1c0.9-0.3,1.6-0.4,2.2-0.4h0.4c1.4,0,2.9,0.7,4.5,2
		c1-1.5,1.6-3.8,1.6-6.9v-0.1c0-5.6-1.6-8.4-4.7-8.4C149,203.5,147.5,206.4,147.5,212.1z M148.6,218.2c0.8,1.5,1.9,2.2,3.6,2.2
		c1.2,0,2.1-0.4,2.8-1.2c-1.3-0.9-2.5-1.4-3.7-1.4h-0.5C150,217.8,149.3,217.9,148.6,218.2z"/>
	<path id="XMLID_139_" class="st0" d="M163.2,209.5l0.1,0.1v0.6c0,4.8,0.2,7.4,0.7,7.8c0.5,1.4,1.5,2,2.9,2h0.1c1.1,0,2.1-0.6,3-1.7
		v-5.3c0-0.1,0-0.5,0-1.1c0-0.6-0.3-1-1-1.1c-0.5-0.1-0.8-0.2-0.8-0.2v-0.5c0-0.1,1-0.3,2.9-0.7l0.1,0.1v8.3c0,1.3,0.5,2,1.6,2
		l0.1,0.1v0.4c0,0.1,0,0.1-0.1,0.1H170c-0.1,0-0.1,0-0.1-0.1v-1.3c-1.3,1.1-2.5,1.6-3.9,1.6h-0.5c-2.4,0-3.6-1.8-3.6-5.4l0-3.2
		c-0.1-0.9-0.4-1.4-1.1-1.4c-0.3,0-0.5-0.1-0.5-0.2v-0.5C160.3,210.1,161.3,209.9,163.2,209.5z"/>
	<path id="XMLID_141_" class="st0" d="M179.2,209.5h0.4c1.7,0,3,0.8,3.9,2.4c0.3,0.7,0.4,1.3,0.5,1.7v0.5c-0.2,0.8-0.9,1.2-2.2,1.2
		c-0.3,0-0.8,0.1-1.5,0.1h-4.6c0,2.1,0.9,3.6,2.7,4.4c0.4,0.1,0.9,0.2,1.4,0.3c1.2,0,2.2-0.5,3-1.6c0.1,0,0.3,0.1,0.7,0.2v0.1
		c-0.8,1.4-2,2.1-3.6,2.1h-0.3c-1.7,0-3.1-0.7-4.3-2.2c-0.8-1-1.2-2.2-1.2-3.4v-0.5c0-2.1,1-3.7,3-4.8
		C177.9,209.7,178.6,209.5,179.2,209.5z M175.7,214.8h5.4c1.1,0,1.6-0.4,1.6-1.3c0-1.2-0.8-2.3-2.4-3.1c-0.5-0.2-0.9-0.3-1.3-0.3
		c-1.4,0-2.5,1-3.1,3.1C175.8,214,175.7,214.5,175.7,214.8z"/>
	<path id="XMLID_144_" class="st0" d="M196.7,209.5h0.5c1.6,0,2.8,0.7,3.7,2.2c0.3,0.7,0.4,1.4,0.4,2.2c-0.1,1.2-0.1,2.4-0.1,3.8
		c0,1,0.3,1.7,0.8,2c0.5,0.2,0.8,0.3,0.8,0.3v0.4c0,0.1,0,0.1-0.1,0.1h-2.7c-0.1,0-0.1,0-0.1-0.1V219c-1.2,1.2-2.5,1.8-4,1.8h-0.5
		c-1.6,0-2.7-0.7-3.5-2c-0.1-0.3-0.1-0.5-0.1-0.7v-0.3c0-1.2,0.6-2.1,1.8-2.8c0.8-0.4,2.2-0.9,4.2-1.4c1.3-0.5,1.9-1,1.9-1.3
		c0-0.7-0.6-1.3-1.9-1.9c-0.4-0.1-0.7-0.2-0.9-0.2h-0.3c-1.2,0-2.2,0.9-3,2.8h-0.1c-0.2,0-0.5-0.2-0.9-0.7c0.3-0.9,0.8-1.6,1.6-2.1
		C195,209.7,195.9,209.5,196.7,209.5z M193.5,217.8v0.1c0,1.1,0.8,1.8,2.5,2.1h0.6c1.2,0,2.3-0.7,3.1-2.1c0.2-0.4,0.3-0.8,0.3-1.2
		v-1c0-0.6,0-1.4-0.1-2.5c0-0.1-0.1-0.1-0.1-0.2c-0.5,0.5-2,1.2-4.5,2.2C194.1,216.1,193.5,216.9,193.5,217.8z"/>
	<path id="XMLID_147_" class="st0" d="M206.5,209.5l0.1,0.1v0.6c0,4.8,0.2,7.4,0.7,7.8c0.5,1.4,1.5,2,2.9,2h0.1c1.1,0,2.1-0.6,3-1.7
		v-5.3c0-0.1,0-0.5,0-1.1c0-0.6-0.3-1-1-1.1c-0.5-0.1-0.8-0.2-0.8-0.2v-0.5c0-0.1,1-0.3,2.9-0.7l0.1,0.1v8.3c0,1.3,0.5,2,1.6,2
		l0.1,0.1v0.4c0,0.1,0,0.1-0.1,0.1h-2.7c-0.1,0-0.1,0-0.1-0.1v-1.3c-1.3,1.1-2.5,1.6-3.9,1.6h-0.5c-2.4,0-3.6-1.8-3.6-5.4l0-3.2
		c-0.1-0.9-0.4-1.4-1.1-1.4c-0.3,0-0.5-0.1-0.5-0.2v-0.5C203.6,210.1,204.6,209.9,206.5,209.5z"/>
	<path id="XMLID_149_" class="st0" d="M217.6,209.5h3.8c0.1,0,0.1,0,0.1,0.1v0.4c0,0.1-0.2,0.1-0.6,0.2c-0.1,0.1-0.1,0.2-0.1,0.3
		c0,0.3,0.5,1,1.6,2c1.2,1.3,1.8,1.9,1.8,1.9c2.1-2.2,3.2-3.4,3.2-3.6c0.1-0.5-0.1-0.7-0.8-0.8v-0.5c0-0.1,0-0.1,0.1-0.1h2.8
		c0.1,0,0.1,0,0.1,0.1v0.4c-0.5,0.3-1.2,0.8-1.9,1.5l-3.3,3.3c3.1,3.4,4.8,5,5.1,5c0.4,0.1,0.7,0.2,0.7,0.3v0.4c0,0.1,0,0.1-0.1,0.1
		h-3.8c-0.1,0-0.1,0-0.1-0.1V220c0,0,0.2-0.1,0.6-0.3l0.1-0.3c0-0.4-1.1-1.7-3.4-3.9c-2.2,2.1-3.3,3.2-3.3,3.5
		c0,0.1-0.1,0.3-0.1,0.4c0,0.2,0.3,0.3,0.8,0.4v0.5c0,0.1,0,0.1-0.1,0.1h-2.8c-0.1,0-0.1,0-0.1-0.1V220c0.5-0.3,1-0.6,1.4-1
		c0.9-0.8,2.2-2.1,3.8-3.7c-3.1-3.3-4.8-5-5.1-5c-0.5-0.2-0.8-0.3-0.8-0.3v-0.4C217.5,209.6,217.5,209.5,217.6,209.5z"/>
	<path id="XMLID_151_" class="st0" d="M234.7,209.5l0.1,0.1v2.7c0,0.2,0,2.1,0,5.5c0,1.1,0.3,1.8,0.8,2c0.3,0.1,0.6,0.2,0.8,0.2v0.4
		c0,0.1,0,0.1-0.1,0.1h-4.5c-0.1,0-0.1,0-0.1-0.1V220c0-0.1,0.3-0.1,0.9-0.2c0.5-0.1,0.8-0.5,0.8-1.4c0-0.3,0-2.2,0-5.8
		c0-0.9-0.3-1.5-0.8-1.8c-0.4-0.2-0.7-0.3-1-0.3v-0.4c0-0.1,0.9-0.3,2.8-0.7C234.6,209.5,234.6,209.5,234.7,209.5z M233.8,200.4h0.2
		c0.5,0,0.8,0.3,0.9,0.9c0,0.4-0.3,0.7-0.9,0.9c-0.6-0.1-0.9-0.4-0.9-0.9C233.2,200.7,233.5,200.4,233.8,200.4z"/>
	<path id="XMLID_154_" class="st0" d="M241.5,199.7l0.1,0.1v17.6c0,0.1,0,0.5,0.1,1c0.1,0.6,0.3,1,0.7,1.3c0.1,0.1,0.4,0.1,0.9,0.2
		v0.5c0,0.1,0,0.1-0.1,0.1h-4.5c-0.1,0-0.1,0-0.1-0.1V220c0.4,0,0.7-0.1,1.1-0.3c0.4-0.2,0.6-0.9,0.6-2.3l0.1-14.6
		c-0.1-1.2-0.7-1.8-1.7-2v-0.5C238.5,200.3,239.5,200.1,241.5,199.7z"/>
	<path id="XMLID_156_" class="st0" d="M247.8,209.5l0.1,0.1v2.7c0,0.2,0,2.1,0,5.5c0,1.1,0.3,1.8,0.8,2c0.3,0.1,0.6,0.2,0.8,0.2v0.4
		c0,0.1,0,0.1-0.1,0.1H245c-0.1,0-0.1,0-0.1-0.1V220c0-0.1,0.3-0.1,0.9-0.2c0.5-0.1,0.8-0.5,0.8-1.4c0-0.3,0-2.2,0-5.8
		c0-0.9-0.3-1.5-0.8-1.8c-0.4-0.2-0.7-0.3-1-0.3v-0.4c0-0.1,0.9-0.3,2.8-0.7C247.7,209.5,247.7,209.5,247.8,209.5z M247,200.4h0.2
		c0.5,0,0.8,0.3,0.9,0.9c0,0.4-0.3,0.7-0.9,0.9c-0.6-0.1-0.9-0.4-0.9-0.9C246.4,200.7,246.6,200.4,247,200.4z"/>
	<path id="XMLID_159_" class="st0" d="M256.3,209.5h0.5c1.6,0,2.8,0.7,3.7,2.2c0.3,0.7,0.4,1.4,0.4,2.2c-0.1,1.2-0.1,2.4-0.1,3.8
		c0,1,0.3,1.7,0.8,2c0.5,0.2,0.8,0.3,0.8,0.3v0.4c0,0.1,0,0.1-0.1,0.1h-2.7c-0.1,0-0.1,0-0.1-0.1V219c-1.2,1.2-2.5,1.8-4,1.8H255
		c-1.6,0-2.7-0.7-3.5-2c-0.1-0.3-0.1-0.5-0.1-0.7v-0.3c0-1.2,0.6-2.1,1.8-2.8c0.8-0.4,2.2-0.9,4.2-1.4c1.3-0.5,1.9-1,1.9-1.3
		c0-0.7-0.6-1.3-1.9-1.9c-0.4-0.1-0.7-0.2-0.9-0.2h-0.3c-1.2,0-2.2,0.9-3,2.8h-0.1c-0.2,0-0.5-0.2-0.9-0.7c0.3-0.9,0.8-1.6,1.6-2.1
		C254.7,209.7,255.5,209.5,256.3,209.5z M253.1,217.8v0.1c0,1.1,0.8,1.8,2.5,2.1h0.6c1.2,0,2.3-0.7,3.1-2.1c0.2-0.4,0.3-0.8,0.3-1.2
		v-1c0-0.6,0-1.4-0.1-2.5c0-0.1-0.1-0.1-0.1-0.2c-0.5,0.5-2,1.2-4.5,2.2C253.7,216.1,253.1,216.9,253.1,217.8z"/>
	<path id="XMLID_162_" class="st0" d="M265.3,220.3c-0.1,0-0.2-0.1-0.2-0.2c-0.2-0.2-0.3-0.4-0.3-0.6c0-0.2,0.1-0.4,0.3-0.6
		c0.2-0.2,0.4-0.3,0.6-0.3c0.2,0,0.4,0.1,0.6,0.3s0.3,0.4,0.3,0.6c0,0.1,0,0.1,0,0.2v0c0,0.9-0.9,2-2.6,3.3c0,0-0.1,0-0.1,0
		s-0.1,0-0.1,0c0,0-0.1,0-0.2-0.1c0-0.1,0-0.2,0-0.2c0,0,0.3-0.3,0.9-0.7C265,221.5,265.3,221,265.3,220.3z M265.7,211.4
		c0.2,0,0.4,0.1,0.6,0.3s0.3,0.4,0.3,0.6c0,0.2-0.1,0.5-0.3,0.6c-0.2,0.2-0.4,0.3-0.6,0.3s-0.5-0.1-0.6-0.3
		c-0.2-0.2-0.3-0.4-0.3-0.6s0.1-0.5,0.3-0.6C265.3,211.5,265.5,211.4,265.7,211.4z"/>
	<path id="XMLID_165_" class="st0" d="M281.1,209.6h0.4c1.4,0,2.7,0.6,3.8,1.9c0.3-0.8,0.5-1.4,0.6-1.9h0.5c0.1,0,0.1,0,0.1,0.1v15
		c0,0.7,0.3,1.2,0.8,1.5c0.6,0.1,0.9,0.1,0.9,0.2v0.4c0,0.1,0,0.1-0.1,0.1h-4.5c-0.1,0-0.1,0-0.1-0.1v-0.4c0,0,0.3-0.1,1-0.3
		c0.5-0.3,0.7-0.9,0.7-1.8v-5.2c-1.1,1.2-2.4,1.8-3.8,1.8c-2.1,0-3.7-1.1-4.8-3.3c-0.3-0.7-0.5-1.5-0.5-2.2v-0.5
		c0-1.9,0.9-3.5,2.7-4.7C279.6,209.8,280.4,209.6,281.1,209.6z M277.9,215.2c0,3.3,1.3,5,3.8,5c1.5,0,2.5-0.6,3-1.7
		c0.3-0.7,0.5-1.8,0.5-3.1c0-2.4-0.5-4-1.5-4.7c-0.6-0.3-1.3-0.5-2-0.5h-0.1C279.1,210.2,277.9,211.8,277.9,215.2z"/>
	<path id="XMLID_168_" class="st0" d="M292.4,209.5l0.1,0.1v0.6c0,4.8,0.2,7.4,0.7,7.8c0.5,1.4,1.5,2,2.9,2h0.1c1.1,0,2.1-0.6,3-1.7
		v-5.3c0-0.1,0-0.5,0-1.1c0-0.6-0.3-1-1-1.1c-0.5-0.1-0.8-0.2-0.8-0.2v-0.5c0-0.1,1-0.3,2.9-0.7l0.1,0.1v8.3c0,1.3,0.5,2,1.6,2
		l0.1,0.1v0.4c0,0.1,0,0.1-0.1,0.1h-2.7c-0.1,0-0.1,0-0.1-0.1v-1.3c-1.3,1.1-2.5,1.6-3.9,1.6h-0.5c-2.4,0-3.6-1.8-3.6-5.4l0-3.2
		c-0.1-0.9-0.4-1.4-1.1-1.4c-0.3,0-0.5-0.1-0.5-0.2v-0.5C289.5,210.1,290.4,209.9,292.4,209.5z"/>
	<path id="XMLID_170_" class="st0" d="M308.4,209.5h0.4c1.7,0,3,0.8,3.9,2.4c0.3,0.7,0.4,1.3,0.5,1.7v0.5c-0.2,0.8-0.9,1.2-2.2,1.2
		c-0.3,0-0.8,0.1-1.5,0.1h-4.6c0,2.1,0.9,3.6,2.7,4.4c0.4,0.1,0.9,0.2,1.4,0.3c1.2,0,2.2-0.5,3-1.6c0.1,0,0.3,0.1,0.7,0.2v0.1
		c-0.8,1.4-2,2.1-3.6,2.1h-0.3c-1.7,0-3.1-0.7-4.3-2.2c-0.8-1-1.2-2.2-1.2-3.4v-0.5c0-2.1,1-3.7,3-4.8
		C307.1,209.7,307.8,209.5,308.4,209.5z M304.9,214.8h5.4c1.1,0,1.6-0.4,1.6-1.3c0-1.2-0.8-2.3-2.4-3.1c-0.5-0.2-0.9-0.3-1.3-0.3
		c-1.4,0-2.5,1-3.1,3.1C305,214,304.9,214.5,304.9,214.8z"/>
	<path id="XMLID_173_" class="st0" d="M332,199.1l0.1,0.1v19.1c0.1,0.9,0.4,1.4,0.9,1.4c0.5,0.1,0.8,0.2,0.8,0.3v0.4
		c0,0.1,0,0.1-0.1,0.1h-2.7c-0.1,0-0.1,0-0.1-0.1v-1.3c-1.1,1.1-2.3,1.7-3.6,1.7h-0.4c-2,0-3.5-1.1-4.7-3.4
		c-0.3-0.8-0.4-1.5-0.4-2.1v-0.5c0-1.9,0.9-3.4,2.6-4.6c0.9-0.5,1.7-0.8,2.6-0.8c1.4,0,2.7,0.6,3.9,1.8v-9c0-0.9-0.2-1.5-0.6-1.7
		c-0.2-0.1-0.6-0.2-1.2-0.3v-0.5C329,199.7,330,199.5,332,199.1z M323.4,214.6v1c0,2.2,0.7,3.6,2.2,4.2c0.5,0.2,1,0.3,1.5,0.3h0.3
		c2.2,0,3.4-1.5,3.4-4.5v-0.4c0-2.3-0.5-3.9-1.6-4.6c-0.6-0.3-1.2-0.5-1.9-0.5H327c-1.9,0-3,1-3.5,3
		C323.5,213.6,323.4,214.1,323.4,214.6z"/>
	<path id="XMLID_176_" class="st0" d="M339.5,209.5h0.5c1.6,0,2.8,0.7,3.7,2.2c0.3,0.7,0.4,1.4,0.4,2.2c-0.1,1.2-0.1,2.4-0.1,3.8
		c0,1,0.3,1.7,0.8,2c0.5,0.2,0.8,0.3,0.8,0.3v0.4c0,0.1,0,0.1-0.1,0.1h-2.7c-0.1,0-0.1,0-0.1-0.1V219c-1.2,1.2-2.5,1.8-4,1.8h-0.5
		c-1.6,0-2.7-0.7-3.5-2c-0.1-0.3-0.1-0.5-0.1-0.7v-0.3c0-1.2,0.6-2.1,1.8-2.8c0.8-0.4,2.2-0.9,4.2-1.4c1.3-0.5,1.9-1,1.9-1.3
		c0-0.7-0.6-1.3-1.9-1.9c-0.4-0.1-0.7-0.2-0.9-0.2h-0.3c-1.2,0-2.2,0.9-3,2.8h-0.1c-0.2,0-0.5-0.2-0.9-0.7c0.3-0.9,0.8-1.6,1.6-2.1
		C337.8,209.7,338.6,209.5,339.5,209.5z M336.3,217.8v0.1c0,1.1,0.8,1.8,2.5,2.1h0.6c1.2,0,2.3-0.7,3.1-2.1c0.2-0.4,0.3-0.8,0.3-1.2
		v-1c0-0.6,0-1.4-0.1-2.5c0-0.1-0.1-0.1-0.1-0.2c-0.5,0.5-2,1.2-4.5,2.2C336.9,216.1,336.3,216.9,336.3,217.8z M341.5,201.6h0.2
		c0.5,0.1,0.8,0.4,0.8,0.8v0.2c0,0.3-0.6,0.9-1.8,1.9c-0.7,0.7-1.2,1.1-1.3,1.1h-0.3c-0.1,0-0.2-0.1-0.4-0.4v-0.3
		c0-0.2,0.8-1.3,2.4-3.3L341.5,201.6z"/>
	<path id="XMLID_180_" class="st0" d="M358.9,209.5h0.6c1.9,0,3.4,1,4.7,2.9c0.4,0.8,0.6,1.6,0.6,2.4v0.5c0,1.8-0.9,3.4-2.8,4.7
		c-0.9,0.5-1.8,0.8-2.6,0.8h-0.6c-1.9,0-3.4-1-4.6-2.9c-0.4-0.8-0.7-1.6-0.7-2.6V215c0-2,1.1-3.6,3.3-4.9
		C357.5,209.7,358.3,209.5,358.9,209.5z M355.2,215.1v0.5c0,3,1.3,4.5,3.8,4.5h0.3c2.5,0,3.8-1.6,3.8-4.8v-0.5
		c0-3.1-1.3-4.6-3.8-4.6h-0.1C356.5,210.1,355.2,211.8,355.2,215.1z"/>
	<path id="XMLID_183_" class="st0" d="M369,209.5l0.1,0.1v0.6c0,4.8,0.2,7.4,0.7,7.8c0.5,1.4,1.5,2,2.9,2h0.1c1.1,0,2.1-0.6,3-1.7
		v-5.3c0-0.1,0-0.5,0-1.1c0-0.6-0.3-1-1-1.1c-0.5-0.1-0.8-0.2-0.8-0.2v-0.5c0-0.1,1-0.3,2.9-0.7l0.1,0.1v8.3c0,1.3,0.5,2,1.6,2
		l0.1,0.1v0.4c0,0.1,0,0.1-0.1,0.1h-2.7c-0.1,0-0.1,0-0.1-0.1v-1.3c-1.3,1.1-2.5,1.6-3.9,1.6h-0.5c-2.4,0-3.6-1.8-3.6-5.4l0-3.2
		c-0.1-0.9-0.4-1.4-1.1-1.4c-0.3,0-0.5-0.1-0.5-0.2v-0.5C366.1,210.1,367.1,209.9,369,209.5z"/>
	<path id="XMLID_185_" class="st0" d="M389.4,209.6l0.1,0.1v1.7c1.2-1.2,2.5-1.8,3.8-1.8h0.4c1.8,0,3.3,1,4.5,3
		c0.3,0.9,0.5,1.6,0.5,2.3v0.5c0,2-0.9,3.6-2.8,4.8c-0.8,0.5-1.7,0.7-2.5,0.7c-1.4,0-2.7-0.6-3.8-1.8v4.9c0,1.2,0.2,1.9,0.7,2
		c0.3,0.1,0.7,0.2,1.1,0.3v0.5c0,0.1,0,0.1-0.1,0.1h-4.5c-0.1,0-0.1,0-0.1-0.1v-0.4c0-0.1,0.3-0.1,1-0.3c0.4-0.3,0.7-0.8,0.7-1.4
		v-12.4c-0.1-0.9-0.4-1.4-1-1.4c-0.4-0.1-0.7-0.2-0.7-0.2v-0.5C386.5,210.2,387.4,209.9,389.4,209.6z M389.5,215.4
		c0,2.2,0.5,3.5,1.4,4.2c0.6,0.4,1.3,0.6,2,0.6c2.6,0,3.9-1.6,3.9-4.9c0-3.4-1.3-5-3.8-5c-1.7,0-2.8,0.8-3.3,2.4
		C389.6,213.5,389.5,214.4,389.5,215.4z"/>
	<path id="XMLID_188_" class="st0" d="M403.4,209.5l0.1,0.1v2.4h0.1c0.8-1.5,1.8-2.3,2.9-2.3c0.9,0.1,1.4,0.3,1.4,0.5
		c-0.2,0.9-0.4,1.4-0.5,1.4c-0.5-0.4-1-0.6-1.5-0.6h-0.2c-0.8,0-1.5,0.6-2,1.8c-0.2,0.5-0.3,2.2-0.4,5.2c0,0.9,0.3,1.5,0.8,1.8
		c0.3,0.1,0.7,0.2,1,0.2v0.5c0,0.1,0,0.1-0.1,0.1h-4.5c-0.1,0-0.1,0-0.1-0.1V220c0-0.1,0.3-0.1,0.9-0.2c0.5-0.2,0.8-0.7,0.8-1.6
		l0.1-5.5c-0.1-1.2-0.4-1.8-0.9-1.8c0-0.1-0.3-0.1-0.9-0.2v-0.5C400.4,210.1,401.4,209.9,403.4,209.5z"/>
	<path id="XMLID_190_" class="st0" d="M414.4,209.5h0.4c1.7,0,3,0.8,3.9,2.4c0.3,0.7,0.4,1.3,0.5,1.7v0.5c-0.2,0.8-0.9,1.2-2.2,1.2
		c-0.3,0-0.8,0.1-1.5,0.1h-4.6c0,2.1,0.9,3.6,2.7,4.4c0.4,0.1,0.9,0.2,1.4,0.3c1.2,0,2.2-0.5,3-1.6c0.1,0,0.3,0.1,0.7,0.2v0.1
		c-0.8,1.4-2,2.1-3.6,2.1h-0.3c-1.7,0-3.1-0.7-4.3-2.2c-0.8-1-1.2-2.2-1.2-3.4v-0.5c0-2.1,1-3.7,3-4.8
		C413,209.7,413.7,209.5,414.4,209.5z M410.9,214.8h5.4c1.1,0,1.6-0.4,1.6-1.3c0-1.2-0.8-2.3-2.4-3.1c-0.5-0.2-0.9-0.3-1.3-0.3
		c-1.4,0-2.5,1-3.1,3.1C411,214,410.9,214.5,410.9,214.8z"/>
	<path id="XMLID_193_" class="st0" d="M425.1,209.5h0.3c0.7,0,1.5,0.2,2.5,0.7c0.2,0,0.3-0.2,0.4-0.6c0.2,0,0.4,0,0.6-0.1
		c0.1,0.1,0.2,1.1,0.5,3c-0.1,0.1-0.3,0.1-0.6,0.2c-0.4-1.1-0.9-1.8-1.7-2.2c-0.7-0.3-1.3-0.4-1.9-0.4c-1.1,0-1.8,0.4-2,1.3
		c0,0.1,0,0.2-0.1,0.4c0,0.9,1,1.5,3.1,1.9c2.3,0.8,3.5,1.9,3.5,3.2v0.5c0,1.4-0.9,2.4-2.7,3.1c-0.4,0.1-0.8,0.2-1.1,0.2h-0.6
		c-0.8,0-1.7-0.4-2.7-1.1h-0.3c0,0-0.1,0.2-0.3,0.5h-0.5c-0.1,0-0.1,0-0.1-0.1v-2.9c0-0.1,0-0.1,0.1-0.1h0.5c0,0,0.2,0.4,0.4,1.1
		c0.7,1.2,1.7,1.8,2.9,1.8h0.2c1.3,0,2.3-0.5,2.8-1.6c0.1-0.3,0.1-0.5,0.1-0.7v-0.1c0-1-0.9-1.7-2.6-2c-2.8-0.8-4.2-1.9-4.2-3.4
		c0-0.9,0.5-1.6,1.5-2.3C423.6,209.7,424.3,209.5,425.1,209.5z"/>
	<path id="XMLID_195_" class="st0" d="M434,204.7h0.5c0.1,0,0.1,0,0.1,0.1v3.7h2.4c0.1,0,0.1,0,0.1,0.1v0.6c0,0.1,0,0.1-0.1,0.1
		h-2.4v7.3c0,1.7,0.9,2.8,2.7,3.4c0.7,0,1,0.2,1,0.6l-0.1,0.1h-0.7c-1.5,0-2.7-0.6-3.6-1.7c-0.4-0.6-0.7-1.8-0.7-3.6v-6h-1.6
		c-0.1,0-0.1,0-0.1-0.1v-0.4c0,0,0.3-0.1,0.8-0.3c1-0.9,1.5-2.1,1.5-3.6v-0.1C433.9,204.7,433.9,204.7,434,204.7z"/>
	<path id="XMLID_197_" class="st0" d="M443.8,209.5h0.5c1.6,0,2.8,0.7,3.7,2.2c0.3,0.7,0.4,1.4,0.4,2.2c-0.1,1.2-0.1,2.4-0.1,3.8
		c0,1,0.3,1.7,0.8,2c0.5,0.2,0.8,0.3,0.8,0.3v0.4c0,0.1,0,0.1-0.1,0.1H447c-0.1,0-0.1,0-0.1-0.1V219c-1.2,1.2-2.5,1.8-4,1.8h-0.5
		c-1.6,0-2.7-0.7-3.5-2c-0.1-0.3-0.1-0.5-0.1-0.7v-0.3c0-1.2,0.6-2.1,1.8-2.8c0.8-0.4,2.2-0.9,4.2-1.4c1.3-0.5,1.9-1,1.9-1.3
		c0-0.7-0.6-1.3-1.9-1.9c-0.4-0.1-0.7-0.2-0.9-0.2h-0.3c-1.2,0-2.2,0.9-3,2.8h-0.1c-0.2,0-0.5-0.2-0.9-0.7c0.3-0.9,0.8-1.6,1.6-2.1
		C442.1,209.7,443,209.5,443.8,209.5z M440.6,217.8v0.1c0,1.1,0.8,1.8,2.5,2.1h0.6c1.2,0,2.3-0.7,3.1-2.1c0.2-0.4,0.3-0.8,0.3-1.2
		v-1c0-0.6,0-1.4-0.1-2.5c0-0.1-0.1-0.1-0.1-0.2c-0.5,0.5-2,1.2-4.5,2.2C441.2,216.1,440.6,216.9,440.6,217.8z"/>
	<path id="XMLID_200_" class="st0" d="M462.1,209.5h0.5c1.6,0,2.8,0.7,3.7,2.2c0.3,0.7,0.4,1.4,0.4,2.2c-0.1,1.2-0.1,2.4-0.1,3.8
		c0,1,0.3,1.7,0.8,2c0.5,0.2,0.8,0.3,0.8,0.3v0.4c0,0.1,0,0.1-0.1,0.1h-2.7c-0.1,0-0.1,0-0.1-0.1V219c-1.2,1.2-2.5,1.8-4,1.8h-0.5
		c-1.6,0-2.7-0.7-3.5-2c-0.1-0.3-0.1-0.5-0.1-0.7v-0.3c0-1.2,0.6-2.1,1.8-2.8c0.8-0.4,2.2-0.9,4.2-1.4c1.3-0.5,1.9-1,1.9-1.3
		c0-0.7-0.6-1.3-1.9-1.9c-0.4-0.1-0.7-0.2-0.9-0.2H462c-1.2,0-2.2,0.9-3,2.8h-0.1c-0.2,0-0.5-0.2-0.9-0.7c0.3-0.9,0.8-1.6,1.6-2.1
		C460.5,209.7,461.3,209.5,462.1,209.5z M458.9,217.8v0.1c0,1.1,0.8,1.8,2.5,2.1h0.6c1.2,0,2.3-0.7,3.1-2.1c0.2-0.4,0.3-0.8,0.3-1.2
		v-1c0-0.6,0-1.4-0.1-2.5c0-0.1-0.1-0.1-0.1-0.2c-0.5,0.5-2,1.2-4.5,2.2C459.5,216.1,458.9,216.9,458.9,217.8z"/>
	<path id="XMLID_203_" class="st0" d="M472,209.5l0.1,0.1v0.6c0,4.8,0.2,7.4,0.7,7.8c0.5,1.4,1.5,2,2.9,2h0.1c1.1,0,2.1-0.6,3-1.7
		v-5.3c0-0.1,0-0.5,0-1.1c0-0.6-0.3-1-1-1.1c-0.5-0.1-0.8-0.2-0.8-0.2v-0.5c0-0.1,1-0.3,2.9-0.7l0.1,0.1v8.3c0,1.3,0.5,2,1.6,2
		l0.1,0.1v0.4c0,0.1,0,0.1-0.1,0.1h-2.7c-0.1,0-0.1,0-0.1-0.1v-1.3c-1.3,1.1-2.5,1.6-3.9,1.6h-0.5c-2.4,0-3.6-1.8-3.6-5.4l0-3.2
		c-0.1-0.9-0.4-1.4-1.1-1.4c-0.3,0-0.5-0.1-0.5-0.2v-0.5C469.1,210.1,470,209.9,472,209.5z"/>
	<path id="XMLID_205_" class="st0" d="M483,209.5h3.8c0.1,0,0.1,0,0.1,0.1v0.4c0,0.1-0.2,0.1-0.6,0.2c-0.1,0.1-0.1,0.2-0.1,0.3
		c0,0.3,0.5,1,1.6,2c1.2,1.3,1.8,1.9,1.8,1.9c2.1-2.2,3.2-3.4,3.2-3.6c0.1-0.5-0.1-0.7-0.8-0.8v-0.5c0-0.1,0-0.1,0.1-0.1h2.8
		c0.1,0,0.1,0,0.1,0.1v0.4c-0.5,0.3-1.2,0.8-1.9,1.5l-3.3,3.3c3.1,3.4,4.8,5,5.1,5c0.4,0.1,0.7,0.2,0.7,0.3v0.4c0,0.1,0,0.1-0.1,0.1
		h-3.8c-0.1,0-0.1,0-0.1-0.1V220c0,0,0.2-0.1,0.6-0.3l0.1-0.3c0-0.4-1.1-1.7-3.4-3.9c-2.2,2.1-3.3,3.2-3.3,3.5
		c0,0.1-0.1,0.3-0.1,0.4c0,0.2,0.3,0.3,0.8,0.4v0.5c0,0.1,0,0.1-0.1,0.1h-2.8c-0.1,0-0.1,0-0.1-0.1V220c0.5-0.3,1-0.6,1.4-1
		c0.9-0.8,2.2-2.1,3.8-3.7c-3.1-3.3-4.8-5-5.1-5c-0.5-0.2-0.8-0.3-0.8-0.3v-0.4C482.9,209.6,483,209.5,483,209.5z"/>
	<path id="XMLID_207_" class="st0" d="M500.2,209.5l0.1,0.1v2.7c0,0.2,0,2.1,0,5.5c0,1.1,0.3,1.8,0.8,2c0.3,0.1,0.6,0.2,0.8,0.2v0.4
		c0,0.1,0,0.1-0.1,0.1h-4.5c-0.1,0-0.1,0-0.1-0.1V220c0-0.1,0.3-0.1,0.9-0.2c0.5-0.1,0.8-0.5,0.8-1.4c0-0.3,0-2.2,0-5.8
		c0-0.9-0.3-1.5-0.8-1.8c-0.4-0.2-0.7-0.3-1-0.3v-0.4c0-0.1,0.9-0.3,2.8-0.7C500.1,209.5,500.2,209.5,500.2,209.5z M500.6,201.6h0.2
		c0.5,0.1,0.8,0.4,0.8,0.8v0.2c0,0.3-0.6,0.9-1.8,1.9c-0.7,0.7-1.2,1.1-1.3,1.1h-0.3c-0.1,0-0.2-0.1-0.4-0.4v-0.3
		c0-0.2,0.8-1.3,2.4-3.3L500.6,201.6z"/>
	<path id="XMLID_210_" class="st0" d="M506.9,199.7l0.1,0.1v17.6c0,0.1,0,0.5,0.1,1c0.1,0.6,0.3,1,0.7,1.3c0.1,0.1,0.4,0.1,0.9,0.2
		v0.5c0,0.1,0,0.1-0.1,0.1h-4.5c-0.1,0-0.1,0-0.1-0.1V220c0.4,0,0.7-0.1,1.1-0.3c0.4-0.2,0.6-0.9,0.6-2.3l0.1-14.6
		c-0.1-1.2-0.7-1.8-1.7-2v-0.5C504,200.3,505,200.1,506.9,199.7z"/>
	<path id="XMLID_212_" class="st0" d="M513.2,209.5l0.1,0.1v2.7c0,0.2,0,2.1,0,5.5c0,1.1,0.3,1.8,0.8,2c0.3,0.1,0.6,0.2,0.8,0.2v0.4
		c0,0.1,0,0.1-0.1,0.1h-4.5c-0.1,0-0.1,0-0.1-0.1V220c0-0.1,0.3-0.1,0.9-0.2c0.5-0.1,0.8-0.5,0.8-1.4c0-0.3,0-2.2,0-5.8
		c0-0.9-0.3-1.5-0.8-1.8c-0.4-0.2-0.7-0.3-1-0.3v-0.4c0-0.1,0.9-0.3,2.8-0.7C513.1,209.5,513.2,209.5,513.2,209.5z M512.4,200.4h0.2
		c0.5,0,0.8,0.3,0.9,0.9c0,0.4-0.3,0.7-0.9,0.9c-0.6-0.1-0.9-0.4-0.9-0.9C511.8,200.7,512.1,200.4,512.4,200.4z"/>
	<path id="XMLID_215_" class="st0" d="M522.8,209.5h0.6c1.9,0,3.4,1,4.7,2.9c0.4,0.8,0.6,1.6,0.6,2.4v0.5c0,1.8-0.9,3.4-2.8,4.7
		c-0.9,0.5-1.8,0.8-2.6,0.8h-0.6c-1.9,0-3.4-1-4.6-2.9c-0.4-0.8-0.7-1.6-0.7-2.6V215c0-2,1.1-3.6,3.3-4.9
		C521.5,209.7,522.2,209.5,522.8,209.5z M519.1,215.1v0.5c0,3,1.3,4.5,3.8,4.5h0.3c2.5,0,3.8-1.6,3.8-4.8v-0.5
		c0-3.1-1.3-4.6-3.8-4.6H523C520.4,210.1,519.1,211.8,519.1,215.1z"/>
	<path id="XMLID_218_" class="st0" d="M531.3,218.6c0.2,0,0.4,0.1,0.6,0.3s0.3,0.4,0.3,0.6c0,0.2-0.1,0.5-0.3,0.6
		c-0.2,0.2-0.4,0.3-0.6,0.3s-0.5-0.1-0.6-0.3c-0.2-0.2-0.3-0.4-0.3-0.6c0-0.2,0.1-0.4,0.3-0.6C530.9,218.7,531.1,218.6,531.3,218.6z
		 M531.6,189.5c0.2,0,0.4,0.1,0.6,0.3s0.3,0.4,0.3,0.6c0,0.2-0.1,0.5-0.3,0.6c-0.2,0.2-0.4,0.3-0.6,0.3s-0.5-0.1-0.6-0.3
		c-0.2-0.2-0.3-0.4-0.3-0.6c0-0.2,0.1-0.4,0.3-0.6C531.1,189.6,531.3,189.5,531.6,189.5z"/>
	<path id="XMLID_220_" class="st0" d="M209.4,235.3h0.7c1.2,0,2.3,0.5,3.1,1.4c0.4,0.5,0.7,1.2,0.7,1.9c0,1.2-0.6,2.2-1.8,2.9
		c1.6,1.1,2.4,2.3,2.4,3.5v0.5c0,1.4-0.9,2.6-2.8,3.7c-0.7,0.2-1.3,0.4-1.8,0.4h-0.5c-1.3,0-2.6-0.5-3.9-1.4
		c-0.2-1.7-0.4-2.6-0.4-2.8l0.1-0.1h0.3c0.4,1.4,1,2.4,1.9,2.9c0.8,0.5,1.4,0.8,1.9,0.8h0.3c1.2,0,2.3-0.7,3.1-2.1
		c0.2-0.3,0.4-0.8,0.5-1.5l-0.1-0.1v-0.2c0-1.3-0.9-2.1-2.8-2.5c-0.4,0-0.7-0.1-1-0.1h-0.3c-0.1,0-0.2-0.1-0.2-0.3v-0.1
		c0-0.1,0.4-0.2,1.1-0.4c1.7-0.7,2.5-1.7,2.5-3.2c0-1.2-0.8-2.1-2.3-2.6c-0.2,0-0.4-0.1-0.6-0.1h-0.4c-1,0-1.9,0.5-2.7,1.5
		c-0.3,0.5-0.5,0.9-0.6,1.3l-0.1,0.1h-0.2l-0.1-0.1c0.2-1.6,0.4-2.3,0.5-2.3C207.4,235.6,208.5,235.3,209.4,235.3z"/>
	<path id="XMLID_222_" class="st0" d="M218.6,247.6c0.2,0,0.4,0.1,0.6,0.3s0.3,0.4,0.3,0.6c0,0.2-0.1,0.5-0.3,0.6
		c-0.2,0.2-0.4,0.3-0.6,0.3s-0.5-0.1-0.6-0.3c-0.2-0.2-0.3-0.4-0.3-0.6c0-0.2,0.1-0.4,0.3-0.6S218.4,247.6,218.6,247.6z"/>
	<path id="XMLID_224_" class="st0" d="M235.6,231.7h0.7c1.4,0,2.7,0.8,4.1,2.5c1.3,1.9,2,4,2,6.3v0.6c0,2.7-0.9,5.2-2.7,7.3
		c0.7,0.5,1.4,0.8,1.9,0.8c0.4,0,0.6-0.1,0.8-0.2l0.1,0.1v0.4c0,0.1-0.2,0.1-0.6,0.2h-0.5c-0.5,0-1.1-0.3-1.9-1
		c-1.1,1-2.3,1.5-3.5,1.5h-0.5c-1.4,0-2.7-0.8-4.1-2.5c-1.3-1.9-2-4-2-6.3v-0.8c0-2.8,1-5.3,3-7.4
		C233.5,232.2,234.6,231.7,235.6,231.7z M231.1,241.1c0,2.1,0.2,3.8,0.7,5.1h0.1c0.9-0.3,1.6-0.4,2.2-0.4h0.4c1.4,0,2.9,0.7,4.5,2
		c1-1.5,1.6-3.8,1.6-6.9v-0.1c0-5.6-1.6-8.4-4.7-8.4C232.6,232.5,231.1,235.4,231.1,241.1z M232.2,247.2c0.8,1.5,1.9,2.2,3.6,2.2
		c1.2,0,2.1-0.4,2.8-1.2c-1.3-0.9-2.5-1.4-3.7-1.4h-0.5C233.7,246.8,232.9,246.9,232.2,247.2z"/>
	<path id="XMLID_228_" class="st0" d="M246.8,238.5l0.1,0.1v0.6c0,4.8,0.2,7.4,0.7,7.8c0.5,1.4,1.5,2,2.9,2h0.1c1.1,0,2.1-0.6,3-1.7
		v-5.3c0-0.1,0-0.5,0-1.1c0-0.6-0.3-1-1-1.1c-0.5-0.1-0.8-0.2-0.8-0.2v-0.5c0-0.1,1-0.3,2.9-0.7l0.1,0.1v8.3c0,1.3,0.5,2,1.6,2
		l0.1,0.1v0.4c0,0.1,0,0.1-0.1,0.1h-2.7c-0.1,0-0.1,0-0.1-0.1v-1.3c-1.3,1.1-2.5,1.6-3.9,1.6h-0.5c-2.4,0-3.6-1.8-3.6-5.4l0-3.2
		c-0.1-0.9-0.4-1.4-1.1-1.4c-0.3,0-0.5-0.1-0.5-0.2v-0.5C243.9,239.1,244.9,238.9,246.8,238.5z"/>
	<path id="XMLID_230_" class="st0" d="M262.9,238.5h0.4c1.7,0,3,0.8,3.9,2.4c0.3,0.7,0.4,1.3,0.5,1.7v0.5c-0.2,0.8-0.9,1.2-2.2,1.2
		c-0.3,0-0.8,0.1-1.5,0.1h-4.6c0,2.1,0.9,3.6,2.7,4.4c0.4,0.1,0.9,0.2,1.4,0.3c1.2,0,2.2-0.5,3-1.6c0.1,0,0.3,0.1,0.7,0.2v0.1
		c-0.8,1.4-2,2.1-3.6,2.1h-0.3c-1.7,0-3.1-0.7-4.3-2.2c-0.8-1-1.2-2.2-1.2-3.4v-0.5c0-2.1,1-3.7,3-4.8
		C261.5,238.7,262.2,238.5,262.9,238.5z M259.4,243.8h5.4c1.1,0,1.6-0.4,1.6-1.3c0-1.2-0.8-2.3-2.4-3.1c-0.5-0.2-0.9-0.3-1.3-0.3
		c-1.4,0-2.5,1-3.1,3.1C259.5,243,259.4,243.5,259.4,243.8z"/>
	<path id="XMLID_233_" class="st0" d="M278.5,233.7h0.5c0.1,0,0.1,0,0.1,0.1v3.7h2.4c0.1,0,0.1,0,0.1,0.1v0.6c0,0.1,0,0.1-0.1,0.1
		h-2.4v7.3c0,1.7,0.9,2.8,2.7,3.4c0.7,0,1,0.2,1,0.6l-0.1,0.1H282c-1.5,0-2.7-0.6-3.6-1.7c-0.4-0.6-0.7-1.8-0.7-3.6v-6h-1.6
		c-0.1,0-0.1,0-0.1-0.1v-0.4c0,0,0.3-0.1,0.8-0.3c1-0.9,1.5-2.1,1.5-3.6v-0.1C278.4,233.7,278.5,233.7,278.5,233.7z"/>
	<path id="XMLID_235_" class="st0" d="M289,238.5h0.4c1.7,0,3,0.8,3.9,2.4c0.3,0.7,0.4,1.3,0.5,1.7v0.5c-0.2,0.8-0.9,1.2-2.2,1.2
		c-0.3,0-0.8,0.1-1.5,0.1h-4.6c0,2.1,0.9,3.6,2.7,4.4c0.4,0.1,0.9,0.2,1.4,0.3c1.2,0,2.2-0.5,3-1.6c0.1,0,0.3,0.1,0.7,0.2v0.1
		c-0.8,1.4-2,2.1-3.6,2.1h-0.3c-1.7,0-3.1-0.7-4.3-2.2c-0.8-1-1.2-2.2-1.2-3.4v-0.5c0-2.1,1-3.7,3-4.8
		C287.6,238.7,288.3,238.5,289,238.5z M285.5,243.8h5.4c1.1,0,1.6-0.4,1.6-1.3c0-1.2-0.8-2.3-2.4-3.1c-0.5-0.2-0.9-0.3-1.3-0.3
		c-1.4,0-2.5,1-3.1,3.1C285.5,243,285.5,243.5,285.5,243.8z"/>
	<path id="XMLID_238_" class="st0" d="M298.3,238.5l0.1,0.1v1.5c1.3-1,2.5-1.6,3.8-1.6h0.5c1.4,0,2.4,0.6,3,1.7h0.1
		c1.2-1.1,2.5-1.7,3.9-1.7h0.6c2.4,0,3.6,1.8,3.6,5.4c0,0.8-0.1,1.7-0.1,2.5c0,0.2,0,0.4-0.1,0.7c0.1,1.2,0.4,1.8,1,1.8
		c0.5,0.1,0.7,0.2,0.7,0.2v0.4c0,0.1,0,0.1-0.1,0.1h-4.5c-0.1,0-0.1,0-0.1-0.1V249c0,0,0.4-0.1,1.1-0.3c0.4-0.3,0.7-0.8,0.7-1.4
		v-1.9c0-3.3-0.7-5.2-2.1-5.9c-0.4-0.2-0.9-0.3-1.3-0.3c-1.2,0-2,0.6-2.5,1.9c-0.2,0.5-0.3,1.3-0.3,2.4c0,1.7,0.1,2.9,0.1,3.7
		c0.1,1.1,0.4,1.6,1,1.6c0.5,0.1,0.8,0.2,0.8,0.2v0.4c0,0.1,0,0.1-0.1,0.1h-4.5c-0.1,0-0.1,0-0.1-0.1V249c0-0.1,0.3-0.1,0.9-0.2
		c0.6-0.2,0.9-0.8,0.9-1.8v-1.4c0-3.3-0.7-5.3-2-6c-0.5-0.2-1-0.4-1.6-0.4h-0.1c-1.1,0-2.1,0.5-2.9,1.6v6.5c0,0.7,0.2,1.2,0.7,1.4
		c0.7,0.1,1,0.2,1,0.3v0.4c0,0.1,0,0.1-0.1,0.1h-4.5c-0.1,0-0.1,0-0.1-0.1V249c0-0.1,0.3-0.1,1-0.3c0.5-0.3,0.7-0.9,0.7-1.7v-5.4
		c0-1.3-0.4-1.9-1.3-1.9h-0.3c-0.1,0-0.1,0-0.1-0.1v-0.5C295.4,239.1,296.4,238.9,298.3,238.5z"/>
	<path id="XMLID_240_" class="st0" d="M326.5,238.5l0.1,0.1v1.5c1.3-1,2.5-1.6,3.8-1.6h0.5c1.4,0,2.4,0.6,3,1.7h0.1
		c1.2-1.1,2.5-1.7,3.9-1.7h0.6c2.4,0,3.6,1.8,3.6,5.4c0,0.8-0.1,1.7-0.1,2.5c0,0.2,0,0.4-0.1,0.7c0.1,1.2,0.4,1.8,1,1.8
		c0.5,0.1,0.7,0.2,0.7,0.2v0.4c0,0.1,0,0.1-0.1,0.1h-4.5c-0.1,0-0.1,0-0.1-0.1V249c0,0,0.4-0.1,1.1-0.3c0.4-0.3,0.7-0.8,0.7-1.4
		v-1.9c0-3.3-0.7-5.2-2.1-5.9c-0.4-0.2-0.9-0.3-1.3-0.3c-1.2,0-2,0.6-2.5,1.9c-0.2,0.5-0.3,1.3-0.3,2.4c0,1.7,0.1,2.9,0.1,3.7
		c0.1,1.1,0.4,1.6,1,1.6c0.5,0.1,0.8,0.2,0.8,0.2v0.4c0,0.1,0,0.1-0.1,0.1h-4.5c-0.1,0-0.1,0-0.1-0.1V249c0-0.1,0.3-0.1,0.9-0.2
		c0.6-0.2,0.9-0.8,0.9-1.8v-1.4c0-3.3-0.7-5.3-2-6c-0.5-0.2-1-0.4-1.6-0.4h-0.1c-1.1,0-2.1,0.5-2.9,1.6v6.5c0,0.7,0.2,1.2,0.7,1.4
		c0.7,0.1,1,0.2,1,0.3v0.4c0,0.1,0,0.1-0.1,0.1h-4.5c-0.1,0-0.1,0-0.1-0.1V249c0-0.1,0.3-0.1,1-0.3c0.5-0.3,0.7-0.9,0.7-1.7v-5.4
		c0-1.3-0.4-1.9-1.3-1.9h-0.3c-0.1,0-0.1,0-0.1-0.1v-0.5C323.6,239.1,324.6,238.9,326.5,238.5z"/>
	<path id="XMLID_242_" class="st0" d="M350.2,238.5h0.4c1.7,0,3,0.8,3.9,2.4c0.3,0.7,0.4,1.3,0.5,1.7v0.5c-0.2,0.8-0.9,1.2-2.2,1.2
		c-0.3,0-0.8,0.1-1.5,0.1h-4.6c0,2.1,0.9,3.6,2.7,4.4c0.4,0.1,0.9,0.2,1.4,0.3c1.2,0,2.2-0.5,3-1.6c0.1,0,0.3,0.1,0.7,0.2v0.1
		c-0.8,1.4-2,2.1-3.6,2.1h-0.3c-1.7,0-3.1-0.7-4.3-2.2c-0.8-1-1.2-2.2-1.2-3.4v-0.5c0-2.1,1-3.7,3-4.8
		C348.8,238.7,349.5,238.5,350.2,238.5z M346.7,243.8h5.4c1.1,0,1.6-0.4,1.6-1.3c0-1.2-0.8-2.3-2.4-3.1c-0.5-0.2-0.9-0.3-1.3-0.3
		c-1.4,0-2.5,1-3.1,3.1C346.7,243,346.7,243.5,346.7,243.8z"/>
	<path id="XMLID_245_" class="st0" d="M359.5,238.5l0.1,0.1v1.5c1.3-1,2.6-1.6,3.8-1.6h0.6c2.4,0,3.6,1.8,3.6,5.4l-0.1,3.2
		c0.1,1.2,0.5,1.8,1.2,1.8c0.4,0,0.6,0.1,0.6,0.2v0.4c0,0.1,0,0.1-0.1,0.1h-4.5c-0.1,0-0.1,0-0.1-0.1V249c0,0,0.3-0.1,1-0.3
		c0.5-0.3,0.7-0.7,0.7-1.4v-1.8c0-3.4-0.7-5.4-2-6c-0.4-0.2-0.9-0.4-1.5-0.4c-1.2,0-2.2,0.5-3,1.6v6.5c0,1.1,0.6,1.6,1.7,1.6v0.5
		c0,0.1,0,0.1-0.1,0.1h-4.5c-0.1,0-0.1,0-0.1-0.1V249c0-0.1,0.3-0.1,1-0.3c0.5-0.2,0.7-0.9,0.7-2.2v-4.3c0-1.4-0.2-2.1-0.6-2.3
		c-0.3-0.2-0.6-0.3-0.8-0.3h-0.3c-0.1,0-0.1,0-0.1-0.1v-0.5c0-0.1,0.9-0.3,2.8-0.7C359.4,238.5,359.5,238.5,359.5,238.5z"/>
	<path id="XMLID_247_" class="st0" d="M376.1,238.5h0.6c1.9,0,3.4,1,4.7,2.9c0.4,0.8,0.6,1.6,0.6,2.4v0.5c0,1.8-0.9,3.4-2.8,4.7
		c-0.9,0.5-1.8,0.8-2.6,0.8H376c-1.9,0-3.4-1-4.6-2.9c-0.4-0.8-0.7-1.6-0.7-2.6V244c0-2,1.1-3.6,3.3-4.9
		C374.8,238.7,375.5,238.5,376.1,238.5z M372.4,244.1v0.5c0,3,1.3,4.5,3.8,4.5h0.3c2.5,0,3.8-1.6,3.8-4.8v-0.5
		c0-3.1-1.3-4.6-3.8-4.6h-0.1C373.7,239.1,372.4,240.8,372.4,244.1z"/>
	<path id="XMLID_250_" class="st0" d="M388,238.5h0.3c0.7,0,1.5,0.2,2.5,0.7c0.2,0,0.3-0.2,0.4-0.6c0.2,0,0.4,0,0.6-0.1
		c0.1,0.1,0.2,1.1,0.5,3c-0.1,0.1-0.3,0.1-0.6,0.2c-0.4-1.1-0.9-1.8-1.7-2.2c-0.7-0.3-1.3-0.4-1.9-0.4c-1.1,0-1.8,0.4-2,1.3
		c0,0.1,0,0.2-0.1,0.4c0,0.9,1,1.5,3.1,1.9c2.3,0.8,3.5,1.9,3.5,3.2v0.5c0,1.4-0.9,2.4-2.7,3.1c-0.4,0.1-0.8,0.2-1.1,0.2h-0.6
		c-0.8,0-1.7-0.4-2.7-1.1h-0.3c0,0-0.1,0.2-0.3,0.5h-0.5c-0.1,0-0.1,0-0.1-0.1v-2.9c0-0.1,0-0.1,0.1-0.1h0.5c0,0,0.2,0.4,0.4,1.1
		c0.7,1.2,1.7,1.8,2.9,1.8h0.2c1.3,0,2.3-0.5,2.8-1.6c0.1-0.3,0.1-0.5,0.1-0.7v-0.1c0-1-0.9-1.7-2.6-2c-2.8-0.8-4.2-1.9-4.2-3.4
		c0-0.9,0.5-1.6,1.5-2.3C386.6,238.7,387.2,238.5,388,238.5z"/>
	<path id="XMLID_252_" class="st0" d="M404,238.5l0.1,0.1v2.7c0,0.2,0,2.1,0,5.5c0,1.1,0.3,1.8,0.8,2c0.3,0.1,0.6,0.2,0.8,0.2v0.4
		c0,0.1,0,0.1-0.1,0.1h-4.5c-0.1,0-0.1,0-0.1-0.1V249c0-0.1,0.3-0.1,0.9-0.2c0.5-0.1,0.8-0.5,0.8-1.4c0-0.3,0-2.2,0-5.8
		c0-0.9-0.3-1.5-0.8-1.8c-0.4-0.2-0.7-0.3-1-0.3v-0.4c0-0.1,0.9-0.3,2.8-0.7C403.9,238.5,403.9,238.5,404,238.5z M403.2,229.4h0.2
		c0.5,0,0.8,0.3,0.9,0.9c0,0.4-0.3,0.7-0.9,0.9c-0.6-0.1-0.9-0.4-0.9-0.9C402.5,229.7,402.8,229.4,403.2,229.4z"/>
	<path id="XMLID_255_" class="st0" d="M411,238.5l0.1,0.1v1.5c1.3-1,2.5-1.6,3.8-1.6h0.5c1.4,0,2.4,0.6,3,1.7h0.1
		c1.2-1.1,2.5-1.7,3.9-1.7h0.6c2.4,0,3.6,1.8,3.6,5.4c0,0.8-0.1,1.7-0.1,2.5c0,0.2,0,0.4-0.1,0.7c0.1,1.2,0.4,1.8,1,1.8
		c0.5,0.1,0.7,0.2,0.7,0.2v0.4c0,0.1,0,0.1-0.1,0.1h-4.5c-0.1,0-0.1,0-0.1-0.1V249c0,0,0.4-0.1,1.1-0.3c0.4-0.3,0.7-0.8,0.7-1.4
		v-1.9c0-3.3-0.7-5.2-2.1-5.9c-0.4-0.2-0.9-0.3-1.3-0.3c-1.2,0-2,0.6-2.5,1.9c-0.2,0.5-0.3,1.3-0.3,2.4c0,1.7,0.1,2.9,0.1,3.7
		c0.1,1.1,0.4,1.6,1,1.6c0.5,0.1,0.8,0.2,0.8,0.2v0.4c0,0.1,0,0.1-0.1,0.1h-4.5c-0.1,0-0.1,0-0.1-0.1V249c0-0.1,0.3-0.1,0.9-0.2
		c0.6-0.2,0.9-0.8,0.9-1.8v-1.4c0-3.3-0.7-5.3-2-6c-0.5-0.2-1-0.4-1.6-0.4H414c-1.1,0-2.1,0.5-2.9,1.6v6.5c0,0.7,0.2,1.2,0.7,1.4
		c0.7,0.1,1,0.2,1,0.3v0.4c0,0.1,0,0.1-0.1,0.1h-4.5c-0.1,0-0.1,0-0.1-0.1V249c0-0.1,0.3-0.1,1-0.3c0.5-0.3,0.7-0.9,0.7-1.7v-5.4
		c0-1.3-0.4-1.9-1.3-1.9h-0.3c-0.1,0-0.1,0-0.1-0.1v-0.5C408.1,239.1,409.1,238.9,411,238.5z"/>
	<path id="XMLID_257_" class="st0" d="M432.3,238.6l0.1,0.1v1.7c1.2-1.2,2.5-1.8,3.8-1.8h0.4c1.8,0,3.3,1,4.5,3
		c0.3,0.9,0.5,1.6,0.5,2.3v0.5c0,2-0.9,3.6-2.8,4.8c-0.8,0.5-1.7,0.7-2.5,0.7c-1.4,0-2.7-0.6-3.8-1.8v4.9c0,1.2,0.2,1.9,0.7,2
		c0.3,0.1,0.7,0.2,1.1,0.3v0.5c0,0.1,0,0.1-0.1,0.1h-4.5c-0.1,0-0.1,0-0.1-0.1v-0.4c0-0.1,0.3-0.1,1-0.3c0.4-0.3,0.7-0.8,0.7-1.4
		v-12.4c-0.1-0.9-0.4-1.4-1-1.4c-0.4-0.1-0.7-0.2-0.7-0.2v-0.5C429.4,239.2,430.4,238.9,432.3,238.6z M432.5,244.4
		c0,2.2,0.5,3.5,1.4,4.2c0.6,0.4,1.3,0.6,2,0.6c2.6,0,3.9-1.6,3.9-4.9c0-3.4-1.3-5-3.8-5c-1.7,0-2.8,0.8-3.3,2.4
		C432.6,242.5,432.5,243.4,432.5,244.4z"/>
	<path id="XMLID_260_" class="st0" d="M448.8,238.5h0.6c1.9,0,3.4,1,4.7,2.9c0.4,0.8,0.6,1.6,0.6,2.4v0.5c0,1.8-0.9,3.4-2.8,4.7
		c-0.9,0.5-1.8,0.8-2.6,0.8h-0.6c-1.9,0-3.4-1-4.6-2.9c-0.4-0.8-0.7-1.6-0.7-2.6V244c0-2,1.1-3.6,3.3-4.9
		C447.4,238.7,448.2,238.5,448.8,238.5z M445.1,244.1v0.5c0,3,1.3,4.5,3.8,4.5h0.3c2.5,0,3.8-1.6,3.8-4.8v-0.5
		c0-3.1-1.3-4.6-3.8-4.6H449C446.4,239.1,445.1,240.8,445.1,244.1z"/>
	<path id="XMLID_263_" class="st0" d="M459.3,238.5l0.1,0.1v2.4h0.1c0.8-1.5,1.8-2.3,2.9-2.3c0.9,0.1,1.4,0.3,1.4,0.5
		c-0.2,0.9-0.4,1.4-0.5,1.4c-0.5-0.4-1-0.6-1.5-0.6h-0.2c-0.8,0-1.5,0.6-2,1.8c-0.2,0.5-0.3,2.2-0.4,5.2c0,0.9,0.3,1.5,0.8,1.8
		c0.3,0.1,0.7,0.2,1,0.2v0.5c0,0.1,0,0.1-0.1,0.1h-4.5c-0.1,0-0.1,0-0.1-0.1V249c0-0.1,0.3-0.1,0.9-0.2c0.5-0.2,0.8-0.7,0.8-1.6
		l0.1-5.5c-0.1-1.2-0.4-1.8-0.9-1.8c0-0.1-0.3-0.1-0.9-0.2v-0.5C456.4,239.1,457.4,238.9,459.3,238.5z"/>
	<path id="XMLID_265_" class="st0" d="M468.4,233.7h0.5c0.1,0,0.1,0,0.1,0.1v3.7h2.4c0.1,0,0.1,0,0.1,0.1v0.6c0,0.1,0,0.1-0.1,0.1
		H469v7.3c0,1.7,0.9,2.8,2.7,3.4c0.7,0,1,0.2,1,0.6l-0.1,0.1h-0.7c-1.5,0-2.7-0.6-3.6-1.7c-0.4-0.6-0.7-1.8-0.7-3.6v-6h-1.6
		c-0.1,0-0.1,0-0.1-0.1v-0.4c0,0,0.3-0.1,0.8-0.3c1-0.9,1.5-2.1,1.5-3.6v-0.1C468.3,233.7,468.3,233.7,468.4,233.7z"/>
	<path id="XMLID_267_" class="st0" d="M478.2,238.5h0.5c1.6,0,2.8,0.7,3.7,2.2c0.3,0.7,0.4,1.4,0.4,2.2c-0.1,1.2-0.1,2.4-0.1,3.8
		c0,1,0.3,1.7,0.8,2c0.5,0.2,0.8,0.3,0.8,0.3v0.4c0,0.1,0,0.1-0.1,0.1h-2.7c-0.1,0-0.1,0-0.1-0.1V248c-1.2,1.2-2.5,1.8-4,1.8h-0.5
		c-1.6,0-2.7-0.7-3.5-2c-0.1-0.3-0.1-0.5-0.1-0.7v-0.3c0-1.2,0.6-2.1,1.8-2.8c0.8-0.4,2.2-0.9,4.2-1.4c1.3-0.5,1.9-1,1.9-1.3
		c0-0.7-0.6-1.3-1.9-1.9c-0.4-0.1-0.7-0.2-0.9-0.2h-0.3c-1.2,0-2.2,0.9-3,2.8H475c-0.2,0-0.5-0.2-0.9-0.7c0.3-0.9,0.8-1.6,1.6-2.1
		C476.5,238.7,477.4,238.5,478.2,238.5z M475,246.8v0.1c0,1.1,0.8,1.8,2.5,2.1h0.6c1.2,0,2.3-0.7,3.1-2.1c0.2-0.4,0.3-0.8,0.3-1.2
		v-1c0-0.6,0-1.4-0.1-2.5c0-0.1-0.1-0.1-0.1-0.2c-0.5,0.5-2,1.2-4.5,2.2C475.6,245.1,475,245.9,475,246.8z M478.1,232.6h1.2l2,3.7
		c0.1,0.2,0.1,0.3,0.1,0.3c0,0.1-0.1,0.2-0.2,0.2c-0.1,0-0.1-0.1-0.2-0.2c0,0-0.1-0.1-0.1-0.1l-2.2-2.3l-2.2,2.3
		c-0.2,0.2-0.3,0.3-0.4,0.3c-0.1,0-0.2-0.1-0.2-0.2c0,0,0-0.1,0.1-0.3L478.1,232.6z"/>
	<path id="XMLID_271_" class="st0" d="M488.5,238.5l0.1,0.1v1.5c1.3-1,2.6-1.6,3.8-1.6h0.6c2.4,0,3.6,1.8,3.6,5.4l-0.1,3.2
		c0.1,1.2,0.5,1.8,1.2,1.8c0.4,0,0.6,0.1,0.6,0.2v0.4c0,0.1,0,0.1-0.1,0.1h-4.5c-0.1,0-0.1,0-0.1-0.1V249c0,0,0.3-0.1,1-0.3
		c0.5-0.3,0.7-0.7,0.7-1.4v-1.8c0-3.4-0.7-5.4-2-6c-0.4-0.2-0.9-0.4-1.5-0.4c-1.2,0-2.2,0.5-3,1.6v6.5c0,1.1,0.6,1.6,1.7,1.6v0.5
		c0,0.1,0,0.1-0.1,0.1h-4.5c-0.1,0-0.1,0-0.1-0.1V249c0-0.1,0.3-0.1,1-0.3c0.5-0.2,0.7-0.9,0.7-2.2v-4.3c0-1.4-0.2-2.1-0.6-2.3
		c-0.3-0.2-0.6-0.3-0.8-0.3h-0.3c-0.1,0-0.1,0-0.1-0.1v-0.5c0-0.1,0.9-0.3,2.8-0.7C488.4,238.5,488.4,238.5,488.5,238.5z"/>
	<path id="XMLID_273_" class="st0" d="M504.7,238.5h0.5c1.7,0,3.1,0.9,4,2.7v0.2c-0.4,0.4-0.7,0.7-0.9,0.7c-0.4-0.9-0.8-1.5-1.3-1.9
		c-0.8-0.6-1.5-1-2.3-1c-1.4,0-2.5,1-3.1,3.1c-0.2,0.5-0.3,1.1-0.3,1.9c0,2.3,0.9,3.8,2.6,4.6c0.5,0.1,1,0.2,1.4,0.3
		c1.2,0,2.2-0.5,3-1.6c0.1,0,0.3,0.1,0.7,0.2v0.1c-0.8,1.4-2,2.1-3.6,2.1h-0.3c-1.7,0-3.1-0.7-4.3-2.2c-0.8-1-1.2-2.2-1.2-3.4v-0.5
		c0-2,0.9-3.5,2.7-4.7C503.1,238.7,503.9,238.5,504.7,238.5z"/>
	<path id="XMLID_275_" class="st0" d="M513.7,238.5l0.1,0.1v2.7c0,0.2,0,2.1,0,5.5c0,1.1,0.3,1.8,0.8,2c0.3,0.1,0.6,0.2,0.8,0.2v0.4
		c0,0.1,0,0.1-0.1,0.1h-4.5c-0.1,0-0.1,0-0.1-0.1V249c0-0.1,0.3-0.1,0.9-0.2c0.5-0.1,0.8-0.5,0.8-1.4c0-0.3,0-2.2,0-5.8
		c0-0.9-0.3-1.5-0.8-1.8c-0.4-0.2-0.7-0.3-1-0.3v-0.4c0-0.1,0.9-0.3,2.8-0.7C513.6,238.5,513.7,238.5,513.7,238.5z M512.9,229.4h0.2
		c0.5,0,0.8,0.3,0.9,0.9c0,0.4-0.3,0.7-0.9,0.9c-0.6-0.1-0.9-0.4-0.9-0.9C512.3,229.7,512.5,229.4,512.9,229.4z"/>
	<path id="XMLID_278_" class="st0" d="M522.2,238.5h0.5c1.6,0,2.8,0.7,3.7,2.2c0.3,0.7,0.4,1.4,0.4,2.2c-0.1,1.2-0.1,2.4-0.1,3.8
		c0,1,0.3,1.7,0.8,2c0.5,0.2,0.8,0.3,0.8,0.3v0.4c0,0.1,0,0.1-0.1,0.1h-2.7c-0.1,0-0.1,0-0.1-0.1V248c-1.2,1.2-2.5,1.8-4,1.8h-0.5
		c-1.6,0-2.7-0.7-3.5-2c-0.1-0.3-0.1-0.5-0.1-0.7v-0.3c0-1.2,0.6-2.1,1.8-2.8c0.8-0.4,2.2-0.9,4.2-1.4c1.3-0.5,1.9-1,1.9-1.3
		c0-0.7-0.6-1.3-1.9-1.9c-0.4-0.1-0.7-0.2-0.9-0.2h-0.3c-1.2,0-2.2,0.9-3,2.8H519c-0.2,0-0.5-0.2-0.9-0.7c0.3-0.9,0.8-1.6,1.6-2.1
		C520.6,238.7,521.4,238.5,522.2,238.5z M519,246.8v0.1c0,1.1,0.8,1.8,2.5,2.1h0.6c1.2,0,2.3-0.7,3.1-2.1c0.2-0.4,0.3-0.8,0.3-1.2
		v-1c0-0.6,0-1.4-0.1-2.5c0-0.1-0.1-0.1-0.1-0.2c-0.5,0.5-2,1.2-4.5,2.2C519.6,245.1,519,245.9,519,246.8z"/>
	<path id="XMLID_281_" class="st0" d="M531.3,247.6c0.2,0,0.4,0.1,0.6,0.3s0.3,0.4,0.3,0.6c0,0.2-0.1,0.5-0.3,0.6
		c-0.2,0.2-0.4,0.3-0.6,0.3s-0.5-0.1-0.6-0.3c-0.2-0.2-0.3-0.4-0.3-0.6c0-0.2,0.1-0.4,0.3-0.6C530.9,247.7,531.1,247.6,531.3,247.6z
		"/>
</g>
</svg>
