<?xml version="1.0" encoding="utf-8"?>
<!-- Generator: Adobe Illustrator 19.0.0, SVG Export Plug-In . SVG Version: 6.00 Build 0)  -->
<svg version="1.1" id="Camada_1" xmlns="http://www.w3.org/2000/svg" xmlns:xlink="http://www.w3.org/1999/xlink" x="0px" y="0px"
	 viewBox="0 0 377 100" style="enable-background:new 0 0 377 100;" xml:space="preserve">
<style type="text/css">
	.st0{fill:#010202;}
</style>
<g id="XMLID_1_">
	<path id="XMLID_3_" class="st0" d="M34.5,24.5h1.9c3.3,0,6.9,1,10.9,3.1c0.4,0.1,0.7,0.1,0.9,0.1c0.7,0,1.2-0.8,1.4-2.3l1.5-0.3
		h1.7c0.1,1.6,0.9,6.1,2.1,13.6c-0.7,0.3-1.8,0.5-3.1,0.6c-1.8-5.1-4.6-8.5-8.2-10.3c-2.9-1.2-5.6-1.8-8.3-1.8
		c-5.2,0-8.4,1.9-9.6,5.6c-0.3,0.6-0.4,1.2-0.4,2v0.8c0,3.6,3.8,6.5,11.3,8.5c8.2,2.7,13.2,4.8,14.8,6.2c3.5,2.9,5.2,6.3,5.2,10.1
		v1.1c0,6.7-4.6,11.5-13.7,14.4c-1.8,0.4-3.4,0.6-4.8,0.6h-1.5c-4.7,0-9.1-1.6-13.3-4.9c-0.6-0.1-1-0.2-1.1-0.2H22
		c-0.5,0-1,0.7-1.5,2.1h-1.8c-0.8,0-1.2-0.3-1.2-1V60.4c0.1-0.6,0.5-0.9,1.2-0.9h1.3c0.5,0.5,1.2,2.4,2.1,5.7
		c1.5,3.1,3.8,5.3,6.9,6.6c3.1,1.3,6.1,1.9,8.8,1.9c6.2,0,10.3-3,12.3-9c0.2-0.6,0.3-1.2,0.3-1.8v-1c0-4.6-4.4-7.9-13.1-9.9
		c-12.8-3.4-19.2-8.1-19.2-14.2c0-5.6,3.2-9.7,9.7-12.2C30,24.9,32.2,24.5,34.5,24.5z"/>
	<path id="XMLID_5_" class="st0" d="M63.8,43l0.5,0.9v1.8c0,13.2,0.6,20.3,1.7,21.1c1.3,3.5,3.7,5.3,7.2,5.3h0.3
		c2.8,0,5.3-1.4,7.4-4.1V53.7c0-0.3,0-1.2,0-2.8c0-1.6-0.7-2.5-2-2.7c-1.9-0.3-2.8-0.8-2.8-1.3v-1.3c0-0.6,3.2-1.5,9.6-2.6l0.5,0.9
		v23.2c0,3.2,1.4,4.8,4.2,4.8l0.4,0.8v1.3c0,0.7-0.4,1-1.2,1h-7.6c-0.8,0-1.2-0.3-1.2-1v-1.7c-2.6,2.3-5.9,3.4-9.8,3.4h-1.4
		c-7.2,0-10.9-5.2-10.9-15.6l-0.1-8.8c-0.1-2.2-0.9-3.3-2.4-3.3c-1.4-0.2-2.1-0.6-2.1-1.1v-1.3C54.4,45,57.6,44.2,63.8,43z"/>
	<path id="XMLID_7_" class="st0" d="M97.3,13.8l0.5,0.9v31.7c2.5-2.6,5.8-3.9,10.1-3.9c6.1,0,10.8,3.3,14.1,9.8c0.8,2,1.2,4,1.2,5.8
		v1.3c0,5.6-2.7,10.2-8.1,13.9c-2.4,1.3-4.8,2-7,2h-1.1c-3.9,0-7.2-1.4-9.9-4.2c-0.7,1.9-1.1,3.4-1.1,4.2h-2.3c-0.8,0-1.2-0.3-1.2-1
		v-52c-0.2-2.2-1-3.3-2.3-3.3c0-0.2-0.8-0.5-2.4-0.7v-2C87.9,15.9,91,15,97.3,13.8z M98.1,59.6c0,6.2,1.4,10,4.3,11.5
		c1.4,0.5,2.8,0.8,4.1,0.8h0.7c6.3,0,9.4-4.3,9.4-12.9c0-8.7-3.1-13.1-9.4-13.1h-0.3c-4,0-6.6,1.8-7.7,5.4
		C98.4,53.3,98.1,56.1,98.1,59.6z"/>
	<path id="XMLID_10_" class="st0" d="M126.7,68.2c0.9,0,1.7,0.3,2.4,0.9c0.6,0.6,1,1.4,1,2.2c0,0.8-0.3,1.6-0.9,2.2
		s-1.4,0.9-2.4,0.9c-0.9,0-1.7-0.3-2.4-0.9c-0.6-0.6-1-1.4-1-2.2c0-0.8,0.3-1.6,1-2.2C125,68.5,125.8,68.2,126.7,68.2z"/>
	<path id="XMLID_12_" class="st0" d="M144.6,43.1h0.8c2.1,0,4.4,0.7,7.1,2c-0.2,0-0.2-0.5-0.1-1.5c1,0,2-0.1,2.8-0.2
		c0.4,0.8,1,3.9,1.8,9.3c-0.5,0.5-1.6,0.8-3.2,1c-1.2-3.2-2.6-5.3-4.4-6.2c-1.7-0.7-3.3-1-4.8-1c-2.6,0-4.1,1-4.7,3
		c0,0.2,0,0.6-0.1,1.1c0,2,2.7,3.5,8,4.6c6.9,2.4,10.3,5.5,10.3,9.5V66c0,4.1-2.7,7.2-8,9.2c-1.3,0.3-2.4,0.5-3.4,0.5h-1.5
		c-2.5,0-5.1-1-7.8-3H137c0.3,0,0.2,0.4-0.3,1.3h-1.8c-0.8,0-1.2-0.3-1.2-1v-8.2c0.1-0.6,0.5-0.9,1.2-0.9h1.3c0.6,0,1.2,1.2,2,3.6
		c1.8,3,4.2,4.6,7.2,4.6h0.4c3.3,0,5.6-1.3,6.9-3.8c0.2-0.8,0.2-1.3,0.2-1.7v-0.3c0-2.4-2.2-4-6.5-4.8c-8.2-2.4-12.3-5.7-12.3-9.9
		c0-2.6,1.5-4.9,4.4-6.9C140.2,43.6,142.3,43.1,144.6,43.1z"/>
	<path id="XMLID_14_" class="st0" d="M167.5,43.1l0.4,0.8v7.6c0,0.7,0,5.8,0.1,15.4c0,2.8,0.5,4.4,1.8,4.8c0.9,0.3,1.8,0.5,2.8,0.6
		v1.7c0,0.7-0.4,1-1.2,1H159c-0.8,0-1.2-0.3-1.2-1v-1.1c0-0.5,1-1,3.1-1.3c1-0.1,1.5-1.2,1.6-3.2c0-0.8,0-6.1,0.1-15.9
		c0-2.3-0.6-3.7-1.7-4.3c-0.9-0.4-1.9-0.6-3.1-0.5v-1.9c0-0.7,2.6-1.5,7.9-2.4C165.7,43.2,166.3,43.1,167.5,43.1z M167.8,21h0.8
		c2,0.3,3.1,1.3,3.1,3v0.6c0,0.9-1.7,2.8-5.1,5.7c-2.1,2.2-3.6,3.3-4.3,3.3h-0.8c-0.4,0-1.1-0.5-1.9-1.5v-1c0-0.6,2.3-3.8,6.9-9.6
		L167.8,21z"/>
	<path id="XMLID_17_" class="st0" d="M179.2,68.2c0.9,0,1.7,0.3,2.4,0.9c0.6,0.6,1,1.4,1,2.2c0,0.8-0.3,1.6-0.9,2.2
		s-1.4,0.9-2.4,0.9c-0.9,0-1.7-0.3-2.4-0.9c-0.6-0.6-1-1.4-1-2.2c0-0.8,0.3-1.6,1-2.2C177.4,68.5,178.2,68.2,179.2,68.2z"/>
	<path id="XMLID_19_" class="st0" d="M214.7,14.2l0.5,0.9v53.1c0.2,2.2,0.7,3.3,1.6,3.3c2,0.4,3,0.9,3,1.4v1.1c0,0.7-0.4,1-1.2,1
		h-7.6c-0.8,0-1.2-0.3-1.2-1v-1.7c-2.2,2.2-5.2,3.3-9,3.3h-1.1c-5.8,0-10.4-3.3-13.9-9.9c-0.8-2.3-1.2-4.3-1.2-6v-1.3
		c0-5.4,2.5-9.8,7.5-13.4c2.6-1.5,5.1-2.3,7.7-2.3c4.2,0,7.5,1.2,9.9,3.7V23.8c0-2.3-0.4-3.7-1.2-4.3c-0.4-0.3-1.6-0.5-3.6-0.8v-2
		C205.1,16.2,208.3,15.3,214.7,14.2z M191.4,57.9v2.7c0,5.7,1.9,9.4,5.6,11c1.2,0.4,2.4,0.6,3.7,0.6h0.7c5.6,0,8.4-3.9,8.4-11.7
		v-1.1c0-6.3-1.3-10.3-4-12.1c-1.5-0.8-3.1-1.1-4.8-1.1h-0.4c-4.7,0-7.6,2.6-8.7,7.8C191.5,55.2,191.4,56.5,191.4,57.9z"/>
	<path id="XMLID_22_" class="st0" d="M227.8,43.1l0.4,0.8v7.6c0,0.7,0,5.8,0.1,15.4c0,2.8,0.5,4.4,1.8,4.8c0.9,0.3,1.8,0.5,2.8,0.6
		v1.7c0,0.7-0.4,1-1.2,1h-12.4c-0.8,0-1.2-0.3-1.2-1v-1.1c0-0.5,1-1,3.1-1.3c1-0.1,1.5-1.2,1.6-3.2c0-0.8,0-6.1,0.1-15.9
		c0-2.3-0.6-3.7-1.7-4.3c-0.9-0.4-1.9-0.6-3.1-0.5v-1.9c0-0.7,2.6-1.5,7.9-2.4C226,43.2,226.6,43.1,227.8,43.1z M224.9,17.8h0.6
		c1.9,0,2.9,1.1,3.3,3.2c0,1.6-1.1,2.6-3.4,3.1c-2.3-0.3-3.4-1.4-3.4-3.3C222.4,18.8,223.4,17.8,224.9,17.8z"/>
	<path id="XMLID_25_" class="st0" d="M237.6,68.2c0.9,0,1.7,0.3,2.4,0.9c0.6,0.6,1,1.4,1,2.2c0,0.8-0.3,1.6-0.9,2.2
		s-1.4,0.9-2.4,0.9c-0.9,0-1.7-0.3-2.4-0.9s-1-1.4-1-2.2c0-0.8,0.3-1.6,1-2.2C235.8,68.5,236.6,68.2,237.6,68.2z"/>
	<path id="XMLID_27_" class="st0" d="M255.7,43h1.4c4.8,0,8.5,2.2,10.9,6.6c0.8,2.1,1.2,4.2,1.2,6.3c-0.2,3.3-0.3,6.8-0.3,10.5
		c0,2.5,0.6,4.2,1.8,5c1.8,0.5,2.7,1,2.7,1.5v1.1c0,0.7-0.4,1-1.2,1h-7.6c-0.8,0-1.2-0.3-1.2-1v-2c-2.3,2.5-5.7,3.7-10.1,3.7h-1.4
		c-4.8,0-8.3-2-10.4-6c-0.2-0.9-0.3-1.6-0.3-2V67c0-3.4,1.8-6.2,5.5-8.5c2.4-1.1,6.3-2.4,11.7-4c3.1-1.3,4.7-2.3,4.7-3
		c0-1.6-1.6-3.2-4.8-4.7c-0.9-0.2-1.6-0.4-2.2-0.4h-0.7c-2.8,0-5.4,2.6-7.8,7.7h-0.7c-0.8,0-2-0.8-3.5-2.4c0.8-2.8,2.4-5,4.9-6.6
		C250.8,43.7,253.3,43,255.7,43z M247.8,66.7V67c0,2.7,2,4.5,6.1,5.2h1.4c3,0,5.6-1.8,7.8-5.3c0.4-1.1,0.6-2.1,0.6-3v-2.8
		c0-1.7,0-3.9-0.1-6.8c-0.1-0.2-0.1,0.3-0.1,1.3c-0.5,0.5-4.2,2.1-11,4.9C249.3,62.5,247.8,64.6,247.8,66.7z M261.2,21h0.8
		c2,0.3,3.1,1.3,3.1,3v0.6c0,0.9-1.7,2.8-5.1,5.7c-2.1,2.2-3.6,3.3-4.3,3.3h-0.8c-0.4,0-1.1-0.5-1.9-1.5v-1c0-0.6,2.3-3.8,6.9-9.6
		L261.2,21z"/>
	<path id="XMLID_31_" class="st0" d="M277.2,68.2c0.9,0,1.7,0.3,2.4,0.9c0.6,0.6,1,1.4,1,2.2c0,0.8-0.3,1.6-0.9,2.2
		s-1.4,0.9-2.4,0.9c-0.9,0-1.7-0.3-2.4-0.9s-1-1.4-1-2.2c0-0.8,0.3-1.6,1-2.2C275.5,68.5,276.3,68.2,277.2,68.2z"/>
	<path id="XMLID_33_" class="st0" d="M292,43l0.5,0.9v6h-1.3c2.3-4.2,5.2-6.3,8.8-6.3c2.9,0.4,4.5,1.1,4.8,2.1
		c-0.8,3-1.6,4.5-2.5,4.5c-1.4-1.1-2.6-1.7-3.9-1.7h-0.4c-1.8,0-3.3,1.5-4.6,4.6c-0.5,1.2-0.9,6-0.9,14.1c0,2.3,0.5,3.8,1.6,4.3
		c0.8,0.2,1.9,0.4,3.3,0.6v1.9c0,0.7-0.4,1-1.2,1h-12.5c-0.8,0-1.2-0.3-1.2-1v-1.1c0-0.5,1-0.9,3-1.2c1.1-0.4,1.6-1.7,1.6-3.8
		l0.1-15.3c-0.2-2.8-1-4.2-2.4-4.2c0-0.2-0.8-0.5-2.4-0.7v-2C282.4,45,285.6,44.1,292,43z"/>
	<path id="XMLID_35_" class="st0" d="M313.1,43.1l0.4,0.8v7.6c0,0.7,0,5.8,0.1,15.4c0,2.8,0.5,4.4,1.8,4.8c0.9,0.3,1.8,0.5,2.8,0.6
		v1.7c0,0.7-0.4,1-1.2,1h-12.4c-0.8,0-1.2-0.3-1.2-1v-1.1c0-0.5,1-1,3.1-1.3c1-0.1,1.5-1.2,1.6-3.2c0-0.8,0-6.1,0.1-15.9
		c0-2.3-0.6-3.7-1.7-4.3c-0.9-0.4-1.9-0.6-3.1-0.5v-1.9c0-0.7,2.6-1.5,7.9-2.4C311.4,43.2,311.9,43.1,313.1,43.1z M310.3,17.8h0.6
		c1.9,0,2.9,1.1,3.3,3.2c0,1.6-1.1,2.6-3.4,3.1c-2.3-0.3-3.4-1.4-3.4-3.3C307.7,18.8,308.7,17.8,310.3,17.8z"/>
	<path id="XMLID_38_" class="st0" d="M322.9,68.2c0.9,0,1.7,0.3,2.4,0.9c0.6,0.6,1,1.4,1,2.2c0,0.8-0.3,1.6-0.9,2.2
		s-1.4,0.9-2.4,0.9c-0.9,0-1.7-0.3-2.4-0.9s-1-1.4-1-2.2c0-0.8,0.3-1.6,1-2.2C321.2,68.5,322,68.2,322.9,68.2z"/>
	<path id="XMLID_40_" class="st0" d="M344,43.1h1.5c5.5,0,10.1,2.9,13.7,8.6c1.2,2.4,1.8,4.7,1.8,6.9V60c0,5.3-2.7,9.8-8.2,13.5
		c-2.6,1.5-5.2,2.3-7.7,2.3h-1.5c-5.5,0-10.1-2.8-13.6-8.4c-1.3-2.2-1.9-4.7-1.9-7.5v-1c0-5.7,3.1-10.5,9.4-14.2
		C340.1,43.6,342.2,43.1,344,43.1z M334.6,59.3v1.3c0,7.8,3.2,11.7,9.7,11.7h0.7c6.4,0,9.5-4.2,9.5-12.7v-1.3
		c0-8.1-3.2-12.1-9.7-12.1h-0.3C338,46.2,334.6,50.6,334.6,59.3z"/>
</g>
</svg>
