<?xml version="1.0" encoding="utf-8"?>
<!-- Generator: Adobe Illustrator 23.0.1, SVG Export Plug-In . SVG Version: 6.00 Build 0)  -->
<svg version="1.1" id="Camada_1" xmlns="http://www.w3.org/2000/svg" xmlns:xlink="http://www.w3.org/1999/xlink" x="0px" y="0px"
	 viewBox="0 0 930 205" style="enable-background:new 0 0 930 205;" xml:space="preserve">
<style type="text/css">
	.st0{fill:#FFFFFF;}
</style>
<g>
	<g>
		<path class="st0" d="M97.67,58.59c12.95-8.04,28.36-12.35,43.87-16.41c7.03-1.84,17.02,2.22,17.02-3.46
			c0-20.21-27.57-12.78-57.71,1.45C70.71,54.41,52.79,75.51,77.57,87.56c24.78,12.06,58.78,30.14,58.78,52.58
			c0,22.44-48.23,36.84-69.99,36.84s-9.21-18.76-18.42-18.76c-9.21,0-14.23,31.15,22.27,31.15s55.59-12.73,69.83-28.3
			c14.23-15.57,15.12-30.64-5.59-52.06C112.96,86.79,78.63,81.37,78.63,74C78.63,68.47,84.72,66.63,97.67,58.59z"/>
	</g>
	<g>
		<path class="st0" d="M290.18,112.46c0.89-6.08,37.06-13.56,37.06-34.77c0-21.21-29.02-18.31-39.07-18.31
			c-7.88,0-29.63,6.18-35.95,13.81c0.01-0.4,0.01-0.63,0.01-0.63c-4.69-13.84-17.12-8.58-17-0.99c0.01,0.86,0.02,1.93,0.12,2.65
			c1.29,9.07,1.58,13.05,0.36,23.3c-0.58,4.85-2.46,11.35-4.11,15.7c-6.24,16.45-29.27,35.48-47.86,35.48s-14.4-45.55-9.04-62.63
			c5.36-17.08,1.42-24.11-4.77-24.11c0,0-7.23-0.11-7.23,5.92c0,6.03-4.47,18.53-6.7,46.22c-2.23,27.68,6.7,48.9,31.48,48.9
			c24.78,0,46.87-23.73,55.59-41.97c6.11-12.79,8.14-29.99,8.82-40.09c5.92,8.1,17.75-1.89,17.75-1.89l-13.06,86.35
			c-0.75-0.64-1.48-1.43-2.12-2.41c-3.34-5.09-5.81-7.37-7.37,1.56c-1.56,8.93,0.89,20.76,21.66,20.76
			c20.76,0,61.84-7.81,65.86-38.85C338.63,115.42,289.29,118.54,290.18,112.46z M289.06,73.44c0,0,22.55-1.15,22.55,4.02
			c0,9.47-31.48,26.34-31.48,26.34L289.06,73.44z M290.77,169.22c-13.26,4.05-25.15,2.9-25.15,2.9l9.38-46.66
			c0,0,46.17,0,46.22,18.31C321.24,155.95,307.59,164.09,290.77,169.22z"/>
	</g>
	<g>
		<path class="st0" d="M452.33,155.21c-5.53,2.18-7.03-0.5-9.54-10.55c-2.51-10.05,0.5-32.82,2.18-46.05
			c1.67-13.23-12.73-17.08-18.42-10.72c-4.9,5.48-24.31,27.95-29.62,34.09C384.87,111.08,348,95.89,348,90.58
			c0-5.36,20.26-14.23,31.15-18.59c10.88-4.35,33.88-8.05,32.32-14.74c-4.02-17.25-79.37,14.74-79.37,29.14
			c0,12.39,10.73,20.17,24.95,26.84c17.12,8.03,33.99,19.37,33.99,19.37s-39.52,41.53-16.24,41.53s33.99-25.73,33.99-31.31
			c0-2.1-0.31-4.66-1.66-7.73c5.06-7.16,18.05-25.22,19.97-25.09c2.4,0.17,0.94,7.2,0,22.1c-0.94,14.9,5.13,27.8,11.16,33.16
			c6.03,5.36,12.89,4.19,17.92-2.01C461.2,157.05,457.85,153.04,452.33,155.21z"/>
	</g>
	<g>
		<path class="st0" d="M558.29,79.92c-6.7,4.69-7.37,23.89-7.37,23.89s-13.62,15.85-16.97,15.85c-3.35,0-2.9-26.34-47.56-48
			c0,0-1.45-7.7-6.59-9.27c-5.14-1.56-8.48,2.01-8.48,2.01s-8.26-2.01-11.83-6.47c-3.57-4.47-7.82-3.91-8.04,0.67
			c-0.37,7.58,4.58,14.4,19.98,20.65c0,0-12.28,74.35,3.57,83.5c0,0-7.37,4.02-4.47,7.59c2.9,3.57,4.24,12.06,14.96,5.58
			c10.72-6.47,33.99-22.3,44.96-32.76c8.23-7.84,13.53-12.78,15.09-13.01c1.56-0.23-3.79,17.41,0,27.46
			c3.8,10.05,8.26,16.52,14.96,16.52c6.7,0,11.16-6.47,11.16-12.73c0-6.25-3.13-7.81-9.38-4.47c-6.25,3.35,0.45-30.59,2.23-40.86
			c1.78-10.27,5.58-21.77,7.14-27.52C573.25,82.82,564.99,75.23,558.29,79.92z M483.94,159.85c-4.24,0-4.7-22.35-2.32-39.59
			c2.6-18.84,3.44-31.18,6.12-31.18c4.99,0,30.59,18.98,30.59,33.2C518.33,140.21,488.19,159.85,483.94,159.85z"/>
	</g>
	<path class="st0" d="M659.43,164.09c-6.92-6.03-9.38-23.89-9.15-26.35c0.22-2.46,4.47-6.47,4.69-10.05
		c0.22-3.57-4.46-3.24-4.46-3.24s2.01-36.95,1.12-51.46c-0.89-14.51-12.5-10.94-15.85-8.7c-3.35,2.24-4.91,9.37-6.7,3.56
		c-1.79-5.81-10.27-4.24-12.06,2.68c-1.79,6.92-11.61,31.03-15.85,44.21c-4.24,13.17-14.17,35.47-17.76,41.91
		c-3.6,6.46,0.57,10.55,7.05,12.56c6.47,2.01,16.52-23.44,16.52-23.44c14.96,1.12,27.91-2.23,27.91-2.23s3.57,19.2,12.73,28.36
		C656.28,180.59,666.35,170.12,659.43,164.09 M633.75,129.26c0,0-19.2,5.81-18.98,0.9c0.22-4.91,18.98-36.4,20.09-36.4
		C635.99,93.76,633.75,129.26,633.75,129.26"/>
	<g>
		<path class="st0" d="M867.01,85.05c-13.4-10.49-23.22-13.84-41.3-4.02c0,0-2.68-3.79-7.37,0.45c-4.69,4.24-12.5,21.21-12.5,30.03
			c0,7.87-4.6,22.58-3.8,37.84c0.89,16.97,5.81,43.76,36.17,42.42c30.36-1.34,45.55-26.79,47.33-47.78
			C887.33,123.01,880.4,95.54,867.01,85.05z M871.47,146.23c-2.21,14.48-11.7,22.08-19.87,26.57c-16.45,9.03-35.5,1.23-34.61-17.86
			c1.34-28.58,2.92-66.72,28.13-66.76C853.62,88.17,877.28,108.27,871.47,146.23z"/>
	</g>
	<g>
		<path class="st0" d="M668.14,93.76c1.34,2.46,2.9-2.46,4.8-6.7c1.9-4.24,8.6-39.52,15.07-54.92s4.35-23-3.24-24.45
			c-7.59-1.45-8.6,7.93-11.83,19.09c0,0-7.03,23-9.27,34.38c-2.23,11.39-2.9,34.83-1.94,38.18C662.7,102.69,666.8,91.3,668.14,93.76
			z"/>
	</g>
	<g>
		<path class="st0" d="M779.55,162.75c-4.24-0.45-3.23-30.83-0.89-42.64c3.04-15.37,7.37-22.33-4.24-25.01
			c-11.11-2.57-8.26,13.28-13.62,23.61c-5.36,10.33-16.42,37.57-19.42,37.57c-2.48,0-42.2-22.99-43.09-26.12
			c-0.89-3.13,39.07-6.03,54.48-28.36c15.41-22.33-2.68-33.27-21.66-31.48c-18.98,1.79-31.7,14.96-33.27,14.73
			c-1.56-0.22,3.13-12.06-7.33-14.88c-5.69-1.54-8.22,5.34-9.07,9.15c-2.47,11.17-9.43,48.21-11.73,57.75
			c-2.6,10.79-8.71,36.39,4.24,37.06c0,0,6.7,1.34,7.81-15.4c1.12-16.75,1.56-22.33,4.69-20.99c3.13,1.34,35.95,23.67,46.44,29.02
			c10.49,5.36,20.54,4.91,26.79-8.93c0,0,3.13,21.43,19.43,21.43c16.3,0,14.07-16.74,9.82-21.66
			C788.92,157.61,783.79,163.2,779.55,162.75z M704.81,97.95c10.72-7.87,28.3-16.41,35.67-10.72c7.37,5.69-13.73,18.63-46.22,29.34
			C694.26,116.57,694.09,105.82,704.81,97.95z"/>
	</g>
	<g>
		<path class="st0" d="M437.71,69.95c5.57,1.65,9.32-4.59,7.31-10.71c-2.01-6.12-11.83-5-14.29-0.98
			C428.28,62.28,433.47,68.7,437.71,69.95z"/>
	</g>
	<g>
		<path class="st0" d="M557.17,44.42c0,5.14,4.91,8.44,10.05,9.59c8.82,1.99,7.14-7.15,3.35-12.27
			C567.77,37.95,557.17,39.28,557.17,44.42z"/>
	</g>
	<g>
		<path class="st0" d="M781.17,33.81c-3.18,0-5.36,1.34-5.19,7.2c0.17,5.86,2.18,10.91,6.86,12.74c2.81,1.1,8.59-5.2,9.15-10.73
			C792.55,37.5,784.35,33.81,781.17,33.81z"/>
	</g>
</g>
</svg>
